<svg width="1440" height="1024" viewBox="0 0 1440 1024" fill="none" xmlns="http://www.w3.org/2000/svg">
<rect width="1440" height="1024" fill="white"/>
<rect width="921" height="56" transform="translate(247 29)" fill="#343A40"/>
<path d="M264.699 65V49.0137H266.613V65H264.699ZM269.318 59.7168C269.318 57.9329 269.816 56.5267 270.812 55.498C271.809 54.4629 273.16 53.9453 274.865 53.9453C276.486 53.9453 277.756 54.4434 278.674 55.4395C279.598 56.429 280.061 57.7995 280.061 59.5508C280.061 61.2565 279.569 62.6335 278.586 63.6816C277.603 64.7298 276.285 65.2539 274.631 65.2539C273.016 65.2539 271.727 64.7461 270.764 63.7305C269.8 62.7148 269.318 61.377 269.318 59.7168ZM271.271 59.6582C271.271 60.9017 271.584 61.8815 272.209 62.5977C272.84 63.3138 273.687 63.6719 274.748 63.6719C275.842 63.6719 276.675 63.3236 277.248 62.627C277.821 61.9238 278.107 60.918 278.107 59.6094C278.107 58.2943 277.821 57.2852 277.248 56.582C276.675 55.8789 275.842 55.5273 274.748 55.5273C273.674 55.5273 272.824 55.8952 272.199 56.6309C271.581 57.3665 271.271 58.3757 271.271 59.6582ZM292.131 64.0918C292.131 68.0892 290.191 70.0879 286.311 70.0879C284.969 70.0879 283.804 69.8372 282.814 69.3359V67.4902C284.019 68.1608 285.174 68.4961 286.281 68.4961C288.905 68.4961 290.217 67.1159 290.217 64.3555V63.2129H290.178C289.357 64.5736 288.133 65.2539 286.506 65.2539C285.152 65.2539 284.068 64.7689 283.254 63.7988C282.44 62.8288 282.033 61.543 282.033 59.9414C282.033 58.099 282.482 56.6406 283.381 55.5664C284.279 54.4857 285.477 53.9453 286.975 53.9453C288.413 53.9453 289.481 54.5182 290.178 55.6641H290.217V54.1992H292.131V64.0918ZM290.217 58.5742C290.223 57.7409 289.943 57.0247 289.377 56.4258C288.811 55.8268 288.114 55.5273 287.287 55.5273C286.245 55.5273 285.435 55.9115 284.855 56.6797C284.276 57.4414 283.986 58.4896 283.986 59.8242C283.986 60.9701 284.266 61.8978 284.826 62.6074C285.386 63.3171 286.128 63.6719 287.053 63.6719C287.984 63.6719 288.745 63.3333 289.338 62.6562C289.93 61.9792 290.223 61.1198 290.217 60.0781V58.5742ZM294.826 59.7168C294.826 57.9329 295.324 56.5267 296.32 55.498C297.316 54.4629 298.667 53.9453 300.373 53.9453C301.994 53.9453 303.264 54.4434 304.182 55.4395C305.106 56.429 305.568 57.7995 305.568 59.5508C305.568 61.2565 305.077 62.6335 304.094 63.6816C303.111 64.7298 301.792 65.2539 300.139 65.2539C298.524 65.2539 297.235 64.7461 296.271 63.7305C295.308 62.7148 294.826 61.377 294.826 59.7168ZM296.779 59.6582C296.779 60.9017 297.092 61.8815 297.717 62.5977C298.348 63.3138 299.195 63.6719 300.256 63.6719C301.35 63.6719 302.183 63.3236 302.756 62.627C303.329 61.9238 303.615 60.918 303.615 59.6094C303.615 58.2943 303.329 57.2852 302.756 56.582C302.183 55.8789 301.35 55.5273 300.256 55.5273C299.182 55.5273 298.332 55.8952 297.707 56.6309C297.089 57.3665 296.779 58.3757 296.779 59.6582Z" fill="white"/>
<path d="M345.266 54.7422H349.766C349.88 54.1484 349.974 53.5859 350.047 53.0547H343.438V51.9609H348.203C347.776 51.2943 347.359 50.7161 346.953 50.2266L347.906 49.5859C348.583 50.3151 349.099 50.9349 349.453 51.4453L348.742 51.9609H352.43C352.898 51.2734 353.396 50.487 353.922 49.6016L355.141 50.2734C354.714 50.8359 354.271 51.3984 353.812 51.9609H358.625V53.0547H351.359C351.234 53.5911 351.099 54.1536 350.953 54.7422H356.844V65.0859H355.656V64.1484H346.453V65.0859H345.266V54.7422ZM346.453 63.0859H355.656V61.3359H346.453V63.0859ZM355.656 55.8047H346.453V57.5391H355.656V55.8047ZM346.453 60.3047H355.656V58.5703H346.453V60.3047ZM361.312 53.7422H365.75C365.885 53.2005 366.042 52.5026 366.219 51.6484H359.547V50.4922H374.516V51.6484H367.609C367.391 52.4609 367.182 53.1589 366.984 53.7422H372.875V61.1797H371.609V54.8984H362.578V61.2422H361.312V53.7422ZM359.25 64.0078C361.906 63.4245 363.734 62.7057 364.734 61.8516C365.88 60.9141 366.453 59.4661 366.453 57.5078V55.7578H367.719V57.5703C367.719 58.6224 367.583 59.5547 367.312 60.3672C369.938 61.513 372.328 62.6953 374.484 63.9141L373.688 65.0859C371.688 63.8568 369.406 62.638 366.844 61.4297C366.479 62.0651 366.005 62.6016 365.422 63.0391C364.203 63.9661 362.417 64.7005 360.062 65.2422C359.875 64.8984 359.604 64.487 359.25 64.0078Z" fill="white"/>
<path d="M407.312 60.7266H414.391V58.9609H410.062V59.6953H408.875V52.1172H412.117C411.617 51.5339 411.078 50.9349 410.5 50.3203L411.391 49.5859C412.161 50.3255 412.839 51.0078 413.422 51.6328L412.844 52.1172H416.508C417.081 51.3568 417.661 50.5286 418.25 49.6328L419.5 50.3047C418.964 50.9557 418.445 51.5599 417.945 52.1172H421.141V59.6953H419.953V58.9609H415.609V60.7266H422.688V61.8516H415.609V65.1484H414.391V61.8516H407.312V60.7266ZM415.609 57.8672H419.953V56.0547H415.609V57.8672ZM410.062 57.8672H414.391V56.0547H410.062V57.8672ZM419.953 53.2109H415.609V54.9922H419.953V53.2109ZM410.062 54.9922H414.391V53.2109H410.062V54.9922ZM428.797 56.7266H434.625V61.9141H429.922V62.8828H428.797V56.7266ZM427.797 53.7109H435.828V54.8672H427.797V53.7109ZM428.312 51.7266V50.5703H437.891V63.0859C437.891 64.2943 437.349 64.9036 436.266 64.9141C435.339 64.9141 434.406 64.9089 433.469 64.8984C433.438 64.5547 433.354 64.138 433.219 63.6484C434.229 63.7214 435.12 63.7578 435.891 63.7578C436.411 63.7578 436.672 63.4609 436.672 62.8672V51.7266H428.312ZM428.016 61.4453C428.047 61.987 428.083 62.4349 428.125 62.7891C426.802 63.6432 425.833 64.3359 425.219 64.8672L424.484 63.8203C424.839 63.5391 425.016 63.0703 425.016 62.4141V56.2734H423.25V55.1484H426.219V62.6953C426.948 62.2057 427.547 61.7891 428.016 61.4453ZM424.844 50.0078C425.979 51.1745 426.802 52.0391 427.312 52.6016L426.219 53.5234C425.562 52.6589 424.786 51.763 423.891 50.8359L424.844 50.0078ZM433.5 60.8203V57.8203H429.922V60.8203H433.5ZM439.766 51.3516H446.438V49.6797H447.547V51.3516H454.312V52.3984H448.523C450.169 53.6536 452.25 54.6016 454.766 55.2422C454.495 55.6484 454.255 56.0182 454.047 56.3516C453.484 56.1589 452.943 55.9505 452.422 55.7266V62.5078H451.234V61.8047H442.812V62.5234H441.625V55.8047C441.094 56.0495 440.536 56.2839 439.953 56.5078C439.734 56.1849 439.49 55.8516 439.219 55.5078C441.906 54.6589 443.966 53.6224 445.398 52.3984H439.766V51.3516ZM439.391 63.3516H454.609V64.4766H439.391V63.3516ZM446.438 55.3359V52.6562C445.24 53.8125 443.693 54.8359 441.797 55.7266H452.414C450.492 54.9089 448.87 53.8958 447.547 52.6875V55.3359H446.438ZM442.812 60.7266H451.234V59.2891H442.812V60.7266ZM451.234 56.8047H442.812V58.2266H451.234V56.8047ZM460.953 54.6172H466.672V61.7422H462.078V62.6641H460.953V54.6172ZM459 54.8047C460.292 53.3047 461.37 51.5651 462.234 49.5859L463.422 50.0391C463.146 50.6016 462.867 51.138 462.586 51.6484H470.203C470.078 56.4089 469.974 59.8568 469.891 61.9922C469.807 63.8672 468.995 64.8047 467.453 64.8047C466.505 64.8047 465.656 64.7786 464.906 64.7266C464.844 64.3099 464.755 63.8516 464.641 63.3516C465.568 63.4974 466.406 63.5703 467.156 63.5703C468.094 63.5703 468.599 62.9661 468.672 61.7578C468.776 59.4141 468.865 56.4193 468.938 52.7734H461.938C461.318 53.7943 460.677 54.7057 460.016 55.5078C459.766 55.2995 459.427 55.0651 459 54.8047ZM460.078 61.3828C460.109 61.9245 460.146 62.3724 460.188 62.7266C458.865 63.5911 457.896 64.2839 457.281 64.8047L456.547 63.7578C456.901 63.4557 457.078 63.0078 457.078 62.4141V56.2109H455.25V55.0859H458.281V62.6328C458.875 62.237 459.474 61.8203 460.078 61.3828ZM465.547 60.6797V58.6641H462.078V60.6797H465.547ZM465.547 55.6797H462.078V57.6328H465.547V55.6797ZM456.812 49.9766C457.948 51.1432 458.771 52.0078 459.281 52.5703L458.219 53.4609C457.562 52.5964 456.786 51.7005 455.891 50.7734L456.812 49.9766Z" fill="white"/>
<path d="M504.078 50.3203H517.859V65.0234H516.688V64.2734H505.25V65.0234H504.078V50.3203ZM516.688 51.4453H505.25V63.1484H516.688V51.4453ZM505.781 55.2734C507.208 54.2422 508.38 53.0286 509.297 51.6328L510.328 52.1172C510.135 52.4036 509.927 52.6849 509.703 52.9609H515.234V53.8828C514.469 54.8099 513.492 55.6458 512.305 56.3906C513.404 56.7604 514.75 57.0495 516.344 57.2578C516.104 57.7266 515.932 58.1172 515.828 58.4297C513.979 58.0078 512.417 57.5312 511.141 57C509.865 57.5729 508.172 58.1328 506.062 58.6797C505.917 58.3359 505.74 58.0026 505.531 57.6797C507.359 57.3047 508.87 56.875 510.062 56.3906C509.328 55.8854 508.695 55.3047 508.164 54.6484C507.669 55.1224 507.13 55.5859 506.547 56.0391C506.339 55.8203 506.083 55.5651 505.781 55.2734ZM506.906 61.3203L507.234 60.2422C509.839 60.5859 512.344 60.987 514.75 61.4453L514.328 62.6328C512.026 62.1224 509.552 61.6849 506.906 61.3203ZM513.688 53.9297H508.867C508.852 53.9505 508.836 53.9688 508.82 53.9844C509.424 54.7604 510.188 55.3984 511.109 55.8984C512.188 55.3203 513.047 54.6641 513.688 53.9297ZM508.547 59.2422L508.859 58.1953C510.391 58.4245 512 58.6849 513.688 58.9766L513.359 60.0703C511.651 59.7266 510.047 59.4505 508.547 59.2422ZM519.438 56.9609H525.312V53.6328H520.453V52.4766H525.312V49.7891H526.609V52.4766H532L531.711 56.9609H533.859C533.839 58.1172 533.802 59.3099 533.75 60.5391C533.688 62.2578 532.875 63.1068 531.312 63.0859C530.5 63.0964 529.625 63.0599 528.688 62.9766C528.635 62.4974 528.557 62.0391 528.453 61.6016C529.411 61.7786 530.312 61.8672 531.156 61.8672C532.021 61.888 532.474 61.4141 532.516 60.4453C532.547 59.7057 532.568 58.9297 532.578 58.1172H526.609V65.0234H525.312V58.1172H519.438V56.9609ZM530.672 53.6328H526.609V56.9609H530.453L530.672 53.6328ZM530.281 50.6953L531.047 49.8203C532.151 50.5599 533.141 51.2578 534.016 51.9141L533.188 52.8984C532.375 52.2109 531.406 51.4766 530.281 50.6953ZM537.906 58.1172L538.672 57.2422C539.464 57.8932 540.185 58.5312 540.836 59.1562C541.534 57.9479 542.026 56.638 542.312 55.2266H538.797C537.979 57.1016 536.974 58.7891 535.781 60.2891C535.552 59.7578 535.344 59.3411 535.156 59.0391C536.729 56.9245 537.94 54.4505 538.789 51.6172H535.672V50.4922H544.438V51.6172H540.078C539.833 52.4766 539.56 53.3047 539.258 54.1016H543.594V55.2422C542.74 59.513 540.495 62.8099 536.859 65.1328C536.589 64.8203 536.266 64.5026 535.891 64.1797C537.672 63.0286 539.099 61.6979 540.172 60.1875C539.578 59.6042 538.823 58.9141 537.906 58.1172ZM548.547 49.9297H549.797V62.8359C549.797 64.1589 549.198 64.8255 548 64.8359C547.427 64.8464 546.578 64.8411 545.453 64.8203C545.401 64.3411 545.318 63.8724 545.203 63.4141C546.276 63.5078 547.068 63.5547 547.578 63.5547C548.224 63.5547 548.547 63.2057 548.547 62.5078V49.9297ZM546.297 61.2266H545.094V51.6641H546.297V61.2266ZM564.797 58.2734L565.656 59.3516L562.164 61.1016C563.388 62.1016 564.922 62.763 566.766 63.0859C566.411 63.5443 566.12 63.9609 565.891 64.3359C562.531 63.5339 560.122 61.4688 558.664 58.1406C558.133 58.8177 557.526 59.4609 556.844 60.0703V63.4141C558.219 62.9661 559.495 62.4974 560.672 62.0078C560.661 62.4661 560.667 62.9193 560.688 63.3672C559.438 63.7943 558.146 64.263 556.812 64.7734C556.531 64.888 556.255 65.0234 555.984 65.1797L555.25 64.0391C555.542 63.8307 555.688 63.5391 555.688 63.1641V61.0156C554.609 61.8229 553.385 62.5547 552.016 63.2109C551.786 62.8464 551.521 62.487 551.219 62.1328C553.911 61.0286 556.026 59.5495 557.562 57.6953H551.391V56.6172H558.391V55.0234H552.5V53.9453H558.391V52.4141H551.875V51.3359H558.391V49.5859H559.625V51.3359H566.172V52.4141H559.625V53.9453H565.5V55.0234H559.625V56.6172H566.609V57.6953H559.664C560.102 58.7109 560.664 59.5911 561.352 60.3359C562.398 59.8151 563.547 59.1276 564.797 58.2734Z" fill="white"/>
<path d="M606.281 55.4297H607.703V65.1016H606.281V55.4297ZM608 50.0547L607.766 50.4141C609.453 53.1953 611.797 55.1849 614.797 56.3828C614.474 56.8932 614.198 57.362 613.969 57.7891C610.906 56.1849 608.589 54.1172 607.016 51.5859C605.474 53.9922 603.135 56.1328 600 58.0078C599.771 57.6328 599.505 57.2214 599.203 56.7734C602.453 54.9714 604.87 52.7318 606.453 50.0547H608ZM615.25 63.7578C619.792 61.1328 622.193 56.5286 622.453 49.9453H623.828C623.771 51.0599 623.661 52.1224 623.5 53.1328C624.792 58.3411 627.219 61.7682 630.781 63.4141C630.344 63.8932 629.958 64.3464 629.625 64.7734C626.531 63.0234 624.326 59.9271 623.008 55.4844C621.867 59.776 619.609 62.9297 616.234 64.9453C615.953 64.5599 615.625 64.1641 615.25 63.7578ZM632.312 53.0703H638.328V49.6641H639.672V53.0703H645.75V60.1953H644.469V59.3516H639.672V65.1641H638.328V59.3516H633.594V60.1953H632.312V53.0703ZM644.469 54.2266H639.672V58.1953H644.469V54.2266ZM633.594 58.1953H638.328V54.2266H633.594V58.1953ZM651.266 52.7109H652.562V61.8672C652.562 62.8151 652.984 63.2891 653.828 63.2891H657.188C658.083 63.2891 658.589 62.9141 658.703 62.1641C658.818 61.5078 658.917 60.7214 659 59.8047C659.438 59.9818 659.885 60.1484 660.344 60.3047C660.188 61.3984 660.042 62.2161 659.906 62.7578C659.625 63.9245 658.802 64.5078 657.438 64.5078H653.516C652.016 64.5078 651.266 63.7266 651.266 62.1641V52.7109ZM660.078 53.8984C660.964 55.5755 661.885 57.4818 662.844 59.6172L661.547 60.2578C660.745 58.237 659.865 56.2995 658.906 54.4453L660.078 53.8984ZM648.969 54.3828L650.219 54.7266C649.74 56.9453 649.167 59.1016 648.5 61.1953L647.25 60.7109C647.938 58.7526 648.51 56.6432 648.969 54.3828ZM654.703 49.5703C655.693 51.2161 656.531 52.7005 657.219 54.0234C656.729 54.2734 656.312 54.4974 655.969 54.6953C655.24 53.0807 654.453 51.5599 653.609 50.1328L654.703 49.5703Z" fill="white"/>
<g clip-path="url(#clip0)">
<path d="M515.391 269.391L514.203 270.516C511.37 267.255 508.755 264.609 506.359 262.578C503.953 265.943 501.182 268.703 498.047 270.859L496.953 269.578C501.411 266.349 504.536 262.948 506.328 259.375L507.875 259.922C507.677 260.411 507.438 260.859 507.156 261.266C510.125 263.807 512.87 266.516 515.391 269.391ZM524.188 284.781C524.188 285.604 524.021 286.219 523.688 286.625C523.365 287.042 522.943 287.307 522.422 287.422C521.901 287.547 520.911 287.609 519.453 287.609C518.682 287.609 517.969 287.594 517.312 287.562L516.609 285.844C517.974 285.927 519.177 285.969 520.219 285.969C521.312 285.969 521.979 285.891 522.219 285.734C522.469 285.568 522.594 285.281 522.594 284.875V259.625H524.188V284.781ZM517.859 281.688H516.25V261.781H517.859V281.688ZM514.359 282.156C514.318 283.458 514.141 284.578 513.828 285.516C513.516 286.443 513.031 286.984 512.375 287.141C511.729 287.307 510.276 287.391 508.016 287.391C504.255 287.391 501.984 287.25 501.203 286.969C500.422 286.688 500.031 285.99 500.031 284.875V270.188H512.469C512.458 271.99 512.365 273.979 512.188 276.156C512.01 278.323 511.823 279.552 511.625 279.844C511.427 280.135 511.156 280.406 510.812 280.656C510.479 280.906 509.651 281.031 508.328 281.031C507.745 281.031 507.24 281.01 506.812 280.969L506.016 279.25C506.995 279.344 507.786 279.391 508.391 279.391C509.13 279.391 509.599 279.333 509.797 279.219C509.995 279.094 510.135 278.922 510.219 278.703C510.302 278.474 510.396 277.667 510.5 276.281C510.615 274.896 510.708 273.422 510.781 271.859H501.656V284.75C501.656 285.021 501.74 285.214 501.906 285.328C502.073 285.432 502.849 285.526 504.234 285.609C505.63 285.693 506.984 285.734 508.297 285.734C510.214 285.734 511.339 285.677 511.672 285.562C512.016 285.448 512.266 285.047 512.422 284.359C512.578 283.672 512.682 282.714 512.734 281.484L514.359 282.156ZM556.641 268.203H554.359V272.75H547.062V275.406H555V276.969H547.062V279.594H556.094V281.172H547.062V284.344H545.469V281.172H537.531V279.594H545.469V276.969H538.75V275.406H545.469V272.75H539.359V271.156H545.469V268.203H537.562V266.578H545.469V263.797H539.391V262.219H545.469V259.828H547.062V262.219H554.359V266.578H556.641V268.203ZM552.734 266.578V263.859H547.062V266.578H552.734ZM552.734 271.156V268.203H547.062V271.156H552.734ZM556.891 285.547L556.5 287.25C554.573 287.302 552.74 287.328 551 287.328C547.24 287.328 544.557 287.229 542.953 287.031C541.359 286.844 539.781 286.479 538.219 285.938C536.667 285.385 535.286 284.49 534.078 283.25C532.557 285.167 531.115 286.661 529.75 287.734L528.609 286.422C530.203 285.172 531.62 283.698 532.859 282C531.672 280.396 530.672 278.297 529.859 275.703L531.359 275.094C531.964 277.354 532.76 279.135 533.75 280.438C534.875 278.104 535.505 275.37 535.641 272.234H529.719V270.734C531.698 268.245 533.672 265.375 535.641 262.125H529.078V260.531H537.438V262.125C535.49 265.406 533.62 268.234 531.828 270.609H537.375C537.167 275.318 536.344 279.052 534.906 281.812C535.917 282.844 537.052 283.651 538.312 284.234C539.583 284.818 540.938 285.203 542.375 285.391C543.812 285.568 546.646 285.656 550.875 285.656C552.979 285.656 554.984 285.62 556.891 285.547ZM582.219 264.234H572.703V272.766H581.516V275.203H572.703V286H570.047V261.797H582.219V264.234ZM586.141 262.5C586.141 262.01 586.302 261.599 586.625 261.266C586.958 260.922 587.359 260.75 587.828 260.75C588.318 260.75 588.729 260.922 589.062 261.266C589.406 261.609 589.578 262.021 589.578 262.5C589.578 262.958 589.406 263.359 589.062 263.703C588.729 264.047 588.318 264.219 587.828 264.219C587.339 264.219 586.932 264.052 586.609 263.719C586.297 263.385 586.141 262.979 586.141 262.5ZM586.5 286V268.719H589.094V286H586.5ZM609 286H606.391V276.125C606.391 272.396 605.026 270.531 602.297 270.531C600.87 270.531 599.698 271.068 598.781 272.141C597.865 273.203 597.406 274.536 597.406 276.141V286H594.797V268.719H597.406V271.609H597.484C598.776 269.411 600.667 268.312 603.156 268.312C605.052 268.312 606.5 268.922 607.5 270.141C608.5 271.359 609 273.125 609 275.438V286ZM628.875 284.641C628.875 290.974 625.875 294.141 619.875 294.141C617.75 294.141 615.88 293.729 614.266 292.906V290.25C616.214 291.333 618.078 291.875 619.859 291.875C624.141 291.875 626.281 289.578 626.281 284.984V283.062H626.219C624.865 285.292 622.875 286.406 620.25 286.406C618.083 286.406 616.349 285.63 615.047 284.078C613.745 282.526 613.094 280.474 613.094 277.922C613.094 274.974 613.807 272.635 615.234 270.906C616.661 269.177 618.583 268.312 621 268.312C623.344 268.312 625.083 269.255 626.219 271.141H626.281V268.719H628.875V284.641ZM626.281 275.594C626.281 274.188 625.797 272.995 624.828 272.016C623.859 271.026 622.693 270.531 621.328 270.531C619.599 270.531 618.234 271.167 617.234 272.438C616.245 273.708 615.75 275.474 615.75 277.734C615.75 279.693 616.229 281.26 617.188 282.438C618.146 283.604 619.391 284.188 620.922 284.188C622.474 284.188 623.755 283.63 624.766 282.516C625.776 281.391 626.281 279.958 626.281 278.219V275.594ZM648.328 278H636.078C636.13 279.99 636.656 281.516 637.656 282.578C638.656 283.641 640.026 284.172 641.766 284.172C643.714 284.172 645.51 283.521 647.156 282.219V284.719C645.646 285.844 643.646 286.406 641.156 286.406C638.75 286.406 636.849 285.62 635.453 284.047C634.068 282.474 633.375 280.26 633.375 277.406C633.375 274.781 634.125 272.609 635.625 270.891C637.135 269.172 639.021 268.312 641.281 268.312C643.5 268.312 645.229 269.042 646.469 270.5C647.708 271.958 648.328 273.99 648.328 276.594V278ZM645.641 275.703C645.63 274.078 645.24 272.818 644.469 271.922C643.698 271.016 642.62 270.562 641.234 270.562C639.974 270.562 638.865 271.016 637.906 271.922C636.958 272.828 636.359 274.089 636.109 275.703H645.641ZM661.453 271.391C660.974 271.026 660.281 270.844 659.375 270.844C658.156 270.844 657.151 271.427 656.359 272.594C655.578 273.75 655.188 275.271 655.188 277.156V286H652.578V268.719H655.188V272.297H655.266C655.661 271.068 656.266 270.115 657.078 269.438C657.891 268.76 658.786 268.422 659.766 268.422C660.505 268.422 661.068 268.5 661.453 268.656V271.391ZM686.688 286V269.656C686.688 268.417 686.771 266.859 686.938 264.984H686.859C686.568 266.13 686.328 266.891 686.141 267.266L677.703 286H676.516L668.094 267.391C667.875 266.901 667.641 266.099 667.391 264.984H667.312C667.406 265.839 667.453 267.38 667.453 269.609V286H664.859V261.797H668.328L675.906 278.844C676.5 280.188 676.875 281.141 677.031 281.703H677.141C677.453 280.859 677.844 279.88 678.312 278.766L686.062 261.797H689.344V286H686.688ZM709.172 278H696.922C696.974 279.99 697.5 281.516 698.5 282.578C699.5 283.641 700.87 284.172 702.609 284.172C704.557 284.172 706.354 283.521 708 282.219V284.719C706.49 285.844 704.49 286.406 702 286.406C699.594 286.406 697.693 285.62 696.297 284.047C694.911 282.474 694.219 280.26 694.219 277.406C694.219 274.781 694.969 272.609 696.469 270.891C697.979 269.172 699.865 268.312 702.125 268.312C704.344 268.312 706.073 269.042 707.312 270.5C708.552 271.958 709.172 273.99 709.172 276.594V278ZM706.484 275.703C706.474 274.078 706.083 272.818 705.312 271.922C704.542 271.016 703.464 270.562 702.078 270.562C700.818 270.562 699.708 271.016 698.75 271.922C697.802 272.828 697.203 274.089 696.953 275.703H706.484ZM737.781 286H735.172V276.078C735.172 274.068 734.865 272.641 734.25 271.797C733.646 270.953 732.641 270.531 731.234 270.531C730.057 270.531 729.042 271.083 728.188 272.188C727.333 273.292 726.906 274.604 726.906 276.125V286H724.312V275.719C724.312 272.26 722.974 270.531 720.297 270.531C719.068 270.531 718.047 271.057 717.234 272.109C716.432 273.161 716.031 274.5 716.031 276.125V286H713.422V268.719H716.031V271.453H716.109C717.318 269.359 719.099 268.312 721.453 268.312C722.578 268.312 723.589 268.646 724.484 269.312C725.391 269.969 726.005 270.839 726.328 271.922C727.609 269.516 729.526 268.312 732.078 268.312C735.88 268.312 737.781 270.661 737.781 275.359V286ZM741.906 277.578C741.906 274.703 742.688 272.443 744.25 270.797C745.823 269.141 747.958 268.312 750.656 268.312C753.198 268.312 755.188 269.109 756.625 270.703C758.073 272.297 758.797 274.5 758.797 277.312C758.797 280.042 758.016 282.24 756.453 283.906C754.891 285.573 752.823 286.406 750.25 286.406C747.76 286.406 745.745 285.604 744.203 284C742.672 282.396 741.906 280.255 741.906 277.578ZM744.562 277.469C744.562 279.51 745.094 281.141 746.156 282.359C747.229 283.578 748.656 284.188 750.438 284.188C752.25 284.188 753.651 283.594 754.641 282.406C755.641 281.219 756.141 279.552 756.141 277.406C756.141 275.208 755.646 273.516 754.656 272.328C753.677 271.13 752.271 270.531 750.438 270.531C748.646 270.531 747.219 271.151 746.156 272.391C745.094 273.62 744.562 275.312 744.562 277.469ZM772.141 271.391C771.661 271.026 770.969 270.844 770.062 270.844C768.844 270.844 767.839 271.427 767.047 272.594C766.266 273.75 765.875 275.271 765.875 277.156V286H763.266V268.719H765.875V272.297H765.953C766.349 271.068 766.953 270.115 767.766 269.438C768.578 268.76 769.474 268.422 770.453 268.422C771.193 268.422 771.755 268.5 772.141 268.656V271.391ZM788.75 268.719L780.75 288.859C779.354 292.38 777.396 294.141 774.875 294.141C774.24 294.141 773.672 294.073 773.172 293.938V291.562C773.755 291.75 774.286 291.844 774.766 291.844C776.172 291.844 777.224 291 777.922 289.312L779.328 285.969L772.594 268.719H775.484L780.25 282.203C780.312 282.391 780.432 282.802 780.609 283.438H780.703C780.745 283.219 780.854 282.818 781.031 282.234L786.047 268.719H788.75ZM800.578 277.391H791.375V275.312H800.578V277.391ZM834.438 261.797L827.578 286H824.438L819.391 268.172C819.172 267.391 819.042 266.573 819 265.719H818.938C818.875 266.552 818.729 267.359 818.5 268.141L813.422 286H810.344L803.203 261.797H806.141L811.391 280.516C811.62 281.339 811.755 282.146 811.797 282.938H811.891C811.943 282.354 812.115 281.547 812.406 280.516L817.812 261.797H820.328L825.547 280.656C825.714 281.24 825.849 281.99 825.953 282.906H826.016C826.057 282.26 826.214 281.49 826.484 280.594L831.516 261.797H834.438ZM851.484 278H839.234C839.286 279.99 839.812 281.516 840.812 282.578C841.812 283.641 843.182 284.172 844.922 284.172C846.87 284.172 848.667 283.521 850.312 282.219V284.719C848.802 285.844 846.802 286.406 844.312 286.406C841.906 286.406 840.005 285.62 838.609 284.047C837.224 282.474 836.531 280.26 836.531 277.406C836.531 274.781 837.281 272.609 838.781 270.891C840.292 269.172 842.177 268.312 844.438 268.312C846.656 268.312 848.385 269.042 849.625 270.5C850.865 271.958 851.484 273.99 851.484 276.594V278ZM848.797 275.703C848.786 274.078 848.396 272.818 847.625 271.922C846.854 271.016 845.776 270.562 844.391 270.562C843.13 270.562 842.021 271.016 841.062 271.922C840.115 272.828 839.516 274.089 839.266 275.703H848.797ZM858.344 283.469V286H855.734V260.422H858.344V271.781H858.422C859.786 269.469 861.781 268.312 864.406 268.312C866.604 268.312 868.339 269.089 869.609 270.641C870.88 272.193 871.516 274.266 871.516 276.859C871.516 279.734 870.802 282.047 869.375 283.797C867.958 285.536 866.036 286.406 863.609 286.406C861.328 286.406 859.599 285.427 858.422 283.469H858.344ZM858.344 278.984C858.344 280.453 858.828 281.688 859.797 282.688C860.776 283.688 861.969 284.188 863.375 284.188C865.073 284.188 866.406 283.531 867.375 282.219C868.354 280.906 868.844 279.094 868.844 276.781C868.844 274.854 868.391 273.333 867.484 272.219C866.578 271.094 865.354 270.531 863.812 270.531C862.219 270.531 860.906 271.099 859.875 272.234C858.854 273.359 858.344 274.786 858.344 276.516V278.984ZM911.328 286.156L910.188 287.469C905.521 283.979 902.458 279.286 901 273.391H899.203V285.109C899.724 284.932 901.26 284.26 903.812 283.094L904.266 284.688C901.516 286.031 899.391 286.948 897.891 287.438L897.281 286C897.438 285.625 897.516 285.307 897.516 285.047V273.391H894.984V271.703H897.516V259.594H899.203V267.703C902.714 266.016 905.688 263.74 908.125 260.875L909.438 261.938C906.927 264.99 903.516 267.516 899.203 269.516V271.703H911.172V273.391H902.75C904.302 279.078 907.161 283.333 911.328 286.156ZM893.891 278.734H892.234V262H886.078V278.734H884.453V260.344H893.891V278.734ZM890.016 275.891C890.016 281.078 888.052 284.969 884.125 287.562L883.141 286.156C884.932 284.938 886.25 283.578 887.094 282.078C887.938 280.578 888.359 278.516 888.359 275.891V263.984H890.016V275.891ZM894.891 285.047L893.406 286.062C892.615 284.5 891.495 282.911 890.047 281.297L891.5 280.266C893.104 282.151 894.234 283.745 894.891 285.047ZM940.969 272.844H920C919.958 279.5 918.693 284.417 916.203 287.594L914.922 286.641C917.203 283.401 918.344 278.677 918.344 272.469V263.344H929C928.427 262.188 927.797 261.068 927.109 259.984L928.766 259.469C929.401 260.458 930.099 261.75 930.859 263.344H940.969V272.844ZM939.297 271.156V265.016H920V271.156H939.297Z" fill="#212529"/>
</g>
<path d="M298.273 327.664C298.273 328.096 298.117 328.398 297.805 328.57C297.497 328.742 296.802 328.828 295.719 328.828C295.474 328.828 295.237 328.823 295.008 328.812L294.75 327.938C295.146 327.969 295.531 327.984 295.906 327.984C296.667 327.984 297.109 327.953 297.234 327.891C297.359 327.828 297.422 327.727 297.422 327.586V323.727H292.898V328.414H292.031V323.727H287.469C287.214 325.919 286.664 327.599 285.82 328.766L285.07 328.242C286.148 326.648 286.688 324.727 286.688 322.477V315.133H298.273V327.664ZM297.422 318.914V316H292.898V318.914H297.422ZM292.031 318.914V316H287.555V318.914H292.031ZM297.422 322.898V319.789H292.898V322.898H297.422ZM292.031 322.898V319.789H287.555V322.898H292.031ZM313.906 321.422H303.422C303.401 324.75 302.768 327.208 301.523 328.797L300.883 328.32C302.023 326.701 302.594 324.339 302.594 321.234V316.672H307.922C307.635 316.094 307.32 315.534 306.977 314.992L307.805 314.734C308.122 315.229 308.471 315.875 308.852 316.672H313.906V321.422ZM313.07 320.578V317.508H303.422V320.578H313.07ZM329.984 328.812H329.133V327.773H321.57V328.828H320.688V323.281C319.448 323.734 318.43 324.076 317.633 324.305L317.148 323.523C319.654 322.846 321.789 322.029 323.555 321.07C322.914 320.148 322.029 319.206 320.898 318.242C320.091 318.768 319.19 319.284 318.195 319.789L317.508 319.102C319.919 318.065 321.94 316.604 323.57 314.719L324.398 315.102C324.169 315.383 323.878 315.693 323.523 316.031H329.742V316.734C328.008 319.068 325.667 320.966 322.719 322.43H329.984V328.812ZM328.492 316.898H322.656C322.297 317.206 321.94 317.492 321.586 317.758C322.628 318.685 323.534 319.635 324.305 320.609C325.992 319.536 327.388 318.299 328.492 316.898ZM329.133 326.945V323.281H321.57V326.945H329.133ZM346.945 325.469C346.883 325.958 346.737 326.568 346.508 327.297C346.279 328.021 346.055 328.453 345.836 328.594C345.617 328.74 345.404 328.812 345.195 328.812C344.716 328.812 344.193 328.495 343.625 327.859C343.057 327.219 342.654 326.594 342.414 325.984C341.456 327.005 340.422 327.891 339.312 328.641L338.734 328.016C340.135 327.062 341.255 326.076 342.094 325.055C341.516 322.487 341.219 320.049 341.203 317.742H333.188V316.961H341.148C341.117 316.414 341.102 315.711 341.102 314.852H341.922C341.922 315.82 341.938 316.523 341.969 316.961H346.766V317.742H342.031C342.13 320.164 342.375 322.297 342.766 324.141C343.599 322.943 344.357 321.339 345.039 319.328L345.805 319.602C345.138 321.711 344.221 323.583 343.055 325.219C343.305 326 343.661 326.656 344.125 327.188C344.589 327.719 344.932 327.984 345.156 327.984C345.245 327.984 345.331 327.94 345.414 327.852C345.497 327.763 345.622 327.438 345.789 326.875C345.961 326.312 346.102 325.669 346.211 324.945L346.945 325.469ZM345.805 316.195L345.148 316.719C344.638 316.193 344.154 315.799 343.695 315.539L344.273 314.961C344.763 315.253 345.273 315.664 345.805 316.195ZM339.508 324.016H334.156V319.648H339.508V324.016ZM338.672 323.203V320.461H335.008V323.203H338.672ZM340.32 325.875C338.164 326.438 335.797 326.948 333.219 327.406L333.023 326.594C335.56 326.161 337.966 325.648 340.242 325.055L340.32 325.875ZM356.719 328.336H355.938V327.508H350.367V328.336H349.586V317.312H352.75V314.75H353.57V317.312H356.719V328.336ZM355.938 321.742V318.094H353.57V321.742H355.938ZM352.75 321.742V318.094H350.367V321.742H352.75ZM355.938 326.719V322.531H353.57V326.719H355.938ZM352.75 326.719V322.531H350.367V326.719H352.75ZM360.852 320.477C362.169 321.581 362.828 322.977 362.828 324.664C362.828 325.451 362.643 326.039 362.273 326.43C361.909 326.815 361.266 327.008 360.344 327.008C360.177 327.008 359.977 327.003 359.742 326.992L359.438 326.156C359.88 326.188 360.271 326.203 360.609 326.203C361.146 326.203 361.523 326.104 361.742 325.906C361.966 325.703 362.078 325.276 362.078 324.625C362.078 323.026 361.359 321.693 359.922 320.625C360.646 319.13 361.279 317.573 361.82 315.953H358.852V328.781H358.031V315.172H362.656V315.953C362.172 317.349 361.57 318.857 360.852 320.477ZM378.75 316.961H373.555C372.919 317.727 372.336 318.339 371.805 318.797L371.133 318.32C372.56 317.023 373.51 315.823 373.984 314.719L374.766 315.008C374.474 315.576 374.255 315.977 374.109 316.211H378.75V316.961ZM371.727 316.961H367.188C366.76 317.529 366.247 318.13 365.648 318.766L364.977 318.289C366.164 317.086 366.99 315.901 367.453 314.734L368.227 314.992C368.091 315.414 367.893 315.82 367.633 316.211H371.727V316.961ZM376.562 318.594L375.844 318.977C375.594 318.451 375.284 317.971 374.914 317.539L375.633 317.188C375.909 317.542 376.219 318.01 376.562 318.594ZM370.242 318.672L369.469 319.023C369.245 318.534 368.943 318.06 368.562 317.602L369.234 317.234C369.615 317.594 369.951 318.073 370.242 318.672ZM371.805 325.133L371.297 325.789C370.599 324.779 369.841 323.872 369.023 323.07V328.812H368.227V323.234C367.487 324.703 366.622 325.961 365.633 327.008L365.07 326.398C366.31 325.112 367.352 323.487 368.195 321.523H365.328V320.766H368.227V319.039H369.023V320.766H371.664V321.523H369.023V322.094C370.206 323.151 371.133 324.164 371.805 325.133ZM378.352 328.797H377.523V327.789H373.234V328.797H372.398V319.539H378.352V328.797ZM377.523 321.953V320.32H373.234V321.953H377.523ZM377.523 324.477V322.734H373.234V324.477H377.523ZM377.523 327.039V325.25H373.234V327.039H377.523ZM395.055 325.758C395.003 326.826 394.844 327.549 394.578 327.93C394.312 328.31 394.052 328.518 393.797 328.555C393.547 328.596 392.701 328.617 391.258 328.617C389.299 328.617 388.141 328.602 387.781 328.57C387.422 328.539 387.156 328.406 386.984 328.172C386.818 327.938 386.734 327.661 386.734 327.344V320.828L385.312 321.312L385.188 320.492L386.734 319.969V316.641H387.523V319.711L390.047 318.852V314.867H390.867V318.562L394.352 317.359C394.326 319.464 394.044 321.714 393.508 324.109L392.703 323.875C393.151 321.943 393.419 320.148 393.508 318.492L390.867 319.391V325.633H390.047V319.68L387.523 320.562V327.391C387.523 327.438 387.557 327.5 387.625 327.578C387.693 327.651 387.753 327.701 387.805 327.727C387.857 327.747 388.174 327.768 388.758 327.789C389.341 327.805 389.932 327.812 390.531 327.812C392.344 327.812 393.393 327.763 393.68 327.664C393.966 327.565 394.159 326.846 394.258 325.508L395.055 325.758ZM385.859 325.57C384.224 326.424 382.714 327.091 381.328 327.57L381.102 326.766C381.753 326.552 382.419 326.286 383.102 325.969V319.648H381.266V318.828H383.102V315.023H383.938V318.828H385.68V319.648H383.938V325.617C384.828 325.174 385.424 324.87 385.727 324.703L385.859 325.57ZM402.656 320.031H400.43V325.359C401.107 325.083 401.828 324.737 402.594 324.32V325.266C401.224 326.042 399.443 326.789 397.25 327.508L397.023 326.656C397.982 326.375 398.841 326.065 399.602 325.727V320.031H397.438V319.203H399.602V314.812H400.43V319.203H402.656V320.031ZM411.102 328.414H401.391V327.602H403.523V316.992H404.32V327.602H406.898V314.828H407.711V319.805H410.703V320.641H407.711V327.602H411.102V328.414Z" fill="#212529"/>
<rect x="284.5" y="342.5" width="871" height="35" rx="3.5" fill="white"/>
<path d="M300.336 355.484L299.602 355.938C299.076 355.047 298.409 354.161 297.602 353.281L298.32 352.828C299.065 353.641 299.737 354.526 300.336 355.484ZM310.93 358.562H300.93V357.844H305.602V356.625H301.789V355.938H305.602V354.781H301.359V354.078H305.602V352.867H306.43V354.078H310.609V354.781H306.43V355.938H310.094V356.625H306.43V357.844H310.93V358.562ZM301.742 363.773C301.102 364.471 300.185 365.266 298.992 366.156L298.531 365.438C298.656 365.323 298.719 365.174 298.719 364.992V358.094H297.055V357.281H299.555V364.656C300.201 364.188 300.792 363.669 301.328 363.102L301.742 363.773ZM309.695 365.602C309.695 366.086 309.557 366.414 309.281 366.586C309.005 366.758 308.503 366.844 307.773 366.844C307.487 366.844 307.242 366.833 307.039 366.812L306.766 366.016C306.995 366.031 307.326 366.039 307.758 366.039C308.263 366.039 308.576 366.008 308.695 365.945C308.82 365.878 308.883 365.768 308.883 365.617V364.258H303.133V366.812H302.289V359.633H309.695V365.602ZM308.883 361.523V360.383H303.133V361.523H308.883ZM308.883 363.539V362.273H303.133V363.539H308.883ZM327.117 356.562L326.656 357.219C324.844 356.182 323.5 355.094 322.625 353.953C321.677 355.021 320.38 356.099 318.734 357.188L318.156 356.562C320.177 355.276 321.646 354.005 322.562 352.75L323.297 353.102C323.286 353.154 323.237 353.234 323.148 353.344C324.06 354.516 325.383 355.589 327.117 356.562ZM318.398 355.438H315.484C315.094 356.88 314.685 358.224 314.258 359.469H315.695V356.562H316.461V359.469H318.047V360.227H316.461V362.688C316.852 362.589 317.417 362.424 318.156 362.195L318.258 362.977C317.799 363.138 317.201 363.307 316.461 363.484V366.852H315.695V363.695C314.841 363.888 314.026 364.049 313.25 364.18L313.023 363.422C313.674 363.318 314.565 363.138 315.695 362.883V360.227H313.391V359.469C313.844 358.26 314.271 356.917 314.672 355.438H313.234V354.672H314.852C314.982 354.208 315.135 353.589 315.312 352.812L316.062 352.977C315.974 353.445 315.846 354.01 315.68 354.672H318.398V355.438ZM324.797 357.148H320.445V356.398H324.797V357.148ZM326.461 365.68C326.461 366.065 326.359 366.352 326.156 366.539C325.958 366.732 325.523 366.836 324.852 366.852H323.984L323.695 366.031C324.435 366.052 324.951 366.044 325.242 366.008C325.534 365.971 325.68 365.846 325.68 365.633V357.906H326.461V365.68ZM322.445 365.695C322.445 366.096 322.349 366.388 322.156 366.57C321.969 366.753 321.568 366.844 320.953 366.844C320.755 366.844 320.586 366.844 320.445 366.844L320.18 366.031C320.357 366.047 320.557 366.055 320.781 366.055C321.198 366.055 321.451 366.034 321.539 365.992C321.633 365.945 321.68 365.857 321.68 365.727V363.711H319.664V366.852H318.898V358.195H322.445V365.695ZM321.68 360.516V358.961H319.664V360.516H321.68ZM321.68 362.961V361.297H319.664V362.961H321.68ZM324.32 364.398H323.539V358.672H324.32V364.398ZM343.055 366.141L342.516 366.883C339.464 364.43 337.404 361.266 336.336 357.391C334.966 361.417 332.747 364.516 329.68 366.688L329.039 366.031C330.086 365.318 331.018 364.505 331.836 363.594C332.659 362.682 333.359 361.716 333.938 360.695C334.516 359.674 334.997 358.578 335.383 357.406C335.773 356.229 335.969 355.521 335.969 355.281L335.875 354.047H334.383V353.188H336.719C336.755 358.432 338.867 362.75 343.055 366.141ZM358.273 365.664C358.273 366.096 358.117 366.398 357.805 366.57C357.497 366.742 356.802 366.828 355.719 366.828C355.474 366.828 355.237 366.823 355.008 366.812L354.75 365.938C355.146 365.969 355.531 365.984 355.906 365.984C356.667 365.984 357.109 365.953 357.234 365.891C357.359 365.828 357.422 365.727 357.422 365.586V361.727H352.898V366.414H352.031V361.727H347.469C347.214 363.919 346.664 365.599 345.82 366.766L345.07 366.242C346.148 364.648 346.688 362.727 346.688 360.477V353.133H358.273V365.664ZM357.422 356.914V354H352.898V356.914H357.422ZM352.031 356.914V354H347.555V356.914H352.031ZM357.422 360.898V357.789H352.898V360.898H357.422ZM352.031 360.898V357.789H347.555V360.898H352.031ZM373.906 359.422H363.422C363.401 362.75 362.768 365.208 361.523 366.797L360.883 366.32C362.023 364.701 362.594 362.339 362.594 359.234V354.672H367.922C367.635 354.094 367.32 353.534 366.977 352.992L367.805 352.734C368.122 353.229 368.471 353.875 368.852 354.672H373.906V359.422ZM373.07 358.578V355.508H363.422V358.578H373.07ZM389.984 366.812H389.133V365.773H381.57V366.828H380.688V361.281C379.448 361.734 378.43 362.076 377.633 362.305L377.148 361.523C379.654 360.846 381.789 360.029 383.555 359.07C382.914 358.148 382.029 357.206 380.898 356.242C380.091 356.768 379.19 357.284 378.195 357.789L377.508 357.102C379.919 356.065 381.94 354.604 383.57 352.719L384.398 353.102C384.169 353.383 383.878 353.693 383.523 354.031H389.742V354.734C388.008 357.068 385.667 358.966 382.719 360.43H389.984V366.812ZM388.492 354.898H382.656C382.297 355.206 381.94 355.492 381.586 355.758C382.628 356.685 383.534 357.635 384.305 358.609C385.992 357.536 387.388 356.299 388.492 354.898ZM389.133 364.945V361.281H381.57V364.945H389.133ZM406.945 363.469C406.883 363.958 406.737 364.568 406.508 365.297C406.279 366.021 406.055 366.453 405.836 366.594C405.617 366.74 405.404 366.812 405.195 366.812C404.716 366.812 404.193 366.495 403.625 365.859C403.057 365.219 402.654 364.594 402.414 363.984C401.456 365.005 400.422 365.891 399.312 366.641L398.734 366.016C400.135 365.062 401.255 364.076 402.094 363.055C401.516 360.487 401.219 358.049 401.203 355.742H393.188V354.961H401.148C401.117 354.414 401.102 353.711 401.102 352.852H401.922C401.922 353.82 401.938 354.523 401.969 354.961H406.766V355.742H402.031C402.13 358.164 402.375 360.297 402.766 362.141C403.599 360.943 404.357 359.339 405.039 357.328L405.805 357.602C405.138 359.711 404.221 361.583 403.055 363.219C403.305 364 403.661 364.656 404.125 365.188C404.589 365.719 404.932 365.984 405.156 365.984C405.245 365.984 405.331 365.94 405.414 365.852C405.497 365.763 405.622 365.438 405.789 364.875C405.961 364.312 406.102 363.669 406.211 362.945L406.945 363.469ZM405.805 354.195L405.148 354.719C404.638 354.193 404.154 353.799 403.695 353.539L404.273 352.961C404.763 353.253 405.273 353.664 405.805 354.195ZM399.508 362.016H394.156V357.648H399.508V362.016ZM398.672 361.203V358.461H395.008V361.203H398.672ZM400.32 363.875C398.164 364.438 395.797 364.948 393.219 365.406L393.023 364.594C395.56 364.161 397.966 363.648 400.242 363.055L400.32 363.875ZM416.719 366.336H415.938V365.508H410.367V366.336H409.586V355.312H412.75V352.75H413.57V355.312H416.719V366.336ZM415.938 359.742V356.094H413.57V359.742H415.938ZM412.75 359.742V356.094H410.367V359.742H412.75ZM415.938 364.719V360.531H413.57V364.719H415.938ZM412.75 364.719V360.531H410.367V364.719H412.75ZM420.852 358.477C422.169 359.581 422.828 360.977 422.828 362.664C422.828 363.451 422.643 364.039 422.273 364.43C421.909 364.815 421.266 365.008 420.344 365.008C420.177 365.008 419.977 365.003 419.742 364.992L419.438 364.156C419.88 364.188 420.271 364.203 420.609 364.203C421.146 364.203 421.523 364.104 421.742 363.906C421.966 363.703 422.078 363.276 422.078 362.625C422.078 361.026 421.359 359.693 419.922 358.625C420.646 357.13 421.279 355.573 421.82 353.953H418.852V366.781H418.031V353.172H422.656V353.953C422.172 355.349 421.57 356.857 420.852 358.477ZM438.75 354.961H433.555C432.919 355.727 432.336 356.339 431.805 356.797L431.133 356.32C432.56 355.023 433.51 353.823 433.984 352.719L434.766 353.008C434.474 353.576 434.255 353.977 434.109 354.211H438.75V354.961ZM431.727 354.961H427.188C426.76 355.529 426.247 356.13 425.648 356.766L424.977 356.289C426.164 355.086 426.99 353.901 427.453 352.734L428.227 352.992C428.091 353.414 427.893 353.82 427.633 354.211H431.727V354.961ZM436.562 356.594L435.844 356.977C435.594 356.451 435.284 355.971 434.914 355.539L435.633 355.188C435.909 355.542 436.219 356.01 436.562 356.594ZM430.242 356.672L429.469 357.023C429.245 356.534 428.943 356.06 428.562 355.602L429.234 355.234C429.615 355.594 429.951 356.073 430.242 356.672ZM431.805 363.133L431.297 363.789C430.599 362.779 429.841 361.872 429.023 361.07V366.812H428.227V361.234C427.487 362.703 426.622 363.961 425.633 365.008L425.07 364.398C426.31 363.112 427.352 361.487 428.195 359.523H425.328V358.766H428.227V357.039H429.023V358.766H431.664V359.523H429.023V360.094C430.206 361.151 431.133 362.164 431.805 363.133ZM438.352 366.797H437.523V365.789H433.234V366.797H432.398V357.539H438.352V366.797ZM437.523 359.953V358.32H433.234V359.953H437.523ZM437.523 362.477V360.734H433.234V362.477H437.523ZM437.523 365.039V363.25H433.234V365.039H437.523Z" fill="#6C757D"/>
<rect x="284.5" y="342.5" width="871" height="35" rx="3.5" stroke="#CED4DA"/>
<path d="M298.383 403.25H297.57V400.852H286.562V403.25H285.742V400.047H291.742C291.654 399.708 291.495 399.336 291.266 398.93L292.016 398.672C292.234 399.083 292.427 399.542 292.594 400.047H298.383V403.25ZM293.25 403.312L292.594 403.742C292.12 402.997 291.612 402.346 291.07 401.789L291.773 401.359C292.268 401.854 292.76 402.505 293.25 403.312ZM295.969 402.516C294.479 404.25 292.581 405.701 290.273 406.867C290.273 407.003 290.349 407.099 290.5 407.156C290.651 407.208 291.273 407.234 292.367 407.234C293.503 407.234 294.229 407.19 294.547 407.102C294.865 407.008 295.06 406.396 295.133 405.266L295.906 405.664C295.875 406.336 295.76 406.854 295.562 407.219C295.365 407.578 295.122 407.802 294.836 407.891C294.549 407.974 293.958 408.016 293.062 408.016C291.51 408.016 290.57 407.987 290.242 407.93C289.914 407.867 289.661 407.646 289.484 407.266C288.12 407.88 286.794 408.419 285.508 408.883L285.117 408.211C286.732 407.648 288.161 407.065 289.406 406.461V401.922H290.242V406.031C292.305 404.984 294.016 403.646 295.375 402.016L295.969 402.516ZM288.852 403.133C287.841 404.383 286.789 405.424 285.695 406.258L285.117 405.664C286.096 404.956 287.117 403.958 288.18 402.672L288.852 403.133ZM298.945 406.547L298.336 407.102C297.701 406.164 296.852 405.182 295.789 404.156L296.398 403.648C297.539 404.763 298.388 405.729 298.945 406.547ZM297.328 412.828H296.492V412.414H286.719V409.133H287.555V411.648H291.508V408.445H292.336V411.648H296.492V409.133H297.328V412.828ZM314.766 405.055C314.703 406.742 314.615 408.247 314.5 409.57C314.391 410.893 314.271 411.703 314.141 412C314.016 412.292 313.828 412.503 313.578 412.633C313.328 412.768 312.664 412.836 311.586 412.836C311.31 412.836 311.052 412.828 310.812 412.812L310.461 411.984C312.148 412.01 313.034 411.987 313.117 411.914C313.206 411.836 313.289 411.76 313.367 411.688C313.451 411.609 313.547 410.904 313.656 409.57C313.766 408.232 313.839 406.995 313.875 405.859H307.148L307.789 400.672L308.625 400.828L308.109 405.055H312.258L312.883 400.031H307.008V399.234H313.789L313.117 405.055H314.766ZM306.383 400.398H304.289C303.987 401.82 303.596 403.138 303.117 404.352H305.953V411.953H305.148V411.055H303.297V412.242H302.477V405.695C302.102 406.383 301.794 406.88 301.555 407.188L301.023 406.516C302.227 404.688 303.026 402.648 303.422 400.398H301.328V399.617H306.383V400.398ZM305.148 410.273V405.117H303.297V410.273H305.148ZM312.828 409.023H306.578V408.242H312.828V409.023Z" fill="#212529"/>
<rect x="284.5" y="426.5" width="871" height="35" rx="3.5" fill="white"/>
<path d="M300.336 439.484L299.602 439.938C299.076 439.047 298.409 438.161 297.602 437.281L298.32 436.828C299.065 437.641 299.737 438.526 300.336 439.484ZM310.93 442.562H300.93V441.844H305.602V440.625H301.789V439.938H305.602V438.781H301.359V438.078H305.602V436.867H306.43V438.078H310.609V438.781H306.43V439.938H310.094V440.625H306.43V441.844H310.93V442.562ZM301.742 447.773C301.102 448.471 300.185 449.266 298.992 450.156L298.531 449.438C298.656 449.323 298.719 449.174 298.719 448.992V442.094H297.055V441.281H299.555V448.656C300.201 448.188 300.792 447.669 301.328 447.102L301.742 447.773ZM309.695 449.602C309.695 450.086 309.557 450.414 309.281 450.586C309.005 450.758 308.503 450.844 307.773 450.844C307.487 450.844 307.242 450.833 307.039 450.812L306.766 450.016C306.995 450.031 307.326 450.039 307.758 450.039C308.263 450.039 308.576 450.008 308.695 449.945C308.82 449.878 308.883 449.768 308.883 449.617V448.258H303.133V450.812H302.289V443.633H309.695V449.602ZM308.883 445.523V444.383H303.133V445.523H308.883ZM308.883 447.539V446.273H303.133V447.539H308.883ZM327.117 440.562L326.656 441.219C324.844 440.182 323.5 439.094 322.625 437.953C321.677 439.021 320.38 440.099 318.734 441.188L318.156 440.562C320.177 439.276 321.646 438.005 322.562 436.75L323.297 437.102C323.286 437.154 323.237 437.234 323.148 437.344C324.06 438.516 325.383 439.589 327.117 440.562ZM318.398 439.438H315.484C315.094 440.88 314.685 442.224 314.258 443.469H315.695V440.562H316.461V443.469H318.047V444.227H316.461V446.688C316.852 446.589 317.417 446.424 318.156 446.195L318.258 446.977C317.799 447.138 317.201 447.307 316.461 447.484V450.852H315.695V447.695C314.841 447.888 314.026 448.049 313.25 448.18L313.023 447.422C313.674 447.318 314.565 447.138 315.695 446.883V444.227H313.391V443.469C313.844 442.26 314.271 440.917 314.672 439.438H313.234V438.672H314.852C314.982 438.208 315.135 437.589 315.312 436.812L316.062 436.977C315.974 437.445 315.846 438.01 315.68 438.672H318.398V439.438ZM324.797 441.148H320.445V440.398H324.797V441.148ZM326.461 449.68C326.461 450.065 326.359 450.352 326.156 450.539C325.958 450.732 325.523 450.836 324.852 450.852H323.984L323.695 450.031C324.435 450.052 324.951 450.044 325.242 450.008C325.534 449.971 325.68 449.846 325.68 449.633V441.906H326.461V449.68ZM322.445 449.695C322.445 450.096 322.349 450.388 322.156 450.57C321.969 450.753 321.568 450.844 320.953 450.844C320.755 450.844 320.586 450.844 320.445 450.844L320.18 450.031C320.357 450.047 320.557 450.055 320.781 450.055C321.198 450.055 321.451 450.034 321.539 449.992C321.633 449.945 321.68 449.857 321.68 449.727V447.711H319.664V450.852H318.898V442.195H322.445V449.695ZM321.68 444.516V442.961H319.664V444.516H321.68ZM321.68 446.961V445.297H319.664V446.961H321.68ZM324.32 448.398H323.539V442.672H324.32V448.398ZM343.055 450.141L342.516 450.883C339.464 448.43 337.404 445.266 336.336 441.391C334.966 445.417 332.747 448.516 329.68 450.688L329.039 450.031C330.086 449.318 331.018 448.505 331.836 447.594C332.659 446.682 333.359 445.716 333.938 444.695C334.516 443.674 334.997 442.578 335.383 441.406C335.773 440.229 335.969 439.521 335.969 439.281L335.875 438.047H334.383V437.188H336.719C336.755 442.432 338.867 446.75 343.055 450.141ZM358.383 441.25H357.57V438.852H346.562V441.25H345.742V438.047H351.742C351.654 437.708 351.495 437.336 351.266 436.93L352.016 436.672C352.234 437.083 352.427 437.542 352.594 438.047H358.383V441.25ZM353.25 441.312L352.594 441.742C352.12 440.997 351.612 440.346 351.07 439.789L351.773 439.359C352.268 439.854 352.76 440.505 353.25 441.312ZM355.969 440.516C354.479 442.25 352.581 443.701 350.273 444.867C350.273 445.003 350.349 445.099 350.5 445.156C350.651 445.208 351.273 445.234 352.367 445.234C353.503 445.234 354.229 445.19 354.547 445.102C354.865 445.008 355.06 444.396 355.133 443.266L355.906 443.664C355.875 444.336 355.76 444.854 355.562 445.219C355.365 445.578 355.122 445.802 354.836 445.891C354.549 445.974 353.958 446.016 353.062 446.016C351.51 446.016 350.57 445.987 350.242 445.93C349.914 445.867 349.661 445.646 349.484 445.266C348.12 445.88 346.794 446.419 345.508 446.883L345.117 446.211C346.732 445.648 348.161 445.065 349.406 444.461V439.922H350.242V444.031C352.305 442.984 354.016 441.646 355.375 440.016L355.969 440.516ZM348.852 441.133C347.841 442.383 346.789 443.424 345.695 444.258L345.117 443.664C346.096 442.956 347.117 441.958 348.18 440.672L348.852 441.133ZM358.945 444.547L358.336 445.102C357.701 444.164 356.852 443.182 355.789 442.156L356.398 441.648C357.539 442.763 358.388 443.729 358.945 444.547ZM357.328 450.828H356.492V450.414H346.719V447.133H347.555V449.648H351.508V446.445H352.336V449.648H356.492V447.133H357.328V450.828ZM374.766 443.055C374.703 444.742 374.615 446.247 374.5 447.57C374.391 448.893 374.271 449.703 374.141 450C374.016 450.292 373.828 450.503 373.578 450.633C373.328 450.768 372.664 450.836 371.586 450.836C371.31 450.836 371.052 450.828 370.812 450.812L370.461 449.984C372.148 450.01 373.034 449.987 373.117 449.914C373.206 449.836 373.289 449.76 373.367 449.688C373.451 449.609 373.547 448.904 373.656 447.57C373.766 446.232 373.839 444.995 373.875 443.859H367.148L367.789 438.672L368.625 438.828L368.109 443.055H372.258L372.883 438.031H367.008V437.234H373.789L373.117 443.055H374.766ZM366.383 438.398H364.289C363.987 439.82 363.596 441.138 363.117 442.352H365.953V449.953H365.148V449.055H363.297V450.242H362.477V443.695C362.102 444.383 361.794 444.88 361.555 445.188L361.023 444.516C362.227 442.688 363.026 440.648 363.422 438.398H361.328V437.617H366.383V438.398ZM365.148 448.273V443.117H363.297V448.273H365.148ZM372.828 447.023H366.578V446.242H372.828V447.023Z" fill="#6C757D"/>
<rect x="284.5" y="426.5" width="871" height="35" rx="3.5" stroke="#CED4DA"/>
<path d="M298.641 495.68C298.641 496.128 298.518 496.438 298.273 496.609C298.034 496.781 297.266 496.844 295.969 496.797L295.711 495.938C296.112 495.969 296.508 495.984 296.898 495.984C297.341 495.984 297.609 495.958 297.703 495.906C297.797 495.854 297.844 495.768 297.844 495.648V493.172H292.461C292.331 494.693 291.922 495.94 291.234 496.914L290.516 496.43C290.87 495.971 291.159 495.341 291.383 494.539C291.612 493.737 291.727 492.432 291.727 490.625V486.641H295.086C295.622 486.104 296.141 485.484 296.641 484.781H293.219C292.448 485.661 291.599 486.469 290.672 487.203L290.109 486.594C291.755 485.323 292.904 484.042 293.555 482.75L294.336 483.07L293.805 483.969H297.742V484.781C297.294 485.417 296.799 486.036 296.258 486.641H298.641V495.68ZM297.844 489.484V487.438H295.586V489.484H297.844ZM294.719 489.484V487.438H292.531V489.484H294.719ZM297.844 492.352V490.273H295.586V492.352H297.844ZM294.734 492.352V490.273H292.531V491.266L292.516 492.352H294.734ZM290.734 484.383H288.352C288.112 485.758 287.734 487.096 287.219 488.398H290.227V495.602H289.406V494.797H287.328V496.109H286.492V489.969C286.294 490.328 286.003 490.74 285.617 491.203L285.008 490.609C286.143 489.271 286.964 487.195 287.469 484.383H285.25V483.602H290.734V484.383ZM289.406 493.984V489.188H287.328V493.984H289.406ZM315.203 496.258L314.609 496.914C312.432 494.768 310.948 492.266 310.156 489.406C309.62 492.286 308.07 494.799 305.508 496.945L304.898 496.305C306.289 495.117 307.328 493.922 308.016 492.719C308.708 491.516 309.169 490.268 309.398 488.977C309.633 487.68 309.763 485.63 309.789 482.828H310.609C310.62 483.609 310.607 484.406 310.57 485.219C310.539 486.026 310.523 486.471 310.523 486.555C310.523 487.966 310.932 489.581 311.75 491.398C312.568 493.216 313.719 494.836 315.203 496.258ZM304.961 485.57L304.305 486.078C303.576 485.031 302.812 484.13 302.016 483.375L302.672 482.852C303.589 483.799 304.352 484.706 304.961 485.57ZM306.625 493.117C305.479 494.19 304.44 495.049 303.508 495.695L303.055 494.961C303.185 494.82 303.25 494.643 303.25 494.43V488.094H301.086V487.266H304.094V494.195C304.599 493.831 305.326 493.216 306.273 492.352L306.625 493.117ZM330.383 487.25H329.57V484.852H318.562V487.25H317.742V484.047H323.742C323.654 483.708 323.495 483.336 323.266 482.93L324.016 482.672C324.234 483.083 324.427 483.542 324.594 484.047H330.383V487.25ZM325.25 487.312L324.594 487.742C324.12 486.997 323.612 486.346 323.07 485.789L323.773 485.359C324.268 485.854 324.76 486.505 325.25 487.312ZM327.969 486.516C326.479 488.25 324.581 489.701 322.273 490.867C322.273 491.003 322.349 491.099 322.5 491.156C322.651 491.208 323.273 491.234 324.367 491.234C325.503 491.234 326.229 491.19 326.547 491.102C326.865 491.008 327.06 490.396 327.133 489.266L327.906 489.664C327.875 490.336 327.76 490.854 327.562 491.219C327.365 491.578 327.122 491.802 326.836 491.891C326.549 491.974 325.958 492.016 325.062 492.016C323.51 492.016 322.57 491.987 322.242 491.93C321.914 491.867 321.661 491.646 321.484 491.266C320.12 491.88 318.794 492.419 317.508 492.883L317.117 492.211C318.732 491.648 320.161 491.065 321.406 490.461V485.922H322.242V490.031C324.305 488.984 326.016 487.646 327.375 486.016L327.969 486.516ZM320.852 487.133C319.841 488.383 318.789 489.424 317.695 490.258L317.117 489.664C318.096 488.956 319.117 487.958 320.18 486.672L320.852 487.133ZM330.945 490.547L330.336 491.102C329.701 490.164 328.852 489.182 327.789 488.156L328.398 487.648C329.539 488.763 330.388 489.729 330.945 490.547ZM329.328 496.828H328.492V496.414H318.719V493.133H319.555V495.648H323.508V492.445H324.336V495.648H328.492V493.133H329.328V496.828ZM346.766 489.055C346.703 490.742 346.615 492.247 346.5 493.57C346.391 494.893 346.271 495.703 346.141 496C346.016 496.292 345.828 496.503 345.578 496.633C345.328 496.768 344.664 496.836 343.586 496.836C343.31 496.836 343.052 496.828 342.812 496.812L342.461 495.984C344.148 496.01 345.034 495.987 345.117 495.914C345.206 495.836 345.289 495.76 345.367 495.688C345.451 495.609 345.547 494.904 345.656 493.57C345.766 492.232 345.839 490.995 345.875 489.859H339.148L339.789 484.672L340.625 484.828L340.109 489.055H344.258L344.883 484.031H339.008V483.234H345.789L345.117 489.055H346.766ZM338.383 484.398H336.289C335.987 485.82 335.596 487.138 335.117 488.352H337.953V495.953H337.148V495.055H335.297V496.242H334.477V489.695C334.102 490.383 333.794 490.88 333.555 491.188L333.023 490.516C334.227 488.688 335.026 486.648 335.422 484.398H333.328V483.617H338.383V484.398ZM337.148 494.273V489.117H335.297V494.273H337.148ZM344.828 493.023H338.578V492.242H344.828V493.023Z" fill="#212529"/>
<rect x="284.5" y="510.5" width="871" height="35" rx="3.5" fill="white"/>
<path d="M300.336 523.484L299.602 523.938C299.076 523.047 298.409 522.161 297.602 521.281L298.32 520.828C299.065 521.641 299.737 522.526 300.336 523.484ZM310.93 526.562H300.93V525.844H305.602V524.625H301.789V523.938H305.602V522.781H301.359V522.078H305.602V520.867H306.43V522.078H310.609V522.781H306.43V523.938H310.094V524.625H306.43V525.844H310.93V526.562ZM301.742 531.773C301.102 532.471 300.185 533.266 298.992 534.156L298.531 533.438C298.656 533.323 298.719 533.174 298.719 532.992V526.094H297.055V525.281H299.555V532.656C300.201 532.188 300.792 531.669 301.328 531.102L301.742 531.773ZM309.695 533.602C309.695 534.086 309.557 534.414 309.281 534.586C309.005 534.758 308.503 534.844 307.773 534.844C307.487 534.844 307.242 534.833 307.039 534.812L306.766 534.016C306.995 534.031 307.326 534.039 307.758 534.039C308.263 534.039 308.576 534.008 308.695 533.945C308.82 533.878 308.883 533.768 308.883 533.617V532.258H303.133V534.812H302.289V527.633H309.695V533.602ZM308.883 529.523V528.383H303.133V529.523H308.883ZM308.883 531.539V530.273H303.133V531.539H308.883ZM327.008 534.445H313.102V533.695H319.648V532.414H313.859V531.633H319.648V530.336H314.688V525.648H319.648V524.398H313.469V523.648H319.648V522.289C318.148 522.362 316.464 522.398 314.594 522.398L314.336 521.68C318.711 521.727 322.471 521.456 325.617 520.867L326.047 521.539C324.865 521.82 322.997 522.049 320.445 522.227V523.648H326.656V524.398H320.445V525.68H325.438V530.336H320.445V531.633H326.289V532.414H320.445V533.695H327.008V534.445ZM324.609 527.617V526.445H320.445V527.617H324.609ZM319.648 527.617V526.445H315.523V527.617H319.648ZM324.609 529.586V528.336H320.445V529.586H324.609ZM319.648 529.586V528.336H315.523V529.586H319.648ZM336.352 528.977H333.117V534.852H332.32V528.977H329.055V528.211H332.32V526.641H329.234V525.844H331.188C331.094 525.344 330.815 524.552 330.352 523.469L330.914 523.086H329.344V522.258H332.289C332.133 521.888 331.909 521.503 331.617 521.102L332.383 520.766C332.638 521.115 332.911 521.612 333.203 522.258H336V523.086H334.719L335.312 523.453C335.12 524.042 334.789 524.839 334.32 525.844H336.18V526.641H333.117V528.211H336.352V528.977ZM334.477 523.086H331.148C331.576 524.128 331.88 525.047 332.062 525.844H333.406C333.859 524.948 334.216 524.029 334.477 523.086ZM342.898 526.797H341.172V534.867H340.352V526.797H337.969C337.969 530.365 337.292 533.07 335.938 534.914L335.266 534.398C335.958 533.367 336.451 532.315 336.742 531.242C337.039 530.169 337.188 528.753 337.188 526.992V522.195C339.203 521.919 340.844 521.464 342.109 520.828L342.734 521.484C341.318 522.141 339.734 522.607 337.984 522.883V526H342.898V526.797ZM335.875 532.047L335.133 532.492C334.888 531.841 334.521 531.086 334.031 530.227L334.703 529.844C335.151 530.521 335.542 531.255 335.875 532.047ZM331.469 530.258C330.969 531.529 330.362 532.622 329.648 533.539L328.945 533.055C329.544 532.336 330.141 531.281 330.734 529.891L331.469 530.258ZM359.117 524.562L358.656 525.219C356.844 524.182 355.5 523.094 354.625 521.953C353.677 523.021 352.38 524.099 350.734 525.188L350.156 524.562C352.177 523.276 353.646 522.005 354.562 520.75L355.297 521.102C355.286 521.154 355.237 521.234 355.148 521.344C356.06 522.516 357.383 523.589 359.117 524.562ZM350.398 523.438H347.484C347.094 524.88 346.685 526.224 346.258 527.469H347.695V524.562H348.461V527.469H350.047V528.227H348.461V530.688C348.852 530.589 349.417 530.424 350.156 530.195L350.258 530.977C349.799 531.138 349.201 531.307 348.461 531.484V534.852H347.695V531.695C346.841 531.888 346.026 532.049 345.25 532.18L345.023 531.422C345.674 531.318 346.565 531.138 347.695 530.883V528.227H345.391V527.469C345.844 526.26 346.271 524.917 346.672 523.438H345.234V522.672H346.852C346.982 522.208 347.135 521.589 347.312 520.812L348.062 520.977C347.974 521.445 347.846 522.01 347.68 522.672H350.398V523.438ZM356.797 525.148H352.445V524.398H356.797V525.148ZM358.461 533.68C358.461 534.065 358.359 534.352 358.156 534.539C357.958 534.732 357.523 534.836 356.852 534.852H355.984L355.695 534.031C356.435 534.052 356.951 534.044 357.242 534.008C357.534 533.971 357.68 533.846 357.68 533.633V525.906H358.461V533.68ZM354.445 533.695C354.445 534.096 354.349 534.388 354.156 534.57C353.969 534.753 353.568 534.844 352.953 534.844C352.755 534.844 352.586 534.844 352.445 534.844L352.18 534.031C352.357 534.047 352.557 534.055 352.781 534.055C353.198 534.055 353.451 534.034 353.539 533.992C353.633 533.945 353.68 533.857 353.68 533.727V531.711H351.664V534.852H350.898V526.195H354.445V533.695ZM353.68 528.516V526.961H351.664V528.516H353.68ZM353.68 530.961V529.297H351.664V530.961H353.68ZM356.32 532.398H355.539V526.672H356.32V532.398ZM375.055 534.141L374.516 534.883C371.464 532.43 369.404 529.266 368.336 525.391C366.966 529.417 364.747 532.516 361.68 534.688L361.039 534.031C362.086 533.318 363.018 532.505 363.836 531.594C364.659 530.682 365.359 529.716 365.938 528.695C366.516 527.674 366.997 526.578 367.383 525.406C367.773 524.229 367.969 523.521 367.969 523.281L367.875 522.047H366.383V521.188H368.719C368.755 526.432 370.867 530.75 375.055 534.141ZM390.383 525.25H389.57V522.852H378.562V525.25H377.742V522.047H383.742C383.654 521.708 383.495 521.336 383.266 520.93L384.016 520.672C384.234 521.083 384.427 521.542 384.594 522.047H390.383V525.25ZM385.25 525.312L384.594 525.742C384.12 524.997 383.612 524.346 383.07 523.789L383.773 523.359C384.268 523.854 384.76 524.505 385.25 525.312ZM387.969 524.516C386.479 526.25 384.581 527.701 382.273 528.867C382.273 529.003 382.349 529.099 382.5 529.156C382.651 529.208 383.273 529.234 384.367 529.234C385.503 529.234 386.229 529.19 386.547 529.102C386.865 529.008 387.06 528.396 387.133 527.266L387.906 527.664C387.875 528.336 387.76 528.854 387.562 529.219C387.365 529.578 387.122 529.802 386.836 529.891C386.549 529.974 385.958 530.016 385.062 530.016C383.51 530.016 382.57 529.987 382.242 529.93C381.914 529.867 381.661 529.646 381.484 529.266C380.12 529.88 378.794 530.419 377.508 530.883L377.117 530.211C378.732 529.648 380.161 529.065 381.406 528.461V523.922H382.242V528.031C384.305 526.984 386.016 525.646 387.375 524.016L387.969 524.516ZM380.852 525.133C379.841 526.383 378.789 527.424 377.695 528.258L377.117 527.664C378.096 526.956 379.117 525.958 380.18 524.672L380.852 525.133ZM390.945 528.547L390.336 529.102C389.701 528.164 388.852 527.182 387.789 526.156L388.398 525.648C389.539 526.763 390.388 527.729 390.945 528.547ZM389.328 534.828H388.492V534.414H378.719V531.133H379.555V533.648H383.508V530.445H384.336V533.648H388.492V531.133H389.328V534.828ZM406.766 527.055C406.703 528.742 406.615 530.247 406.5 531.57C406.391 532.893 406.271 533.703 406.141 534C406.016 534.292 405.828 534.503 405.578 534.633C405.328 534.768 404.664 534.836 403.586 534.836C403.31 534.836 403.052 534.828 402.812 534.812L402.461 533.984C404.148 534.01 405.034 533.987 405.117 533.914C405.206 533.836 405.289 533.76 405.367 533.688C405.451 533.609 405.547 532.904 405.656 531.57C405.766 530.232 405.839 528.995 405.875 527.859H399.148L399.789 522.672L400.625 522.828L400.109 527.055H404.258L404.883 522.031H399.008V521.234H405.789L405.117 527.055H406.766ZM398.383 522.398H396.289C395.987 523.82 395.596 525.138 395.117 526.352H397.953V533.953H397.148V533.055H395.297V534.242H394.477V527.695C394.102 528.383 393.794 528.88 393.555 529.188L393.023 528.516C394.227 526.688 395.026 524.648 395.422 522.398H393.328V521.617H398.383V522.398ZM397.148 532.273V527.117H395.297V532.273H397.148ZM404.828 531.023H398.578V530.242H404.828V531.023Z" fill="#6C757D"/>
<rect x="284.5" y="510.5" width="871" height="35" rx="3.5" stroke="#CED4DA"/>
<path d="M299.219 571.773L298.672 572.445C296.729 570.977 295.422 569.586 294.75 568.273C293.865 569.555 292.622 570.914 291.023 572.352L290.414 571.727C292.424 570.07 293.844 568.396 294.672 566.703L295.422 566.992C295.401 567.076 295.333 567.234 295.219 567.469C295.922 568.87 297.255 570.305 299.219 571.773ZM290.305 573.484C290.305 574.901 290.263 576.268 290.18 577.586C290.102 578.904 290.021 579.677 289.938 579.906C289.854 580.13 289.711 580.32 289.508 580.477C289.305 580.633 288.802 580.714 288 580.719H287.023L286.734 579.906C287.219 579.927 287.63 579.938 287.969 579.938C288.521 579.938 288.854 579.901 288.969 579.828C289.089 579.755 289.169 579.648 289.211 579.508C289.253 579.367 289.305 578.701 289.367 577.508C289.435 576.31 289.458 575.247 289.438 574.32H285.555L285.906 568.812L286.734 568.867L286.445 573.484H288.594L288.992 567.938H285.188V567.172H289.906L289.469 573.484H290.305ZM297.203 572.578H292.383V571.758H297.203V572.578ZM295.359 578.367L294.562 578.562C294.505 577.021 294.253 575.302 293.805 573.406L294.609 573.25C295.068 575.286 295.318 576.992 295.359 578.367ZM299.023 580.43H290.609V579.633H295.57C296.398 577.721 297.065 575.646 297.57 573.406L298.383 573.633C297.799 575.971 297.154 577.971 296.445 579.633H299.023V580.43ZM293.023 578.562L292.211 578.766C292.013 577.25 291.596 575.576 290.961 573.742L291.758 573.523C292.404 575.466 292.826 577.146 293.023 578.562ZM288.961 576.852C287.711 577.315 286.458 577.719 285.203 578.062L284.961 577.266C286.326 576.922 287.594 576.526 288.766 576.078L288.961 576.852ZM304.609 569.555L303.938 570.047C303.333 569.062 302.641 568.177 301.859 567.391L302.562 566.867C303.469 567.846 304.151 568.742 304.609 569.555ZM315.086 580.547H305.328V579.758H306.625V570.961H307.469V579.758H309.891V568.109H305.602V567.312H314.867V568.109H310.719V572.797H314.492V573.586H310.719V579.758H315.086V580.547ZM305.891 577.969C305.234 578.625 304.38 579.339 303.328 580.109L302.828 579.328C302.938 579.234 302.992 579.128 302.992 579.008V572.078H301.148V571.281H303.82V578.688C304.372 578.245 304.917 577.771 305.453 577.266L305.891 577.969ZM330.766 573.055C330.703 574.742 330.615 576.247 330.5 577.57C330.391 578.893 330.271 579.703 330.141 580C330.016 580.292 329.828 580.503 329.578 580.633C329.328 580.768 328.664 580.836 327.586 580.836C327.31 580.836 327.052 580.828 326.812 580.812L326.461 579.984C328.148 580.01 329.034 579.987 329.117 579.914C329.206 579.836 329.289 579.76 329.367 579.688C329.451 579.609 329.547 578.904 329.656 577.57C329.766 576.232 329.839 574.995 329.875 573.859H323.148L323.789 568.672L324.625 568.828L324.109 573.055H328.258L328.883 568.031H323.008V567.234H329.789L329.117 573.055H330.766ZM322.383 568.398H320.289C319.987 569.82 319.596 571.138 319.117 572.352H321.953V579.953H321.148V579.055H319.297V580.242H318.477V573.695C318.102 574.383 317.794 574.88 317.555 575.188L317.023 574.516C318.227 572.688 319.026 570.648 319.422 568.398H317.328V567.617H322.383V568.398ZM321.148 578.273V573.117H319.297V578.273H321.148ZM328.828 577.023H322.578V576.242H328.828V577.023Z" fill="#212529"/>
<g clip-path="url(#clip1)">
<rect x="284.5" y="594.5" width="871" height="33" rx="3.5" fill="white"/>
<rect width="88" height="36" transform="translate(284 593)" fill="#E9ECEF"/>
<path d="M311.219 608.773L310.672 609.445C308.729 607.977 307.422 606.586 306.75 605.273C305.865 606.555 304.622 607.914 303.023 609.352L302.414 608.727C304.424 607.07 305.844 605.396 306.672 603.703L307.422 603.992C307.401 604.076 307.333 604.234 307.219 604.469C307.922 605.87 309.255 607.305 311.219 608.773ZM302.305 610.484C302.305 611.901 302.263 613.268 302.18 614.586C302.102 615.904 302.021 616.677 301.938 616.906C301.854 617.13 301.711 617.32 301.508 617.477C301.305 617.633 300.802 617.714 300 617.719H299.023L298.734 616.906C299.219 616.927 299.63 616.938 299.969 616.938C300.521 616.938 300.854 616.901 300.969 616.828C301.089 616.755 301.169 616.648 301.211 616.508C301.253 616.367 301.305 615.701 301.367 614.508C301.435 613.31 301.458 612.247 301.438 611.32H297.555L297.906 605.812L298.734 605.867L298.445 610.484H300.594L300.992 604.938H297.188V604.172H301.906L301.469 610.484H302.305ZM309.203 609.578H304.383V608.758H309.203V609.578ZM307.359 615.367L306.562 615.562C306.505 614.021 306.253 612.302 305.805 610.406L306.609 610.25C307.068 612.286 307.318 613.992 307.359 615.367ZM311.023 617.43H302.609V616.633H307.57C308.398 614.721 309.065 612.646 309.57 610.406L310.383 610.633C309.799 612.971 309.154 614.971 308.445 616.633H311.023V617.43ZM305.023 615.562L304.211 615.766C304.013 614.25 303.596 612.576 302.961 610.742L303.758 610.523C304.404 612.466 304.826 614.146 305.023 615.562ZM300.961 613.852C299.711 614.315 298.458 614.719 297.203 615.062L296.961 614.266C298.326 613.922 299.594 613.526 300.766 613.078L300.961 613.852ZM324.609 606.555L323.938 607.047C323.333 606.062 322.641 605.177 321.859 604.391L322.562 603.867C323.469 604.846 324.151 605.742 324.609 606.555ZM335.086 617.547H325.328V616.758H326.625V607.961H327.469V616.758H329.891V605.109H325.602V604.312H334.867V605.109H330.719V609.797H334.492V610.586H330.719V616.758H335.086V617.547ZM325.891 614.969C325.234 615.625 324.38 616.339 323.328 617.109L322.828 616.328C322.938 616.234 322.992 616.128 322.992 616.008V609.078H321.148V608.281H323.82V615.688C324.372 615.245 324.917 614.771 325.453 614.266L325.891 614.969ZM358.766 610.055C358.703 611.742 358.615 613.247 358.5 614.57C358.391 615.893 358.271 616.703 358.141 617C358.016 617.292 357.828 617.503 357.578 617.633C357.328 617.768 356.664 617.836 355.586 617.836C355.31 617.836 355.052 617.828 354.812 617.812L354.461 616.984C356.148 617.01 357.034 616.987 357.117 616.914C357.206 616.836 357.289 616.76 357.367 616.688C357.451 616.609 357.547 615.904 357.656 614.57C357.766 613.232 357.839 611.995 357.875 610.859H351.148L351.789 605.672L352.625 605.828L352.109 610.055H356.258L356.883 605.031H351.008V604.234H357.789L357.117 610.055H358.766ZM350.383 605.398H348.289C347.987 606.82 347.596 608.138 347.117 609.352H349.953V616.953H349.148V616.055H347.297V617.242H346.477V610.695C346.102 611.383 345.794 611.88 345.555 612.188L345.023 611.516C346.227 609.688 347.026 607.648 347.422 605.398H345.328V604.617H350.383V605.398ZM349.148 615.273V610.117H347.297V615.273H349.148ZM356.828 614.023H350.578V613.242H356.828V614.023Z" fill="#495057"/>
<rect x="372.5" y="593.5" width="783" height="35" fill="white"/>
<path d="M388.336 606.484L387.602 606.938C387.076 606.047 386.409 605.161 385.602 604.281L386.32 603.828C387.065 604.641 387.737 605.526 388.336 606.484ZM398.93 609.562H388.93V608.844H393.602V607.625H389.789V606.938H393.602V605.781H389.359V605.078H393.602V603.867H394.43V605.078H398.609V605.781H394.43V606.938H398.094V607.625H394.43V608.844H398.93V609.562ZM389.742 614.773C389.102 615.471 388.185 616.266 386.992 617.156L386.531 616.438C386.656 616.323 386.719 616.174 386.719 615.992V609.094H385.055V608.281H387.555V615.656C388.201 615.188 388.792 614.669 389.328 614.102L389.742 614.773ZM397.695 616.602C397.695 617.086 397.557 617.414 397.281 617.586C397.005 617.758 396.503 617.844 395.773 617.844C395.487 617.844 395.242 617.833 395.039 617.812L394.766 617.016C394.995 617.031 395.326 617.039 395.758 617.039C396.263 617.039 396.576 617.008 396.695 616.945C396.82 616.878 396.883 616.768 396.883 616.617V615.258H391.133V617.812H390.289V610.633H397.695V616.602ZM396.883 612.523V611.383H391.133V612.523H396.883ZM396.883 614.539V613.273H391.133V614.539H396.883ZM415.117 607.562L414.656 608.219C412.844 607.182 411.5 606.094 410.625 604.953C409.677 606.021 408.38 607.099 406.734 608.188L406.156 607.562C408.177 606.276 409.646 605.005 410.562 603.75L411.297 604.102C411.286 604.154 411.237 604.234 411.148 604.344C412.06 605.516 413.383 606.589 415.117 607.562ZM406.398 606.438H403.484C403.094 607.88 402.685 609.224 402.258 610.469H403.695V607.562H404.461V610.469H406.047V611.227H404.461V613.688C404.852 613.589 405.417 613.424 406.156 613.195L406.258 613.977C405.799 614.138 405.201 614.307 404.461 614.484V617.852H403.695V614.695C402.841 614.888 402.026 615.049 401.25 615.18L401.023 614.422C401.674 614.318 402.565 614.138 403.695 613.883V611.227H401.391V610.469C401.844 609.26 402.271 607.917 402.672 606.438H401.234V605.672H402.852C402.982 605.208 403.135 604.589 403.312 603.812L404.062 603.977C403.974 604.445 403.846 605.01 403.68 605.672H406.398V606.438ZM412.797 608.148H408.445V607.398H412.797V608.148ZM414.461 616.68C414.461 617.065 414.359 617.352 414.156 617.539C413.958 617.732 413.523 617.836 412.852 617.852H411.984L411.695 617.031C412.435 617.052 412.951 617.044 413.242 617.008C413.534 616.971 413.68 616.846 413.68 616.633V608.906H414.461V616.68ZM410.445 616.695C410.445 617.096 410.349 617.388 410.156 617.57C409.969 617.753 409.568 617.844 408.953 617.844C408.755 617.844 408.586 617.844 408.445 617.844L408.18 617.031C408.357 617.047 408.557 617.055 408.781 617.055C409.198 617.055 409.451 617.034 409.539 616.992C409.633 616.945 409.68 616.857 409.68 616.727V614.711H407.664V617.852H406.898V609.195H410.445V616.695ZM409.68 611.516V609.961H407.664V611.516H409.68ZM409.68 613.961V612.297H407.664V613.961H409.68ZM412.32 615.398H411.539V609.672H412.32V615.398ZM431.055 617.141L430.516 617.883C427.464 615.43 425.404 612.266 424.336 608.391C422.966 612.417 420.747 615.516 417.68 617.688L417.039 617.031C418.086 616.318 419.018 615.505 419.836 614.594C420.659 613.682 421.359 612.716 421.938 611.695C422.516 610.674 422.997 609.578 423.383 608.406C423.773 607.229 423.969 606.521 423.969 606.281L423.875 605.047H422.383V604.188H424.719C424.755 609.432 426.867 613.75 431.055 617.141ZM447.219 608.773L446.672 609.445C444.729 607.977 443.422 606.586 442.75 605.273C441.865 606.555 440.622 607.914 439.023 609.352L438.414 608.727C440.424 607.07 441.844 605.396 442.672 603.703L443.422 603.992C443.401 604.076 443.333 604.234 443.219 604.469C443.922 605.87 445.255 607.305 447.219 608.773ZM438.305 610.484C438.305 611.901 438.263 613.268 438.18 614.586C438.102 615.904 438.021 616.677 437.938 616.906C437.854 617.13 437.711 617.32 437.508 617.477C437.305 617.633 436.802 617.714 436 617.719H435.023L434.734 616.906C435.219 616.927 435.63 616.938 435.969 616.938C436.521 616.938 436.854 616.901 436.969 616.828C437.089 616.755 437.169 616.648 437.211 616.508C437.253 616.367 437.305 615.701 437.367 614.508C437.435 613.31 437.458 612.247 437.438 611.32H433.555L433.906 605.812L434.734 605.867L434.445 610.484H436.594L436.992 604.938H433.188V604.172H437.906L437.469 610.484H438.305ZM445.203 609.578H440.383V608.758H445.203V609.578ZM443.359 615.367L442.562 615.562C442.505 614.021 442.253 612.302 441.805 610.406L442.609 610.25C443.068 612.286 443.318 613.992 443.359 615.367ZM447.023 617.43H438.609V616.633H443.57C444.398 614.721 445.065 612.646 445.57 610.406L446.383 610.633C445.799 612.971 445.154 614.971 444.445 616.633H447.023V617.43ZM441.023 615.562L440.211 615.766C440.013 614.25 439.596 612.576 438.961 610.742L439.758 610.523C440.404 612.466 440.826 614.146 441.023 615.562ZM436.961 613.852C435.711 614.315 434.458 614.719 433.203 615.062L432.961 614.266C434.326 613.922 435.594 613.526 436.766 613.078L436.961 613.852ZM452.609 606.555L451.938 607.047C451.333 606.062 450.641 605.177 449.859 604.391L450.562 603.867C451.469 604.846 452.151 605.742 452.609 606.555ZM463.086 617.547H453.328V616.758H454.625V607.961H455.469V616.758H457.891V605.109H453.602V604.312H462.867V605.109H458.719V609.797H462.492V610.586H458.719V616.758H463.086V617.547ZM453.891 614.969C453.234 615.625 452.38 616.339 451.328 617.109L450.828 616.328C450.938 616.234 450.992 616.128 450.992 616.008V609.078H449.148V608.281H451.82V615.688C452.372 615.245 452.917 614.771 453.453 614.266L453.891 614.969ZM478.766 610.055C478.703 611.742 478.615 613.247 478.5 614.57C478.391 615.893 478.271 616.703 478.141 617C478.016 617.292 477.828 617.503 477.578 617.633C477.328 617.768 476.664 617.836 475.586 617.836C475.31 617.836 475.052 617.828 474.812 617.812L474.461 616.984C476.148 617.01 477.034 616.987 477.117 616.914C477.206 616.836 477.289 616.76 477.367 616.688C477.451 616.609 477.547 615.904 477.656 614.57C477.766 613.232 477.839 611.995 477.875 610.859H471.148L471.789 605.672L472.625 605.828L472.109 610.055H476.258L476.883 605.031H471.008V604.234H477.789L477.117 610.055H478.766ZM470.383 605.398H468.289C467.987 606.82 467.596 608.138 467.117 609.352H469.953V616.953H469.148V616.055H467.297V617.242H466.477V610.695C466.102 611.383 465.794 611.88 465.555 612.188L465.023 611.516C466.227 609.688 467.026 607.648 467.422 605.398H465.328V604.617H470.383V605.398ZM469.148 615.273V610.117H467.297V615.273H469.148ZM476.828 614.023H470.578V613.242H476.828V614.023Z" fill="#6C757D"/>
<rect x="372.5" y="593.5" width="783" height="35" stroke="#CED4DA"/>
</g>
<rect x="284.5" y="594.5" width="871" height="33" rx="3.5" stroke="#CED4DA"/>
<path d="M295.813 635.944H289.238C288.925 636.419 288.702 636.74 288.569 636.906H294.481V642.625H293.806V642H288.431V642.638H287.775V637.944C287.038 638.706 286.248 639.423 285.406 640.094L284.919 639.569C286.444 638.385 287.619 637.177 288.444 635.944H285.05V635.331H288.838C289.05 634.99 289.233 634.652 289.388 634.319H285.488V633.744H289.656C289.819 633.406 289.944 633.077 290.031 632.756C288.415 632.869 287.06 632.925 285.969 632.925L285.781 632.287C289.31 632.271 292.267 631.987 294.65 631.437L295.019 632.031C293.735 632.29 292.315 632.506 290.756 632.681C290.631 633.102 290.508 633.456 290.388 633.744H295.406V634.319H290.131C289.969 634.698 289.794 635.035 289.606 635.331H295.813V635.944ZM293.806 638.406V637.531H288.431V638.406H293.806ZM293.806 639.887V639.019H288.431V639.887H293.806ZM293.806 641.375V640.5H288.431V641.375H293.806ZM309 639.156L308.575 639.706C306.663 638.185 305.013 637.069 303.625 636.356V642.719H302.906V635.512C301.698 636.954 300.073 638.348 298.031 639.694L297.581 639.106C300.723 637.231 302.856 635.012 303.981 632.45H297.838V631.762H308.719V632.45H304.763C304.454 633.112 304.075 633.808 303.625 634.537V635.562C306.013 636.946 307.804 638.144 309 639.156ZM313.169 633.05L312.738 633.562C312.183 633 311.5 632.45 310.688 631.912L311.044 631.387C311.923 631.896 312.631 632.45 313.169 633.05ZM321.581 636.112H313.213V635.512H317.038V634.5H313.863V633.912H317.038V633.012H313.569V632.387H317.038V631.45H317.688V632.387H321.438V633.012H317.688V633.925H321.094V634.5H317.688V635.512H321.581V636.112ZM312.969 636.381L312.531 636.919C311.91 636.206 311.227 635.608 310.481 635.125L310.894 634.587C311.531 635.008 312.223 635.606 312.969 636.381ZM320.713 641.4C320.713 641.821 320.621 642.117 320.438 642.288C320.254 642.463 320.015 642.56 319.719 642.581C319.423 642.606 318.798 642.613 317.844 642.6L317.588 641.95C317.829 641.975 318.192 641.987 318.675 641.987C319.117 641.987 319.404 641.983 319.538 641.975C319.675 641.962 319.794 641.915 319.894 641.831C319.994 641.744 320.044 641.646 320.044 641.537V640.631H314.525C314.338 641.36 313.954 642.033 313.375 642.65L312.863 642.194C313.692 641.373 314.106 640.204 314.106 638.687V636.906H320.713V641.4ZM320.031 638.444V637.531H314.769V638.444H320.031ZM320.031 640.019V639.044H314.744C314.744 639.252 314.723 639.577 314.681 640.019H320.031ZM312.825 638.325C312.304 640.067 311.706 641.483 311.031 642.575L310.481 642.181C311.156 641.065 311.729 639.685 312.2 638.044L312.825 638.325ZM328.65 638.237C328.342 638.075 328.188 637.869 328.188 637.619C328.188 637.498 328.24 637.375 328.344 637.25C328.448 637.121 328.596 637.056 328.788 637.056C329.188 637.056 329.388 637.319 329.388 637.844C329.388 638.273 329.135 638.687 328.631 639.087L328.363 638.881C328.554 638.627 328.65 638.412 328.65 638.237ZM347.244 642.219L346.825 642.794C345.158 641.96 343.992 640.85 343.325 639.462C343.108 640.212 342.654 640.887 341.963 641.487C341.271 642.088 340.485 642.498 339.606 642.719L339.206 642.1C340.127 641.9 340.906 641.533 341.544 641C342.185 640.467 342.575 639.844 342.713 639.131H339.338V638.494H340.194V635.15C340.09 635.25 339.996 635.323 339.913 635.369L339.475 634.806C340.488 634.035 341.383 632.904 342.163 631.412L342.806 631.669C342.731 631.86 342.606 632.1 342.431 632.387H345.45V633.025C345.15 633.487 344.802 633.967 344.406 634.462H346.463V638.494H347.219V639.131H343.863C344.483 640.431 345.61 641.46 347.244 642.219ZM344.569 633.025H342.025C341.663 633.542 341.285 634.021 340.894 634.462H343.519C343.902 634.042 344.252 633.562 344.569 633.025ZM345.75 638.494V635.1H343.625C343.575 637.317 343.535 638.448 343.506 638.494H345.75ZM342.944 635.1H340.869V638.494H342.844C342.898 637.844 342.931 636.712 342.944 635.1ZM339.819 637.187C339.185 637.487 338.713 637.7 338.4 637.825V641.806C338.4 642.381 338.013 642.669 337.238 642.669C337.042 642.669 336.806 642.663 336.531 642.65L336.275 641.937C336.879 641.962 337.285 641.975 337.494 641.975C337.544 641.975 337.596 641.942 337.65 641.875C337.708 641.808 337.738 641.74 337.738 641.669V638.106C337.313 638.277 336.8 638.471 336.2 638.687L335.981 638.019C336.685 637.794 337.271 637.594 337.738 637.419V634.369H336.163V633.706H337.738V631.45H338.4V633.706H339.681V634.369H338.4V637.112C338.75 636.967 339.173 636.775 339.669 636.537L339.819 637.187ZM359.994 637.162H348.906V636.444H359.994V637.162ZM372.831 642.144L372.413 642.65C370.442 641.362 369.165 639.465 368.581 636.956H367.456V641.694C368.165 641.477 368.869 641.192 369.569 640.837L369.694 641.512C368.944 641.883 368.023 642.25 366.931 642.613L366.663 642.038C366.746 641.896 366.788 641.765 366.788 641.644V636.956H365.331V636.281H366.788V631.481H367.456V634.962C369.144 634.092 370.454 633.115 371.388 632.031L371.925 632.45C370.892 633.646 369.402 634.733 367.456 635.712V636.281H372.744V636.956H369.263C369.746 639.148 370.935 640.877 372.831 642.144ZM365.456 637.369C365.448 638.456 365.398 639.471 365.306 640.412C365.219 641.354 365.133 641.923 365.05 642.119C364.967 642.315 364.825 642.454 364.625 642.538C364.425 642.625 364.027 642.669 363.431 642.669C363.031 642.669 362.679 642.658 362.375 642.638L362.144 642.013C362.615 642.033 363.01 642.044 363.331 642.044C363.948 642.044 364.302 642.004 364.394 641.925C364.485 641.846 364.573 641.319 364.656 640.344C364.74 639.365 364.785 638.585 364.794 638.006H361.863C362.025 636.902 362.135 635.787 362.194 634.662H364.794V632.4H361.631V631.787H365.456V635.306H362.825C362.792 635.781 362.727 636.469 362.631 637.369H365.456Z" fill="#6C757D"/>
<path d="M284 643.481H373.6V644.225H284V643.481Z" fill="#6C757D"/>
<rect x="284.5" y="670" width="12" height="12" rx="1.5" fill="white" stroke="#CED4DA"/>
<path d="M308.609 671.422L307.984 671.906C307.401 671.01 306.693 670.135 305.859 669.281L306.516 668.812C307.219 669.505 307.917 670.375 308.609 671.422ZM319.133 679.008C319.096 680.685 318.94 681.698 318.664 682.047C318.393 682.401 318.013 682.578 317.523 682.578L311.969 682.594C311.083 682.594 310.641 682.188 310.641 681.375V674.672H317.602V670.031H310.125V669.25H318.43V675.469H311.469V681.359C311.469 681.568 311.557 681.703 311.734 681.766C311.917 681.823 312.753 681.852 314.242 681.852C316.299 681.852 317.456 681.823 317.711 681.766C317.966 681.703 318.133 681.362 318.211 680.742C318.294 680.122 318.336 679.448 318.336 678.719L319.133 679.008ZM310.125 679.805C309.104 680.685 308.177 681.396 307.344 681.938L306.93 681.344C306.992 681.234 307.023 681.138 307.023 681.055V674H305.117V673.234H307.844V680.609C308.375 680.245 309.018 679.753 309.773 679.133L310.125 679.805ZM334.961 682.43H325.07V681.602H329.391V677.297H325.844V676.461H329.391V672.781H325.359V671.953H329.602C329.435 671.177 329.044 670.211 328.43 669.055L329.266 668.766C329.719 669.74 330.122 670.802 330.477 671.953H334.766V672.781H330.242V676.461H334.258V677.297H330.242V681.602H334.961V682.43ZM325.57 669.07C325.398 669.539 325.13 670.138 324.766 670.867L324.227 671.938V682.797H323.375V673.328C322.812 674.177 322.109 675.026 321.266 675.875L320.812 675.039C322.438 673.508 323.755 671.432 324.766 668.812L325.57 669.07ZM351.07 679.539C350.935 680.201 350.732 680.872 350.461 681.555C350.195 682.232 349.951 682.63 349.727 682.75C349.508 682.87 349.281 682.93 349.047 682.93C348.635 682.93 348.18 682.62 347.68 682C347.18 681.375 346.763 680.643 346.43 679.805C345.544 680.549 344.424 681.211 343.07 681.789L342.492 681.086C344.034 680.482 345.245 679.779 346.125 678.977C345.74 677.378 345.516 675.719 345.453 674H341.648V676.812C342.424 676.714 343.443 676.464 344.703 676.062V676.945C343.682 677.232 342.664 677.477 341.648 677.68V681.773C341.648 682.049 341.547 682.286 341.344 682.484C341.141 682.688 340.846 682.792 340.461 682.797H338.352L338.109 681.938C338.776 681.969 339.534 681.984 340.383 681.984C340.669 681.984 340.812 681.852 340.812 681.586V677.875C339.438 678.141 338.281 678.336 337.344 678.461L337.133 677.617C337.888 677.565 339.115 677.372 340.812 677.039V674H337.039V673.172H340.812V670.672C339.146 670.938 338.086 671.086 337.633 671.117L337.328 670.32C340.125 670.044 342.43 669.591 344.242 668.961L344.492 669.711C343.633 669.997 342.685 670.253 341.648 670.477V673.172H345.422C345.411 672.708 345.406 672.19 345.406 671.617C345.406 670.57 345.422 669.625 345.453 668.781H346.289C346.247 669.526 346.227 670.393 346.227 671.383C346.227 672.023 346.237 672.62 346.258 673.172H351.023V674H346.305C346.336 675.448 346.505 676.857 346.812 678.227C347.552 677.471 348.284 676.362 349.008 674.898L349.727 675.344C348.81 677.036 347.935 678.312 347.102 679.172C347.357 679.948 347.701 680.63 348.133 681.219C348.57 681.802 348.888 682.094 349.086 682.094C349.201 682.094 349.299 682.029 349.383 681.898C349.466 681.768 349.615 681.419 349.828 680.852C350.047 680.279 350.211 679.685 350.32 679.07L351.07 679.539ZM350.242 672L349.555 672.492C348.997 671.534 348.307 670.677 347.484 669.922L348.125 669.406C348.984 670.203 349.69 671.068 350.242 672Z" fill="#212529"/>
<rect x="284" y="704" width="872" height="40" rx="4.8" fill="#007BFF"/>
<path d="M718.992 730.43H708.766V729.602H713.648V725.023H709.922V724.195H713.648V720.336H709.523V719.508H713.789C713.508 718.534 713.161 717.695 712.75 716.992L713.586 716.781C714.117 717.865 714.469 718.773 714.641 719.508H718.867V720.336H714.477V724.195H718.305V725.023H714.477V729.602H718.992V730.43ZM709.086 718.945L708.461 719.586C707.721 718.872 706.794 718.161 705.68 717.453L706.195 716.797C707.164 717.37 708.128 718.086 709.086 718.945ZM708.703 722.656L708.18 723.297C707.341 722.62 706.37 721.948 705.266 721.281L705.758 720.609C706.742 721.146 707.724 721.828 708.703 722.656ZM708.852 725.344C707.695 727.76 706.659 729.602 705.742 730.867L705.07 730.273C706.107 728.904 707.12 727.083 708.109 724.812L708.852 725.344ZM735.008 723.742H733.805V729.664C733.805 730.029 733.706 730.31 733.508 730.508C733.315 730.706 732.878 730.81 732.195 730.82L731.266 730.828L730.961 729.984C731.643 730.005 732.193 730.016 732.609 730.016C732.708 730.016 732.799 729.974 732.883 729.891C732.966 729.802 733.008 729.706 733.008 729.602V723.742H729.789V730.852H729.008V723.742H727.023V729.664C727.008 730.44 726.49 730.828 725.469 730.828C725.177 730.828 724.875 730.828 724.562 730.828L724.273 729.938C724.935 729.979 725.43 730 725.758 730C726.07 730 726.227 729.852 726.227 729.555V723.742H723.133V730.898H722.305V723.742H721.07V722.945H722.305V717.25H727.023V722.945H729.008V717.25H733.805V722.945H735.008V723.742ZM733.008 722.945V718.062H729.789V722.945H733.008ZM726.227 722.945V718.062H723.148V722.945H726.227Z" fill="white"/>
<path d="M694.867 774.383C694.768 776.232 694.565 777.357 694.258 777.758C693.951 778.159 693.474 778.385 692.828 778.438C692.182 778.49 690.328 778.516 687.266 778.516C685.896 778.516 684.906 778.508 684.297 778.492C683.688 778.482 683.253 778.336 682.992 778.055C682.737 777.773 682.609 777.349 682.609 776.781V768.883H683.469V770.914H692.781V766.125H681.602V765.266H693.633V771.742H683.469V777.039C683.469 777.19 683.523 777.331 683.633 777.461C683.747 777.586 683.878 777.656 684.023 777.672C684.174 777.688 685.055 777.695 686.664 777.695C690.654 777.695 692.862 777.625 693.289 777.484C693.721 777.339 693.958 776.203 694 774.078L694.867 774.383ZM711.023 767.484H703.102C702.711 768.151 702.318 768.75 701.922 769.281H709.789V777.617C709.789 778.086 709.641 778.406 709.344 778.578C709.047 778.755 708.346 778.844 707.242 778.844C706.82 778.844 706.406 778.828 706 778.797L705.602 777.969C706.086 778.01 706.604 778.031 707.156 778.031C708.031 778.031 708.549 777.995 708.711 777.922C708.878 777.844 708.961 777.706 708.961 777.508V775.422H701.086C700.805 776.833 700.214 777.997 699.312 778.914L698.516 778.445C699.839 777.268 700.5 775.201 700.5 772.242C700.5 771.93 700.492 771.534 700.477 771.055C699.44 772.081 698.477 772.891 697.586 773.484L696.945 772.852C699.174 771.357 700.896 769.568 702.109 767.484H697.102V766.656H702.594C702.901 766.104 703.211 765.474 703.523 764.766L704.383 765.008C704.076 765.69 703.805 766.24 703.57 766.656H711.023V767.484ZM708.961 771.891V770.062H701.344V771.891H708.961ZM708.961 774.641V772.719H701.297C701.297 773.542 701.271 774.182 701.219 774.641H708.961ZM727.086 778.078L726.516 778.734C724.182 776.99 722.651 774.643 721.922 771.695H721.023V777.555C721.284 777.466 722.052 777.13 723.328 776.547L723.555 777.344C722.18 778.016 721.117 778.474 720.367 778.719L720.062 778C720.141 777.812 720.18 777.654 720.18 777.523V771.695H718.914V770.852H720.18V764.797H721.023V768.852C722.779 768.008 724.266 766.87 725.484 765.438L726.141 765.969C724.885 767.495 723.18 768.758 721.023 769.758V770.852H727.008V771.695H722.797C723.573 774.539 725.003 776.667 727.086 778.078ZM718.367 774.367H717.539V766H714.461V774.367H713.648V765.172H718.367V774.367ZM716.43 772.945C716.43 775.539 715.448 777.484 713.484 778.781L712.992 778.078C713.888 777.469 714.547 776.789 714.969 776.039C715.391 775.289 715.602 774.258 715.602 772.945V766.992H716.43V772.945ZM718.867 777.523L718.125 778.031C717.729 777.25 717.169 776.456 716.445 775.648L717.172 775.133C717.974 776.076 718.539 776.872 718.867 777.523ZM740.43 769.617H731.68V765.219H740.43V769.617ZM739.555 768.797V766H732.578V768.797H739.555ZM742.977 771.82H733.758C733.622 772.299 733.448 772.833 733.234 773.422H741.008C740.93 774.443 740.802 775.385 740.625 776.25C740.453 777.115 740.299 777.664 740.164 777.898C740.034 778.133 739.846 778.323 739.602 778.469C739.362 778.615 739.117 778.708 738.867 778.75C738.617 778.792 738.021 778.812 737.078 778.812C736.714 778.812 736.401 778.802 736.141 778.781L735.758 777.938C736.247 777.953 736.729 777.961 737.203 777.961C738.234 777.961 738.826 777.93 738.977 777.867C739.128 777.799 739.263 777.68 739.383 777.508C739.503 777.336 739.625 776.94 739.75 776.32C739.88 775.701 739.979 775.013 740.047 774.258H732.047C732.385 773.315 732.654 772.503 732.852 771.82H729.086V771.023H742.977V771.82ZM752.195 774.594H751.008V773.938C751.008 773.422 751.104 772.974 751.297 772.594C751.49 772.208 751.896 771.771 752.516 771.281C753.135 770.797 753.549 770.362 753.758 769.977C753.971 769.591 754.078 769.161 754.078 768.688C754.078 768.141 753.885 767.693 753.5 767.344C753.12 766.99 752.599 766.812 751.938 766.812C750.969 766.812 750.099 767.182 749.328 767.922V766.531C750.224 765.984 751.161 765.711 752.141 765.711C753.125 765.711 753.906 765.977 754.484 766.508C755.068 767.039 755.359 767.729 755.359 768.578C755.359 769.151 755.227 769.682 754.961 770.172C754.701 770.656 754.216 771.206 753.508 771.82C752.992 772.247 752.643 772.594 752.461 772.859C752.284 773.125 752.195 773.495 752.195 773.969V774.594ZM751.602 776.367C751.846 776.367 752.055 776.456 752.227 776.633C752.404 776.81 752.492 777.026 752.492 777.281C752.492 777.526 752.406 777.74 752.234 777.922C752.062 778.104 751.852 778.195 751.602 778.195C751.346 778.195 751.13 778.107 750.953 777.93C750.776 777.747 750.688 777.531 750.688 777.281C750.688 777.021 750.776 776.805 750.953 776.633C751.135 776.456 751.352 776.367 751.602 776.367Z" fill="#212529"/>
<path d="M692.289 791.297L691.664 791.844C691.008 791.005 690.266 790.247 689.438 789.57L690 788.977C690.911 789.747 691.674 790.521 692.289 791.297ZM702.812 799.891L702.32 800.531L699.602 797.789C698.664 798.919 697.305 799.911 695.523 800.766L695.07 800.031C696.82 799.234 698.128 798.297 698.992 797.219C697.982 796.25 696.755 795.182 695.312 794.016C695.203 796.917 694.766 798.982 694 800.211L693.25 799.875C694.078 798.438 694.492 796.164 694.492 793.055V789.203H702.75V790.016H695.344V792.273H701.859V793.039C701.323 794.81 700.734 796.164 700.094 797.102C701.089 798.081 701.995 799.01 702.812 799.891ZM700.93 793.086H695.375C696.88 794.289 698.245 795.438 699.469 796.531C700.052 795.646 700.539 794.497 700.93 793.086ZM703.117 801.805L702.961 802.625H698.656C696.62 802.625 695.102 802.513 694.102 802.289C693.102 802.065 692.182 801.568 691.344 800.797C690.932 801.443 690.331 802.169 689.539 802.977L688.898 802.383C690.607 800.826 691.635 799.12 691.984 797.266H689.312V796.641C690.37 795.276 691.174 794.135 691.727 793.219H689.086V792.398H692.797V793.086C692.073 794.253 691.323 795.378 690.547 796.461H692.797V797.07C692.714 797.956 692.362 798.992 691.742 800.18C692.424 800.846 693.206 801.284 694.086 801.492C694.966 801.701 696.26 801.805 697.969 801.805H703.117ZM718.32 802.812H717.422V801.438H706.656V802.812H705.789V789.148H718.32V802.812ZM717.422 800.578V790H706.656V800.578H717.422ZM715.055 798.094H708.977V792.352H715.055V798.094ZM714.211 797.25V793.188H709.82V797.25H714.211ZM735.102 794.641L734.609 795.328C731.667 793.849 729.617 791.779 728.461 789.117L729.203 788.766C729.469 789.417 729.81 790.036 730.227 790.625C730.924 789.995 731.495 789.38 731.938 788.781L732.672 789.219C732.016 789.99 731.344 790.667 730.656 791.25C730.984 791.698 731.336 792.081 731.711 792.398C732.32 791.94 732.977 791.268 733.68 790.383L734.367 790.828C733.706 791.594 733.023 792.284 732.32 792.898C732.94 793.44 733.867 794.021 735.102 794.641ZM727.648 789.953C726.232 792.292 724.237 794.083 721.664 795.328L721.102 794.641C722.143 794.182 723.151 793.596 724.125 792.883C723.667 792.409 723.07 791.922 722.336 791.422L722.883 790.812C723.591 791.328 724.214 791.841 724.75 792.352C725.453 791.721 726.109 790.932 726.719 789.984H722.594V789.188H727.648V789.953ZM731.055 794.109H725.133V793.328H731.055V794.109ZM734.656 802.461H721.453V801.68H725.969C725.703 800.94 725.362 800.268 724.945 799.664L725.523 799.188H724.18V795.617H731.953V799.188H730.562L731.117 799.602C730.982 800.013 730.669 800.706 730.18 801.68H734.656V802.461ZM731.117 798.352V796.383H725.023V798.352H731.117ZM730.352 799.188H725.711C726.117 799.943 726.503 800.773 726.867 801.68H729.219C729.599 801.044 729.977 800.214 730.352 799.188ZM751.055 802.141L750.516 802.883C747.464 800.43 745.404 797.266 744.336 793.391C742.966 797.417 740.747 800.516 737.68 802.688L737.039 802.031C738.086 801.318 739.018 800.505 739.836 799.594C740.659 798.682 741.359 797.716 741.938 796.695C742.516 795.674 742.997 794.578 743.383 793.406C743.773 792.229 743.969 791.521 743.969 791.281L743.875 790.047H742.383V789.188H744.719C744.755 794.432 746.867 798.75 751.055 802.141Z" fill="#007BFF"/>
<path d="M688 803.852H752V804.781H688V803.852Z" fill="#007BFF"/>
<rect x="261.5" y="232.5" width="917" height="598" stroke="#F8F9FA" stroke-width="3"/>
<defs>
<clipPath id="clip0">
<rect width="872" height="39" fill="white" transform="translate(284 255)"/>
</clipPath>
<clipPath id="clip1">
</clipPath>
</defs>
</svg>
