<svg width="1440" height="1024" viewBox="0 0 1440 1024" fill="none" xmlns="http://www.w3.org/2000/svg">
<rect width="1440" height="1024" fill="white"/>
<rect width="921" height="56" transform="translate(247 29)" fill="#343A40"/>
<path d="M264.699 65V49.0137H266.613V65H264.699ZM269.318 59.7168C269.318 57.9329 269.816 56.5267 270.812 55.498C271.809 54.4629 273.16 53.9453 274.865 53.9453C276.486 53.9453 277.756 54.4434 278.674 55.4395C279.598 56.429 280.061 57.7995 280.061 59.5508C280.061 61.2565 279.569 62.6335 278.586 63.6816C277.603 64.7298 276.285 65.2539 274.631 65.2539C273.016 65.2539 271.727 64.7461 270.764 63.7305C269.8 62.7148 269.318 61.377 269.318 59.7168ZM271.271 59.6582C271.271 60.9017 271.584 61.8815 272.209 62.5977C272.84 63.3138 273.687 63.6719 274.748 63.6719C275.842 63.6719 276.675 63.3236 277.248 62.627C277.821 61.9238 278.107 60.918 278.107 59.6094C278.107 58.2943 277.821 57.2852 277.248 56.582C276.675 55.8789 275.842 55.5273 274.748 55.5273C273.674 55.5273 272.824 55.8952 272.199 56.6309C271.581 57.3665 271.271 58.3757 271.271 59.6582ZM292.131 64.0918C292.131 68.0892 290.191 70.0879 286.311 70.0879C284.969 70.0879 283.804 69.8372 282.814 69.3359V67.4902C284.019 68.1608 285.174 68.4961 286.281 68.4961C288.905 68.4961 290.217 67.1159 290.217 64.3555V63.2129H290.178C289.357 64.5736 288.133 65.2539 286.506 65.2539C285.152 65.2539 284.068 64.7689 283.254 63.7988C282.44 62.8288 282.033 61.543 282.033 59.9414C282.033 58.099 282.482 56.6406 283.381 55.5664C284.279 54.4857 285.477 53.9453 286.975 53.9453C288.413 53.9453 289.481 54.5182 290.178 55.6641H290.217V54.1992H292.131V64.0918ZM290.217 58.5742C290.223 57.7409 289.943 57.0247 289.377 56.4258C288.811 55.8268 288.114 55.5273 287.287 55.5273C286.245 55.5273 285.435 55.9115 284.855 56.6797C284.276 57.4414 283.986 58.4896 283.986 59.8242C283.986 60.9701 284.266 61.8978 284.826 62.6074C285.386 63.3171 286.128 63.6719 287.053 63.6719C287.984 63.6719 288.745 63.3333 289.338 62.6562C289.93 61.9792 290.223 61.1198 290.217 60.0781V58.5742ZM294.826 59.7168C294.826 57.9329 295.324 56.5267 296.32 55.498C297.316 54.4629 298.667 53.9453 300.373 53.9453C301.994 53.9453 303.264 54.4434 304.182 55.4395C305.106 56.429 305.568 57.7995 305.568 59.5508C305.568 61.2565 305.077 62.6335 304.094 63.6816C303.111 64.7298 301.792 65.2539 300.139 65.2539C298.524 65.2539 297.235 64.7461 296.271 63.7305C295.308 62.7148 294.826 61.377 294.826 59.7168ZM296.779 59.6582C296.779 60.9017 297.092 61.8815 297.717 62.5977C298.348 63.3138 299.195 63.6719 300.256 63.6719C301.35 63.6719 302.183 63.3236 302.756 62.627C303.329 61.9238 303.615 60.918 303.615 59.6094C303.615 58.2943 303.329 57.2852 302.756 56.582C302.183 55.8789 301.35 55.5273 300.256 55.5273C299.182 55.5273 298.332 55.8952 297.707 56.6309C297.089 57.3665 296.779 58.3757 296.779 59.6582Z" fill="white"/>
<path d="M345.266 54.7422H349.766C349.88 54.1484 349.974 53.5859 350.047 53.0547H343.438V51.9609H348.203C347.776 51.2943 347.359 50.7161 346.953 50.2266L347.906 49.5859C348.583 50.3151 349.099 50.9349 349.453 51.4453L348.742 51.9609H352.43C352.898 51.2734 353.396 50.487 353.922 49.6016L355.141 50.2734C354.714 50.8359 354.271 51.3984 353.812 51.9609H358.625V53.0547H351.359C351.234 53.5911 351.099 54.1536 350.953 54.7422H356.844V65.0859H355.656V64.1484H346.453V65.0859H345.266V54.7422ZM346.453 63.0859H355.656V61.3359H346.453V63.0859ZM355.656 55.8047H346.453V57.5391H355.656V55.8047ZM346.453 60.3047H355.656V58.5703H346.453V60.3047ZM361.312 53.7422H365.75C365.885 53.2005 366.042 52.5026 366.219 51.6484H359.547V50.4922H374.516V51.6484H367.609C367.391 52.4609 367.182 53.1589 366.984 53.7422H372.875V61.1797H371.609V54.8984H362.578V61.2422H361.312V53.7422ZM359.25 64.0078C361.906 63.4245 363.734 62.7057 364.734 61.8516C365.88 60.9141 366.453 59.4661 366.453 57.5078V55.7578H367.719V57.5703C367.719 58.6224 367.583 59.5547 367.312 60.3672C369.938 61.513 372.328 62.6953 374.484 63.9141L373.688 65.0859C371.688 63.8568 369.406 62.638 366.844 61.4297C366.479 62.0651 366.005 62.6016 365.422 63.0391C364.203 63.9661 362.417 64.7005 360.062 65.2422C359.875 64.8984 359.604 64.487 359.25 64.0078Z" fill="white"/>
<path d="M407.312 60.7266H414.391V58.9609H410.062V59.6953H408.875V52.1172H412.117C411.617 51.5339 411.078 50.9349 410.5 50.3203L411.391 49.5859C412.161 50.3255 412.839 51.0078 413.422 51.6328L412.844 52.1172H416.508C417.081 51.3568 417.661 50.5286 418.25 49.6328L419.5 50.3047C418.964 50.9557 418.445 51.5599 417.945 52.1172H421.141V59.6953H419.953V58.9609H415.609V60.7266H422.688V61.8516H415.609V65.1484H414.391V61.8516H407.312V60.7266ZM415.609 57.8672H419.953V56.0547H415.609V57.8672ZM410.062 57.8672H414.391V56.0547H410.062V57.8672ZM419.953 53.2109H415.609V54.9922H419.953V53.2109ZM410.062 54.9922H414.391V53.2109H410.062V54.9922ZM428.797 56.7266H434.625V61.9141H429.922V62.8828H428.797V56.7266ZM427.797 53.7109H435.828V54.8672H427.797V53.7109ZM428.312 51.7266V50.5703H437.891V63.0859C437.891 64.2943 437.349 64.9036 436.266 64.9141C435.339 64.9141 434.406 64.9089 433.469 64.8984C433.438 64.5547 433.354 64.138 433.219 63.6484C434.229 63.7214 435.12 63.7578 435.891 63.7578C436.411 63.7578 436.672 63.4609 436.672 62.8672V51.7266H428.312ZM428.016 61.4453C428.047 61.987 428.083 62.4349 428.125 62.7891C426.802 63.6432 425.833 64.3359 425.219 64.8672L424.484 63.8203C424.839 63.5391 425.016 63.0703 425.016 62.4141V56.2734H423.25V55.1484H426.219V62.6953C426.948 62.2057 427.547 61.7891 428.016 61.4453ZM424.844 50.0078C425.979 51.1745 426.802 52.0391 427.312 52.6016L426.219 53.5234C425.562 52.6589 424.786 51.763 423.891 50.8359L424.844 50.0078ZM433.5 60.8203V57.8203H429.922V60.8203H433.5ZM439.766 51.3516H446.438V49.6797H447.547V51.3516H454.312V52.3984H448.523C450.169 53.6536 452.25 54.6016 454.766 55.2422C454.495 55.6484 454.255 56.0182 454.047 56.3516C453.484 56.1589 452.943 55.9505 452.422 55.7266V62.5078H451.234V61.8047H442.812V62.5234H441.625V55.8047C441.094 56.0495 440.536 56.2839 439.953 56.5078C439.734 56.1849 439.49 55.8516 439.219 55.5078C441.906 54.6589 443.966 53.6224 445.398 52.3984H439.766V51.3516ZM439.391 63.3516H454.609V64.4766H439.391V63.3516ZM446.438 55.3359V52.6562C445.24 53.8125 443.693 54.8359 441.797 55.7266H452.414C450.492 54.9089 448.87 53.8958 447.547 52.6875V55.3359H446.438ZM442.812 60.7266H451.234V59.2891H442.812V60.7266ZM451.234 56.8047H442.812V58.2266H451.234V56.8047ZM460.953 54.6172H466.672V61.7422H462.078V62.6641H460.953V54.6172ZM459 54.8047C460.292 53.3047 461.37 51.5651 462.234 49.5859L463.422 50.0391C463.146 50.6016 462.867 51.138 462.586 51.6484H470.203C470.078 56.4089 469.974 59.8568 469.891 61.9922C469.807 63.8672 468.995 64.8047 467.453 64.8047C466.505 64.8047 465.656 64.7786 464.906 64.7266C464.844 64.3099 464.755 63.8516 464.641 63.3516C465.568 63.4974 466.406 63.5703 467.156 63.5703C468.094 63.5703 468.599 62.9661 468.672 61.7578C468.776 59.4141 468.865 56.4193 468.938 52.7734H461.938C461.318 53.7943 460.677 54.7057 460.016 55.5078C459.766 55.2995 459.427 55.0651 459 54.8047ZM460.078 61.3828C460.109 61.9245 460.146 62.3724 460.188 62.7266C458.865 63.5911 457.896 64.2839 457.281 64.8047L456.547 63.7578C456.901 63.4557 457.078 63.0078 457.078 62.4141V56.2109H455.25V55.0859H458.281V62.6328C458.875 62.237 459.474 61.8203 460.078 61.3828ZM465.547 60.6797V58.6641H462.078V60.6797H465.547ZM465.547 55.6797H462.078V57.6328H465.547V55.6797ZM456.812 49.9766C457.948 51.1432 458.771 52.0078 459.281 52.5703L458.219 53.4609C457.562 52.5964 456.786 51.7005 455.891 50.7734L456.812 49.9766Z" fill="white"/>
<path d="M504.078 50.3203H517.859V65.0234H516.688V64.2734H505.25V65.0234H504.078V50.3203ZM516.688 51.4453H505.25V63.1484H516.688V51.4453ZM505.781 55.2734C507.208 54.2422 508.38 53.0286 509.297 51.6328L510.328 52.1172C510.135 52.4036 509.927 52.6849 509.703 52.9609H515.234V53.8828C514.469 54.8099 513.492 55.6458 512.305 56.3906C513.404 56.7604 514.75 57.0495 516.344 57.2578C516.104 57.7266 515.932 58.1172 515.828 58.4297C513.979 58.0078 512.417 57.5312 511.141 57C509.865 57.5729 508.172 58.1328 506.062 58.6797C505.917 58.3359 505.74 58.0026 505.531 57.6797C507.359 57.3047 508.87 56.875 510.062 56.3906C509.328 55.8854 508.695 55.3047 508.164 54.6484C507.669 55.1224 507.13 55.5859 506.547 56.0391C506.339 55.8203 506.083 55.5651 505.781 55.2734ZM506.906 61.3203L507.234 60.2422C509.839 60.5859 512.344 60.987 514.75 61.4453L514.328 62.6328C512.026 62.1224 509.552 61.6849 506.906 61.3203ZM513.688 53.9297H508.867C508.852 53.9505 508.836 53.9688 508.82 53.9844C509.424 54.7604 510.188 55.3984 511.109 55.8984C512.188 55.3203 513.047 54.6641 513.688 53.9297ZM508.547 59.2422L508.859 58.1953C510.391 58.4245 512 58.6849 513.688 58.9766L513.359 60.0703C511.651 59.7266 510.047 59.4505 508.547 59.2422ZM519.438 56.9609H525.312V53.6328H520.453V52.4766H525.312V49.7891H526.609V52.4766H532L531.711 56.9609H533.859C533.839 58.1172 533.802 59.3099 533.75 60.5391C533.688 62.2578 532.875 63.1068 531.312 63.0859C530.5 63.0964 529.625 63.0599 528.688 62.9766C528.635 62.4974 528.557 62.0391 528.453 61.6016C529.411 61.7786 530.312 61.8672 531.156 61.8672C532.021 61.888 532.474 61.4141 532.516 60.4453C532.547 59.7057 532.568 58.9297 532.578 58.1172H526.609V65.0234H525.312V58.1172H519.438V56.9609ZM530.672 53.6328H526.609V56.9609H530.453L530.672 53.6328ZM530.281 50.6953L531.047 49.8203C532.151 50.5599 533.141 51.2578 534.016 51.9141L533.188 52.8984C532.375 52.2109 531.406 51.4766 530.281 50.6953ZM537.906 58.1172L538.672 57.2422C539.464 57.8932 540.185 58.5312 540.836 59.1562C541.534 57.9479 542.026 56.638 542.312 55.2266H538.797C537.979 57.1016 536.974 58.7891 535.781 60.2891C535.552 59.7578 535.344 59.3411 535.156 59.0391C536.729 56.9245 537.94 54.4505 538.789 51.6172H535.672V50.4922H544.438V51.6172H540.078C539.833 52.4766 539.56 53.3047 539.258 54.1016H543.594V55.2422C542.74 59.513 540.495 62.8099 536.859 65.1328C536.589 64.8203 536.266 64.5026 535.891 64.1797C537.672 63.0286 539.099 61.6979 540.172 60.1875C539.578 59.6042 538.823 58.9141 537.906 58.1172ZM548.547 49.9297H549.797V62.8359C549.797 64.1589 549.198 64.8255 548 64.8359C547.427 64.8464 546.578 64.8411 545.453 64.8203C545.401 64.3411 545.318 63.8724 545.203 63.4141C546.276 63.5078 547.068 63.5547 547.578 63.5547C548.224 63.5547 548.547 63.2057 548.547 62.5078V49.9297ZM546.297 61.2266H545.094V51.6641H546.297V61.2266ZM564.797 58.2734L565.656 59.3516L562.164 61.1016C563.388 62.1016 564.922 62.763 566.766 63.0859C566.411 63.5443 566.12 63.9609 565.891 64.3359C562.531 63.5339 560.122 61.4688 558.664 58.1406C558.133 58.8177 557.526 59.4609 556.844 60.0703V63.4141C558.219 62.9661 559.495 62.4974 560.672 62.0078C560.661 62.4661 560.667 62.9193 560.688 63.3672C559.438 63.7943 558.146 64.263 556.812 64.7734C556.531 64.888 556.255 65.0234 555.984 65.1797L555.25 64.0391C555.542 63.8307 555.688 63.5391 555.688 63.1641V61.0156C554.609 61.8229 553.385 62.5547 552.016 63.2109C551.786 62.8464 551.521 62.487 551.219 62.1328C553.911 61.0286 556.026 59.5495 557.562 57.6953H551.391V56.6172H558.391V55.0234H552.5V53.9453H558.391V52.4141H551.875V51.3359H558.391V49.5859H559.625V51.3359H566.172V52.4141H559.625V53.9453H565.5V55.0234H559.625V56.6172H566.609V57.6953H559.664C560.102 58.7109 560.664 59.5911 561.352 60.3359C562.398 59.8151 563.547 59.1276 564.797 58.2734Z" fill="white"/>
<path d="M606.281 55.4297H607.703V65.1016H606.281V55.4297ZM608 50.0547L607.766 50.4141C609.453 53.1953 611.797 55.1849 614.797 56.3828C614.474 56.8932 614.198 57.362 613.969 57.7891C610.906 56.1849 608.589 54.1172 607.016 51.5859C605.474 53.9922 603.135 56.1328 600 58.0078C599.771 57.6328 599.505 57.2214 599.203 56.7734C602.453 54.9714 604.87 52.7318 606.453 50.0547H608ZM615.25 63.7578C619.792 61.1328 622.193 56.5286 622.453 49.9453H623.828C623.771 51.0599 623.661 52.1224 623.5 53.1328C624.792 58.3411 627.219 61.7682 630.781 63.4141C630.344 63.8932 629.958 64.3464 629.625 64.7734C626.531 63.0234 624.326 59.9271 623.008 55.4844C621.867 59.776 619.609 62.9297 616.234 64.9453C615.953 64.5599 615.625 64.1641 615.25 63.7578ZM632.312 53.0703H638.328V49.6641H639.672V53.0703H645.75V60.1953H644.469V59.3516H639.672V65.1641H638.328V59.3516H633.594V60.1953H632.312V53.0703ZM644.469 54.2266H639.672V58.1953H644.469V54.2266ZM633.594 58.1953H638.328V54.2266H633.594V58.1953ZM651.266 52.7109H652.562V61.8672C652.562 62.8151 652.984 63.2891 653.828 63.2891H657.188C658.083 63.2891 658.589 62.9141 658.703 62.1641C658.818 61.5078 658.917 60.7214 659 59.8047C659.438 59.9818 659.885 60.1484 660.344 60.3047C660.188 61.3984 660.042 62.2161 659.906 62.7578C659.625 63.9245 658.802 64.5078 657.438 64.5078H653.516C652.016 64.5078 651.266 63.7266 651.266 62.1641V52.7109ZM660.078 53.8984C660.964 55.5755 661.885 57.4818 662.844 59.6172L661.547 60.2578C660.745 58.237 659.865 56.2995 658.906 54.4453L660.078 53.8984ZM648.969 54.3828L650.219 54.7266C649.74 56.9453 649.167 59.1016 648.5 61.1953L647.25 60.7109C647.938 58.7526 648.51 56.6432 648.969 54.3828ZM654.703 49.5703C655.693 51.2161 656.531 52.7005 657.219 54.0234C656.729 54.2734 656.312 54.4974 655.969 54.6953C655.24 53.0807 654.453 51.5599 653.609 50.1328L654.703 49.5703Z" fill="white"/>
<g clip-path="url(#clip0)">
<path d="M545.047 271.281L544.062 272.656C538.177 269.698 534.078 265.557 531.766 260.234L533.25 259.531C533.781 260.833 534.464 262.073 535.297 263.25C536.693 261.99 537.833 260.76 538.719 259.562L540.188 260.438C538.875 261.979 537.531 263.333 536.156 264.5C536.812 265.396 537.516 266.161 538.266 266.797C539.484 265.88 540.797 264.536 542.203 262.766L543.578 263.656C542.255 265.188 540.891 266.568 539.484 267.797C540.724 268.88 542.578 270.042 545.047 271.281ZM530.141 261.906C527.307 266.583 523.318 270.167 518.172 272.656L517.047 271.281C519.13 270.365 521.146 269.193 523.094 267.766C522.177 266.818 520.984 265.844 519.516 264.844L520.609 263.625C522.026 264.656 523.271 265.682 524.344 266.703C525.75 265.443 527.062 263.865 528.281 261.969H520.031V260.375H530.141V261.906ZM536.953 270.219H525.109V268.656H536.953V270.219ZM544.156 286.922H517.75V285.359H526.781C526.25 283.88 525.568 282.536 524.734 281.328L525.891 280.375H523.203V273.234H538.75V280.375H535.969L537.078 281.203C536.807 282.026 536.182 283.411 535.203 285.359H544.156V286.922ZM537.078 278.703V274.766H524.891V278.703H537.078ZM535.547 280.375H526.266C527.078 281.885 527.849 283.547 528.578 285.359H533.281C534.042 284.089 534.797 282.427 535.547 280.375ZM576.953 286.281L575.875 287.766C569.771 282.859 565.651 276.531 563.516 268.781C560.776 276.833 556.339 283.031 550.203 287.375L548.922 286.062C551.016 284.635 552.88 283.01 554.516 281.188C556.161 279.365 557.562 277.432 558.719 275.391C559.875 273.349 560.839 271.156 561.609 268.812C562.391 266.458 562.781 265.042 562.781 264.562L562.594 262.094H559.609V260.375H564.281C564.354 270.865 568.578 279.5 576.953 286.281ZM608.031 284.594C608.031 286.49 607.125 287.438 605.312 287.438C603.115 287.438 601.672 287.427 600.984 287.406L600.312 285.719C601.896 285.802 603.453 285.844 604.984 285.844C605.901 285.844 606.359 285.365 606.359 284.406V259.5H608.031V284.594ZM598.109 272.078L596.703 272.969C596.089 271.667 595.51 270.594 594.969 269.75C593.635 269.979 592.177 270.214 590.594 270.453V275.469H596.797V277.109H590.594V283.656C593.083 283.302 595.448 282.88 597.688 282.391V284.047C592.208 285.182 586.693 286.057 581.141 286.672L580.766 285.047C584.38 284.599 587.109 284.245 588.953 283.984V277.109H581.656V275.469H588.953V270.672C586.37 270.995 583.969 271.208 581.75 271.312L581.469 269.938C584.188 267.833 586.255 265.208 587.672 262.062H581.25V260.375H597.656V262.062H589.688C588.219 264.875 586.505 267.349 584.547 269.484C588.672 269.12 591.849 268.703 594.078 268.234C593.505 267.349 592.781 266.318 591.906 265.141L593.344 264.297C595.49 267.151 597.078 269.745 598.109 272.078ZM601.625 281.578H599.938V261.75H601.625V281.578ZM634.219 264.234H624.703V272.766H633.516V275.203H624.703V286H622.047V261.797H634.219V264.234ZM638.141 262.5C638.141 262.01 638.302 261.599 638.625 261.266C638.958 260.922 639.359 260.75 639.828 260.75C640.318 260.75 640.729 260.922 641.062 261.266C641.406 261.609 641.578 262.021 641.578 262.5C641.578 262.958 641.406 263.359 641.062 263.703C640.729 264.047 640.318 264.219 639.828 264.219C639.339 264.219 638.932 264.052 638.609 263.719C638.297 263.385 638.141 262.979 638.141 262.5ZM638.5 286V268.719H641.094V286H638.5ZM661 286H658.391V276.125C658.391 272.396 657.026 270.531 654.297 270.531C652.87 270.531 651.698 271.068 650.781 272.141C649.865 273.203 649.406 274.536 649.406 276.141V286H646.797V268.719H649.406V271.609H649.484C650.776 269.411 652.667 268.312 655.156 268.312C657.052 268.312 658.5 268.922 659.5 270.141C660.5 271.359 661 273.125 661 275.438V286ZM680.875 284.641C680.875 290.974 677.875 294.141 671.875 294.141C669.75 294.141 667.88 293.729 666.266 292.906V290.25C668.214 291.333 670.078 291.875 671.859 291.875C676.141 291.875 678.281 289.578 678.281 284.984V283.062H678.219C676.865 285.292 674.875 286.406 672.25 286.406C670.083 286.406 668.349 285.63 667.047 284.078C665.745 282.526 665.094 280.474 665.094 277.922C665.094 274.974 665.807 272.635 667.234 270.906C668.661 269.177 670.583 268.312 673 268.312C675.344 268.312 677.083 269.255 678.219 271.141H678.281V268.719H680.875V284.641ZM678.281 275.594C678.281 274.188 677.797 272.995 676.828 272.016C675.859 271.026 674.693 270.531 673.328 270.531C671.599 270.531 670.234 271.167 669.234 272.438C668.245 273.708 667.75 275.474 667.75 277.734C667.75 279.693 668.229 281.26 669.188 282.438C670.146 283.604 671.391 284.188 672.922 284.188C674.474 284.188 675.755 283.63 676.766 282.516C677.776 281.391 678.281 279.958 678.281 278.219V275.594ZM700.328 278H688.078C688.13 279.99 688.656 281.516 689.656 282.578C690.656 283.641 692.026 284.172 693.766 284.172C695.714 284.172 697.51 283.521 699.156 282.219V284.719C697.646 285.844 695.646 286.406 693.156 286.406C690.75 286.406 688.849 285.62 687.453 284.047C686.068 282.474 685.375 280.26 685.375 277.406C685.375 274.781 686.125 272.609 687.625 270.891C689.135 269.172 691.021 268.312 693.281 268.312C695.5 268.312 697.229 269.042 698.469 270.5C699.708 271.958 700.328 273.99 700.328 276.594V278ZM697.641 275.703C697.63 274.078 697.24 272.818 696.469 271.922C695.698 271.016 694.62 270.562 693.234 270.562C691.974 270.562 690.865 271.016 689.906 271.922C688.958 272.828 688.359 274.089 688.109 275.703H697.641ZM713.453 271.391C712.974 271.026 712.281 270.844 711.375 270.844C710.156 270.844 709.151 271.427 708.359 272.594C707.578 273.75 707.188 275.271 707.188 277.156V286H704.578V268.719H707.188V272.297H707.266C707.661 271.068 708.266 270.115 709.078 269.438C709.891 268.76 710.786 268.422 711.766 268.422C712.505 268.422 713.068 268.5 713.453 268.656V271.391ZM738.688 286V269.656C738.688 268.417 738.771 266.859 738.938 264.984H738.859C738.568 266.13 738.328 266.891 738.141 267.266L729.703 286H728.516L720.094 267.391C719.875 266.901 719.641 266.099 719.391 264.984H719.312C719.406 265.839 719.453 267.38 719.453 269.609V286H716.859V261.797H720.328L727.906 278.844C728.5 280.188 728.875 281.141 729.031 281.703H729.141C729.453 280.859 729.844 279.88 730.312 278.766L738.062 261.797H741.344V286H738.688ZM761.172 278H748.922C748.974 279.99 749.5 281.516 750.5 282.578C751.5 283.641 752.87 284.172 754.609 284.172C756.557 284.172 758.354 283.521 760 282.219V284.719C758.49 285.844 756.49 286.406 754 286.406C751.594 286.406 749.693 285.62 748.297 284.047C746.911 282.474 746.219 280.26 746.219 277.406C746.219 274.781 746.969 272.609 748.469 270.891C749.979 269.172 751.865 268.312 754.125 268.312C756.344 268.312 758.073 269.042 759.312 270.5C760.552 271.958 761.172 273.99 761.172 276.594V278ZM758.484 275.703C758.474 274.078 758.083 272.818 757.312 271.922C756.542 271.016 755.464 270.562 754.078 270.562C752.818 270.562 751.708 271.016 750.75 271.922C749.802 272.828 749.203 274.089 748.953 275.703H758.484ZM789.781 286H787.172V276.078C787.172 274.068 786.865 272.641 786.25 271.797C785.646 270.953 784.641 270.531 783.234 270.531C782.057 270.531 781.042 271.083 780.188 272.188C779.333 273.292 778.906 274.604 778.906 276.125V286H776.312V275.719C776.312 272.26 774.974 270.531 772.297 270.531C771.068 270.531 770.047 271.057 769.234 272.109C768.432 273.161 768.031 274.5 768.031 276.125V286H765.422V268.719H768.031V271.453H768.109C769.318 269.359 771.099 268.312 773.453 268.312C774.578 268.312 775.589 268.646 776.484 269.312C777.391 269.969 778.005 270.839 778.328 271.922C779.609 269.516 781.526 268.312 784.078 268.312C787.88 268.312 789.781 270.661 789.781 275.359V286ZM793.906 277.578C793.906 274.703 794.688 272.443 796.25 270.797C797.823 269.141 799.958 268.312 802.656 268.312C805.198 268.312 807.188 269.109 808.625 270.703C810.073 272.297 810.797 274.5 810.797 277.312C810.797 280.042 810.016 282.24 808.453 283.906C806.891 285.573 804.823 286.406 802.25 286.406C799.76 286.406 797.745 285.604 796.203 284C794.672 282.396 793.906 280.255 793.906 277.578ZM796.562 277.469C796.562 279.51 797.094 281.141 798.156 282.359C799.229 283.578 800.656 284.188 802.438 284.188C804.25 284.188 805.651 283.594 806.641 282.406C807.641 281.219 808.141 279.552 808.141 277.406C808.141 275.208 807.646 273.516 806.656 272.328C805.677 271.13 804.271 270.531 802.438 270.531C800.646 270.531 799.219 271.151 798.156 272.391C797.094 273.62 796.562 275.312 796.562 277.469ZM824.141 271.391C823.661 271.026 822.969 270.844 822.062 270.844C820.844 270.844 819.839 271.427 819.047 272.594C818.266 273.75 817.875 275.271 817.875 277.156V286H815.266V268.719H817.875V272.297H817.953C818.349 271.068 818.953 270.115 819.766 269.438C820.578 268.76 821.474 268.422 822.453 268.422C823.193 268.422 823.755 268.5 824.141 268.656V271.391ZM840.75 268.719L832.75 288.859C831.354 292.38 829.396 294.141 826.875 294.141C826.24 294.141 825.672 294.073 825.172 293.938V291.562C825.755 291.75 826.286 291.844 826.766 291.844C828.172 291.844 829.224 291 829.922 289.312L831.328 285.969L824.594 268.719H827.484L832.25 282.203C832.312 282.391 832.432 282.802 832.609 283.438H832.703C832.745 283.219 832.854 282.818 833.031 282.234L838.047 268.719H840.75ZM852.578 277.391H843.375V275.312H852.578V277.391ZM886.438 261.797L879.578 286H876.438L871.391 268.172C871.172 267.391 871.042 266.573 871 265.719H870.938C870.875 266.552 870.729 267.359 870.5 268.141L865.422 286H862.344L855.203 261.797H858.141L863.391 280.516C863.62 281.339 863.755 282.146 863.797 282.938H863.891C863.943 282.354 864.115 281.547 864.406 280.516L869.812 261.797H872.328L877.547 280.656C877.714 281.24 877.849 281.99 877.953 282.906H878.016C878.057 282.26 878.214 281.49 878.484 280.594L883.516 261.797H886.438ZM903.484 278H891.234C891.286 279.99 891.812 281.516 892.812 282.578C893.812 283.641 895.182 284.172 896.922 284.172C898.87 284.172 900.667 283.521 902.312 282.219V284.719C900.802 285.844 898.802 286.406 896.312 286.406C893.906 286.406 892.005 285.62 890.609 284.047C889.224 282.474 888.531 280.26 888.531 277.406C888.531 274.781 889.281 272.609 890.781 270.891C892.292 269.172 894.177 268.312 896.438 268.312C898.656 268.312 900.385 269.042 901.625 270.5C902.865 271.958 903.484 273.99 903.484 276.594V278ZM900.797 275.703C900.786 274.078 900.396 272.818 899.625 271.922C898.854 271.016 897.776 270.562 896.391 270.562C895.13 270.562 894.021 271.016 893.062 271.922C892.115 272.828 891.516 274.089 891.266 275.703H900.797ZM910.344 283.469V286H907.734V260.422H910.344V271.781H910.422C911.786 269.469 913.781 268.312 916.406 268.312C918.604 268.312 920.339 269.089 921.609 270.641C922.88 272.193 923.516 274.266 923.516 276.859C923.516 279.734 922.802 282.047 921.375 283.797C919.958 285.536 918.036 286.406 915.609 286.406C913.328 286.406 911.599 285.427 910.422 283.469H910.344ZM910.344 278.984C910.344 280.453 910.828 281.688 911.797 282.688C912.776 283.688 913.969 284.188 915.375 284.188C917.073 284.188 918.406 283.531 919.375 282.219C920.354 280.906 920.844 279.094 920.844 276.781C920.844 274.854 920.391 273.333 919.484 272.219C918.578 271.094 917.354 270.531 915.812 270.531C914.219 270.531 912.906 271.099 911.875 272.234C910.854 273.359 910.344 274.786 910.344 276.516V278.984Z" fill="#212529"/>
</g>
<path d="M298.273 327.664C298.273 328.096 298.117 328.398 297.805 328.57C297.497 328.742 296.802 328.828 295.719 328.828C295.474 328.828 295.237 328.823 295.008 328.812L294.75 327.938C295.146 327.969 295.531 327.984 295.906 327.984C296.667 327.984 297.109 327.953 297.234 327.891C297.359 327.828 297.422 327.727 297.422 327.586V323.727H292.898V328.414H292.031V323.727H287.469C287.214 325.919 286.664 327.599 285.82 328.766L285.07 328.242C286.148 326.648 286.688 324.727 286.688 322.477V315.133H298.273V327.664ZM297.422 318.914V316H292.898V318.914H297.422ZM292.031 318.914V316H287.555V318.914H292.031ZM297.422 322.898V319.789H292.898V322.898H297.422ZM292.031 322.898V319.789H287.555V322.898H292.031ZM313.906 321.422H303.422C303.401 324.75 302.768 327.208 301.523 328.797L300.883 328.32C302.023 326.701 302.594 324.339 302.594 321.234V316.672H307.922C307.635 316.094 307.32 315.534 306.977 314.992L307.805 314.734C308.122 315.229 308.471 315.875 308.852 316.672H313.906V321.422ZM313.07 320.578V317.508H303.422V320.578H313.07ZM329.984 328.812H329.133V327.773H321.57V328.828H320.688V323.281C319.448 323.734 318.43 324.076 317.633 324.305L317.148 323.523C319.654 322.846 321.789 322.029 323.555 321.07C322.914 320.148 322.029 319.206 320.898 318.242C320.091 318.768 319.19 319.284 318.195 319.789L317.508 319.102C319.919 318.065 321.94 316.604 323.57 314.719L324.398 315.102C324.169 315.383 323.878 315.693 323.523 316.031H329.742V316.734C328.008 319.068 325.667 320.966 322.719 322.43H329.984V328.812ZM328.492 316.898H322.656C322.297 317.206 321.94 317.492 321.586 317.758C322.628 318.685 323.534 319.635 324.305 320.609C325.992 319.536 327.388 318.299 328.492 316.898ZM329.133 326.945V323.281H321.57V326.945H329.133ZM346.945 325.469C346.883 325.958 346.737 326.568 346.508 327.297C346.279 328.021 346.055 328.453 345.836 328.594C345.617 328.74 345.404 328.812 345.195 328.812C344.716 328.812 344.193 328.495 343.625 327.859C343.057 327.219 342.654 326.594 342.414 325.984C341.456 327.005 340.422 327.891 339.312 328.641L338.734 328.016C340.135 327.062 341.255 326.076 342.094 325.055C341.516 322.487 341.219 320.049 341.203 317.742H333.188V316.961H341.148C341.117 316.414 341.102 315.711 341.102 314.852H341.922C341.922 315.82 341.938 316.523 341.969 316.961H346.766V317.742H342.031C342.13 320.164 342.375 322.297 342.766 324.141C343.599 322.943 344.357 321.339 345.039 319.328L345.805 319.602C345.138 321.711 344.221 323.583 343.055 325.219C343.305 326 343.661 326.656 344.125 327.188C344.589 327.719 344.932 327.984 345.156 327.984C345.245 327.984 345.331 327.94 345.414 327.852C345.497 327.763 345.622 327.438 345.789 326.875C345.961 326.312 346.102 325.669 346.211 324.945L346.945 325.469ZM345.805 316.195L345.148 316.719C344.638 316.193 344.154 315.799 343.695 315.539L344.273 314.961C344.763 315.253 345.273 315.664 345.805 316.195ZM339.508 324.016H334.156V319.648H339.508V324.016ZM338.672 323.203V320.461H335.008V323.203H338.672ZM340.32 325.875C338.164 326.438 335.797 326.948 333.219 327.406L333.023 326.594C335.56 326.161 337.966 325.648 340.242 325.055L340.32 325.875ZM356.719 328.336H355.938V327.508H350.367V328.336H349.586V317.312H352.75V314.75H353.57V317.312H356.719V328.336ZM355.938 321.742V318.094H353.57V321.742H355.938ZM352.75 321.742V318.094H350.367V321.742H352.75ZM355.938 326.719V322.531H353.57V326.719H355.938ZM352.75 326.719V322.531H350.367V326.719H352.75ZM360.852 320.477C362.169 321.581 362.828 322.977 362.828 324.664C362.828 325.451 362.643 326.039 362.273 326.43C361.909 326.815 361.266 327.008 360.344 327.008C360.177 327.008 359.977 327.003 359.742 326.992L359.438 326.156C359.88 326.188 360.271 326.203 360.609 326.203C361.146 326.203 361.523 326.104 361.742 325.906C361.966 325.703 362.078 325.276 362.078 324.625C362.078 323.026 361.359 321.693 359.922 320.625C360.646 319.13 361.279 317.573 361.82 315.953H358.852V328.781H358.031V315.172H362.656V315.953C362.172 317.349 361.57 318.857 360.852 320.477ZM378.75 316.961H373.555C372.919 317.727 372.336 318.339 371.805 318.797L371.133 318.32C372.56 317.023 373.51 315.823 373.984 314.719L374.766 315.008C374.474 315.576 374.255 315.977 374.109 316.211H378.75V316.961ZM371.727 316.961H367.188C366.76 317.529 366.247 318.13 365.648 318.766L364.977 318.289C366.164 317.086 366.99 315.901 367.453 314.734L368.227 314.992C368.091 315.414 367.893 315.82 367.633 316.211H371.727V316.961ZM376.562 318.594L375.844 318.977C375.594 318.451 375.284 317.971 374.914 317.539L375.633 317.188C375.909 317.542 376.219 318.01 376.562 318.594ZM370.242 318.672L369.469 319.023C369.245 318.534 368.943 318.06 368.562 317.602L369.234 317.234C369.615 317.594 369.951 318.073 370.242 318.672ZM371.805 325.133L371.297 325.789C370.599 324.779 369.841 323.872 369.023 323.07V328.812H368.227V323.234C367.487 324.703 366.622 325.961 365.633 327.008L365.07 326.398C366.31 325.112 367.352 323.487 368.195 321.523H365.328V320.766H368.227V319.039H369.023V320.766H371.664V321.523H369.023V322.094C370.206 323.151 371.133 324.164 371.805 325.133ZM378.352 328.797H377.523V327.789H373.234V328.797H372.398V319.539H378.352V328.797ZM377.523 321.953V320.32H373.234V321.953H377.523ZM377.523 324.477V322.734H373.234V324.477H377.523ZM377.523 327.039V325.25H373.234V327.039H377.523ZM395.055 325.758C395.003 326.826 394.844 327.549 394.578 327.93C394.312 328.31 394.052 328.518 393.797 328.555C393.547 328.596 392.701 328.617 391.258 328.617C389.299 328.617 388.141 328.602 387.781 328.57C387.422 328.539 387.156 328.406 386.984 328.172C386.818 327.938 386.734 327.661 386.734 327.344V320.828L385.312 321.312L385.188 320.492L386.734 319.969V316.641H387.523V319.711L390.047 318.852V314.867H390.867V318.562L394.352 317.359C394.326 319.464 394.044 321.714 393.508 324.109L392.703 323.875C393.151 321.943 393.419 320.148 393.508 318.492L390.867 319.391V325.633H390.047V319.68L387.523 320.562V327.391C387.523 327.438 387.557 327.5 387.625 327.578C387.693 327.651 387.753 327.701 387.805 327.727C387.857 327.747 388.174 327.768 388.758 327.789C389.341 327.805 389.932 327.812 390.531 327.812C392.344 327.812 393.393 327.763 393.68 327.664C393.966 327.565 394.159 326.846 394.258 325.508L395.055 325.758ZM385.859 325.57C384.224 326.424 382.714 327.091 381.328 327.57L381.102 326.766C381.753 326.552 382.419 326.286 383.102 325.969V319.648H381.266V318.828H383.102V315.023H383.938V318.828H385.68V319.648H383.938V325.617C384.828 325.174 385.424 324.87 385.727 324.703L385.859 325.57ZM402.656 320.031H400.43V325.359C401.107 325.083 401.828 324.737 402.594 324.32V325.266C401.224 326.042 399.443 326.789 397.25 327.508L397.023 326.656C397.982 326.375 398.841 326.065 399.602 325.727V320.031H397.438V319.203H399.602V314.812H400.43V319.203H402.656V320.031ZM411.102 328.414H401.391V327.602H403.523V316.992H404.32V327.602H406.898V314.828H407.711V319.805H410.703V320.641H407.711V327.602H411.102V328.414Z" fill="#212529"/>
<rect x="284.5" y="342.5" width="871" height="35" rx="3.5" fill="white"/>
<path d="M300.336 355.484L299.602 355.938C299.076 355.047 298.409 354.161 297.602 353.281L298.32 352.828C299.065 353.641 299.737 354.526 300.336 355.484ZM310.93 358.562H300.93V357.844H305.602V356.625H301.789V355.938H305.602V354.781H301.359V354.078H305.602V352.867H306.43V354.078H310.609V354.781H306.43V355.938H310.094V356.625H306.43V357.844H310.93V358.562ZM301.742 363.773C301.102 364.471 300.185 365.266 298.992 366.156L298.531 365.438C298.656 365.323 298.719 365.174 298.719 364.992V358.094H297.055V357.281H299.555V364.656C300.201 364.188 300.792 363.669 301.328 363.102L301.742 363.773ZM309.695 365.602C309.695 366.086 309.557 366.414 309.281 366.586C309.005 366.758 308.503 366.844 307.773 366.844C307.487 366.844 307.242 366.833 307.039 366.812L306.766 366.016C306.995 366.031 307.326 366.039 307.758 366.039C308.263 366.039 308.576 366.008 308.695 365.945C308.82 365.878 308.883 365.768 308.883 365.617V364.258H303.133V366.812H302.289V359.633H309.695V365.602ZM308.883 361.523V360.383H303.133V361.523H308.883ZM308.883 363.539V362.273H303.133V363.539H308.883ZM327.117 356.562L326.656 357.219C324.844 356.182 323.5 355.094 322.625 353.953C321.677 355.021 320.38 356.099 318.734 357.188L318.156 356.562C320.177 355.276 321.646 354.005 322.562 352.75L323.297 353.102C323.286 353.154 323.237 353.234 323.148 353.344C324.06 354.516 325.383 355.589 327.117 356.562ZM318.398 355.438H315.484C315.094 356.88 314.685 358.224 314.258 359.469H315.695V356.562H316.461V359.469H318.047V360.227H316.461V362.688C316.852 362.589 317.417 362.424 318.156 362.195L318.258 362.977C317.799 363.138 317.201 363.307 316.461 363.484V366.852H315.695V363.695C314.841 363.888 314.026 364.049 313.25 364.18L313.023 363.422C313.674 363.318 314.565 363.138 315.695 362.883V360.227H313.391V359.469C313.844 358.26 314.271 356.917 314.672 355.438H313.234V354.672H314.852C314.982 354.208 315.135 353.589 315.312 352.812L316.062 352.977C315.974 353.445 315.846 354.01 315.68 354.672H318.398V355.438ZM324.797 357.148H320.445V356.398H324.797V357.148ZM326.461 365.68C326.461 366.065 326.359 366.352 326.156 366.539C325.958 366.732 325.523 366.836 324.852 366.852H323.984L323.695 366.031C324.435 366.052 324.951 366.044 325.242 366.008C325.534 365.971 325.68 365.846 325.68 365.633V357.906H326.461V365.68ZM322.445 365.695C322.445 366.096 322.349 366.388 322.156 366.57C321.969 366.753 321.568 366.844 320.953 366.844C320.755 366.844 320.586 366.844 320.445 366.844L320.18 366.031C320.357 366.047 320.557 366.055 320.781 366.055C321.198 366.055 321.451 366.034 321.539 365.992C321.633 365.945 321.68 365.857 321.68 365.727V363.711H319.664V366.852H318.898V358.195H322.445V365.695ZM321.68 360.516V358.961H319.664V360.516H321.68ZM321.68 362.961V361.297H319.664V362.961H321.68ZM324.32 364.398H323.539V358.672H324.32V364.398ZM343.055 366.141L342.516 366.883C339.464 364.43 337.404 361.266 336.336 357.391C334.966 361.417 332.747 364.516 329.68 366.688L329.039 366.031C330.086 365.318 331.018 364.505 331.836 363.594C332.659 362.682 333.359 361.716 333.938 360.695C334.516 359.674 334.997 358.578 335.383 357.406C335.773 356.229 335.969 355.521 335.969 355.281L335.875 354.047H334.383V353.188H336.719C336.755 358.432 338.867 362.75 343.055 366.141ZM358.273 365.664C358.273 366.096 358.117 366.398 357.805 366.57C357.497 366.742 356.802 366.828 355.719 366.828C355.474 366.828 355.237 366.823 355.008 366.812L354.75 365.938C355.146 365.969 355.531 365.984 355.906 365.984C356.667 365.984 357.109 365.953 357.234 365.891C357.359 365.828 357.422 365.727 357.422 365.586V361.727H352.898V366.414H352.031V361.727H347.469C347.214 363.919 346.664 365.599 345.82 366.766L345.07 366.242C346.148 364.648 346.688 362.727 346.688 360.477V353.133H358.273V365.664ZM357.422 356.914V354H352.898V356.914H357.422ZM352.031 356.914V354H347.555V356.914H352.031ZM357.422 360.898V357.789H352.898V360.898H357.422ZM352.031 360.898V357.789H347.555V360.898H352.031ZM373.906 359.422H363.422C363.401 362.75 362.768 365.208 361.523 366.797L360.883 366.32C362.023 364.701 362.594 362.339 362.594 359.234V354.672H367.922C367.635 354.094 367.32 353.534 366.977 352.992L367.805 352.734C368.122 353.229 368.471 353.875 368.852 354.672H373.906V359.422ZM373.07 358.578V355.508H363.422V358.578H373.07ZM389.984 366.812H389.133V365.773H381.57V366.828H380.688V361.281C379.448 361.734 378.43 362.076 377.633 362.305L377.148 361.523C379.654 360.846 381.789 360.029 383.555 359.07C382.914 358.148 382.029 357.206 380.898 356.242C380.091 356.768 379.19 357.284 378.195 357.789L377.508 357.102C379.919 356.065 381.94 354.604 383.57 352.719L384.398 353.102C384.169 353.383 383.878 353.693 383.523 354.031H389.742V354.734C388.008 357.068 385.667 358.966 382.719 360.43H389.984V366.812ZM388.492 354.898H382.656C382.297 355.206 381.94 355.492 381.586 355.758C382.628 356.685 383.534 357.635 384.305 358.609C385.992 357.536 387.388 356.299 388.492 354.898ZM389.133 364.945V361.281H381.57V364.945H389.133ZM406.945 363.469C406.883 363.958 406.737 364.568 406.508 365.297C406.279 366.021 406.055 366.453 405.836 366.594C405.617 366.74 405.404 366.812 405.195 366.812C404.716 366.812 404.193 366.495 403.625 365.859C403.057 365.219 402.654 364.594 402.414 363.984C401.456 365.005 400.422 365.891 399.312 366.641L398.734 366.016C400.135 365.062 401.255 364.076 402.094 363.055C401.516 360.487 401.219 358.049 401.203 355.742H393.188V354.961H401.148C401.117 354.414 401.102 353.711 401.102 352.852H401.922C401.922 353.82 401.938 354.523 401.969 354.961H406.766V355.742H402.031C402.13 358.164 402.375 360.297 402.766 362.141C403.599 360.943 404.357 359.339 405.039 357.328L405.805 357.602C405.138 359.711 404.221 361.583 403.055 363.219C403.305 364 403.661 364.656 404.125 365.188C404.589 365.719 404.932 365.984 405.156 365.984C405.245 365.984 405.331 365.94 405.414 365.852C405.497 365.763 405.622 365.438 405.789 364.875C405.961 364.312 406.102 363.669 406.211 362.945L406.945 363.469ZM405.805 354.195L405.148 354.719C404.638 354.193 404.154 353.799 403.695 353.539L404.273 352.961C404.763 353.253 405.273 353.664 405.805 354.195ZM399.508 362.016H394.156V357.648H399.508V362.016ZM398.672 361.203V358.461H395.008V361.203H398.672ZM400.32 363.875C398.164 364.438 395.797 364.948 393.219 365.406L393.023 364.594C395.56 364.161 397.966 363.648 400.242 363.055L400.32 363.875ZM416.719 366.336H415.938V365.508H410.367V366.336H409.586V355.312H412.75V352.75H413.57V355.312H416.719V366.336ZM415.938 359.742V356.094H413.57V359.742H415.938ZM412.75 359.742V356.094H410.367V359.742H412.75ZM415.938 364.719V360.531H413.57V364.719H415.938ZM412.75 364.719V360.531H410.367V364.719H412.75ZM420.852 358.477C422.169 359.581 422.828 360.977 422.828 362.664C422.828 363.451 422.643 364.039 422.273 364.43C421.909 364.815 421.266 365.008 420.344 365.008C420.177 365.008 419.977 365.003 419.742 364.992L419.438 364.156C419.88 364.188 420.271 364.203 420.609 364.203C421.146 364.203 421.523 364.104 421.742 363.906C421.966 363.703 422.078 363.276 422.078 362.625C422.078 361.026 421.359 359.693 419.922 358.625C420.646 357.13 421.279 355.573 421.82 353.953H418.852V366.781H418.031V353.172H422.656V353.953C422.172 355.349 421.57 356.857 420.852 358.477ZM438.75 354.961H433.555C432.919 355.727 432.336 356.339 431.805 356.797L431.133 356.32C432.56 355.023 433.51 353.823 433.984 352.719L434.766 353.008C434.474 353.576 434.255 353.977 434.109 354.211H438.75V354.961ZM431.727 354.961H427.188C426.76 355.529 426.247 356.13 425.648 356.766L424.977 356.289C426.164 355.086 426.99 353.901 427.453 352.734L428.227 352.992C428.091 353.414 427.893 353.82 427.633 354.211H431.727V354.961ZM436.562 356.594L435.844 356.977C435.594 356.451 435.284 355.971 434.914 355.539L435.633 355.188C435.909 355.542 436.219 356.01 436.562 356.594ZM430.242 356.672L429.469 357.023C429.245 356.534 428.943 356.06 428.562 355.602L429.234 355.234C429.615 355.594 429.951 356.073 430.242 356.672ZM431.805 363.133L431.297 363.789C430.599 362.779 429.841 361.872 429.023 361.07V366.812H428.227V361.234C427.487 362.703 426.622 363.961 425.633 365.008L425.07 364.398C426.31 363.112 427.352 361.487 428.195 359.523H425.328V358.766H428.227V357.039H429.023V358.766H431.664V359.523H429.023V360.094C430.206 361.151 431.133 362.164 431.805 363.133ZM438.352 366.797H437.523V365.789H433.234V366.797H432.398V357.539H438.352V366.797ZM437.523 359.953V358.32H433.234V359.953H437.523ZM437.523 362.477V360.734H433.234V362.477H437.523ZM437.523 365.039V363.25H433.234V365.039H437.523Z" fill="#6C757D"/>
<rect x="284.5" y="342.5" width="871" height="35" rx="3.5" stroke="#CED4DA"/>
<path d="M298.383 403.25H297.57V400.852H286.562V403.25H285.742V400.047H291.742C291.654 399.708 291.495 399.336 291.266 398.93L292.016 398.672C292.234 399.083 292.427 399.542 292.594 400.047H298.383V403.25ZM293.25 403.312L292.594 403.742C292.12 402.997 291.612 402.346 291.07 401.789L291.773 401.359C292.268 401.854 292.76 402.505 293.25 403.312ZM295.969 402.516C294.479 404.25 292.581 405.701 290.273 406.867C290.273 407.003 290.349 407.099 290.5 407.156C290.651 407.208 291.273 407.234 292.367 407.234C293.503 407.234 294.229 407.19 294.547 407.102C294.865 407.008 295.06 406.396 295.133 405.266L295.906 405.664C295.875 406.336 295.76 406.854 295.562 407.219C295.365 407.578 295.122 407.802 294.836 407.891C294.549 407.974 293.958 408.016 293.062 408.016C291.51 408.016 290.57 407.987 290.242 407.93C289.914 407.867 289.661 407.646 289.484 407.266C288.12 407.88 286.794 408.419 285.508 408.883L285.117 408.211C286.732 407.648 288.161 407.065 289.406 406.461V401.922H290.242V406.031C292.305 404.984 294.016 403.646 295.375 402.016L295.969 402.516ZM288.852 403.133C287.841 404.383 286.789 405.424 285.695 406.258L285.117 405.664C286.096 404.956 287.117 403.958 288.18 402.672L288.852 403.133ZM298.945 406.547L298.336 407.102C297.701 406.164 296.852 405.182 295.789 404.156L296.398 403.648C297.539 404.763 298.388 405.729 298.945 406.547ZM297.328 412.828H296.492V412.414H286.719V409.133H287.555V411.648H291.508V408.445H292.336V411.648H296.492V409.133H297.328V412.828ZM314.766 405.055C314.703 406.742 314.615 408.247 314.5 409.57C314.391 410.893 314.271 411.703 314.141 412C314.016 412.292 313.828 412.503 313.578 412.633C313.328 412.768 312.664 412.836 311.586 412.836C311.31 412.836 311.052 412.828 310.812 412.812L310.461 411.984C312.148 412.01 313.034 411.987 313.117 411.914C313.206 411.836 313.289 411.76 313.367 411.688C313.451 411.609 313.547 410.904 313.656 409.57C313.766 408.232 313.839 406.995 313.875 405.859H307.148L307.789 400.672L308.625 400.828L308.109 405.055H312.258L312.883 400.031H307.008V399.234H313.789L313.117 405.055H314.766ZM306.383 400.398H304.289C303.987 401.82 303.596 403.138 303.117 404.352H305.953V411.953H305.148V411.055H303.297V412.242H302.477V405.695C302.102 406.383 301.794 406.88 301.555 407.188L301.023 406.516C302.227 404.688 303.026 402.648 303.422 400.398H301.328V399.617H306.383V400.398ZM305.148 410.273V405.117H303.297V410.273H305.148ZM312.828 409.023H306.578V408.242H312.828V409.023Z" fill="#212529"/>
<rect x="284.5" y="426.5" width="871" height="35" rx="3.5" fill="white"/>
<path d="M300.336 439.484L299.602 439.938C299.076 439.047 298.409 438.161 297.602 437.281L298.32 436.828C299.065 437.641 299.737 438.526 300.336 439.484ZM310.93 442.562H300.93V441.844H305.602V440.625H301.789V439.938H305.602V438.781H301.359V438.078H305.602V436.867H306.43V438.078H310.609V438.781H306.43V439.938H310.094V440.625H306.43V441.844H310.93V442.562ZM301.742 447.773C301.102 448.471 300.185 449.266 298.992 450.156L298.531 449.438C298.656 449.323 298.719 449.174 298.719 448.992V442.094H297.055V441.281H299.555V448.656C300.201 448.188 300.792 447.669 301.328 447.102L301.742 447.773ZM309.695 449.602C309.695 450.086 309.557 450.414 309.281 450.586C309.005 450.758 308.503 450.844 307.773 450.844C307.487 450.844 307.242 450.833 307.039 450.812L306.766 450.016C306.995 450.031 307.326 450.039 307.758 450.039C308.263 450.039 308.576 450.008 308.695 449.945C308.82 449.878 308.883 449.768 308.883 449.617V448.258H303.133V450.812H302.289V443.633H309.695V449.602ZM308.883 445.523V444.383H303.133V445.523H308.883ZM308.883 447.539V446.273H303.133V447.539H308.883ZM327.117 440.562L326.656 441.219C324.844 440.182 323.5 439.094 322.625 437.953C321.677 439.021 320.38 440.099 318.734 441.188L318.156 440.562C320.177 439.276 321.646 438.005 322.562 436.75L323.297 437.102C323.286 437.154 323.237 437.234 323.148 437.344C324.06 438.516 325.383 439.589 327.117 440.562ZM318.398 439.438H315.484C315.094 440.88 314.685 442.224 314.258 443.469H315.695V440.562H316.461V443.469H318.047V444.227H316.461V446.688C316.852 446.589 317.417 446.424 318.156 446.195L318.258 446.977C317.799 447.138 317.201 447.307 316.461 447.484V450.852H315.695V447.695C314.841 447.888 314.026 448.049 313.25 448.18L313.023 447.422C313.674 447.318 314.565 447.138 315.695 446.883V444.227H313.391V443.469C313.844 442.26 314.271 440.917 314.672 439.438H313.234V438.672H314.852C314.982 438.208 315.135 437.589 315.312 436.812L316.062 436.977C315.974 437.445 315.846 438.01 315.68 438.672H318.398V439.438ZM324.797 441.148H320.445V440.398H324.797V441.148ZM326.461 449.68C326.461 450.065 326.359 450.352 326.156 450.539C325.958 450.732 325.523 450.836 324.852 450.852H323.984L323.695 450.031C324.435 450.052 324.951 450.044 325.242 450.008C325.534 449.971 325.68 449.846 325.68 449.633V441.906H326.461V449.68ZM322.445 449.695C322.445 450.096 322.349 450.388 322.156 450.57C321.969 450.753 321.568 450.844 320.953 450.844C320.755 450.844 320.586 450.844 320.445 450.844L320.18 450.031C320.357 450.047 320.557 450.055 320.781 450.055C321.198 450.055 321.451 450.034 321.539 449.992C321.633 449.945 321.68 449.857 321.68 449.727V447.711H319.664V450.852H318.898V442.195H322.445V449.695ZM321.68 444.516V442.961H319.664V444.516H321.68ZM321.68 446.961V445.297H319.664V446.961H321.68ZM324.32 448.398H323.539V442.672H324.32V448.398ZM343.055 450.141L342.516 450.883C339.464 448.43 337.404 445.266 336.336 441.391C334.966 445.417 332.747 448.516 329.68 450.688L329.039 450.031C330.086 449.318 331.018 448.505 331.836 447.594C332.659 446.682 333.359 445.716 333.938 444.695C334.516 443.674 334.997 442.578 335.383 441.406C335.773 440.229 335.969 439.521 335.969 439.281L335.875 438.047H334.383V437.188H336.719C336.755 442.432 338.867 446.75 343.055 450.141ZM358.383 441.25H357.57V438.852H346.562V441.25H345.742V438.047H351.742C351.654 437.708 351.495 437.336 351.266 436.93L352.016 436.672C352.234 437.083 352.427 437.542 352.594 438.047H358.383V441.25ZM353.25 441.312L352.594 441.742C352.12 440.997 351.612 440.346 351.07 439.789L351.773 439.359C352.268 439.854 352.76 440.505 353.25 441.312ZM355.969 440.516C354.479 442.25 352.581 443.701 350.273 444.867C350.273 445.003 350.349 445.099 350.5 445.156C350.651 445.208 351.273 445.234 352.367 445.234C353.503 445.234 354.229 445.19 354.547 445.102C354.865 445.008 355.06 444.396 355.133 443.266L355.906 443.664C355.875 444.336 355.76 444.854 355.562 445.219C355.365 445.578 355.122 445.802 354.836 445.891C354.549 445.974 353.958 446.016 353.062 446.016C351.51 446.016 350.57 445.987 350.242 445.93C349.914 445.867 349.661 445.646 349.484 445.266C348.12 445.88 346.794 446.419 345.508 446.883L345.117 446.211C346.732 445.648 348.161 445.065 349.406 444.461V439.922H350.242V444.031C352.305 442.984 354.016 441.646 355.375 440.016L355.969 440.516ZM348.852 441.133C347.841 442.383 346.789 443.424 345.695 444.258L345.117 443.664C346.096 442.956 347.117 441.958 348.18 440.672L348.852 441.133ZM358.945 444.547L358.336 445.102C357.701 444.164 356.852 443.182 355.789 442.156L356.398 441.648C357.539 442.763 358.388 443.729 358.945 444.547ZM357.328 450.828H356.492V450.414H346.719V447.133H347.555V449.648H351.508V446.445H352.336V449.648H356.492V447.133H357.328V450.828ZM374.766 443.055C374.703 444.742 374.615 446.247 374.5 447.57C374.391 448.893 374.271 449.703 374.141 450C374.016 450.292 373.828 450.503 373.578 450.633C373.328 450.768 372.664 450.836 371.586 450.836C371.31 450.836 371.052 450.828 370.812 450.812L370.461 449.984C372.148 450.01 373.034 449.987 373.117 449.914C373.206 449.836 373.289 449.76 373.367 449.688C373.451 449.609 373.547 448.904 373.656 447.57C373.766 446.232 373.839 444.995 373.875 443.859H367.148L367.789 438.672L368.625 438.828L368.109 443.055H372.258L372.883 438.031H367.008V437.234H373.789L373.117 443.055H374.766ZM366.383 438.398H364.289C363.987 439.82 363.596 441.138 363.117 442.352H365.953V449.953H365.148V449.055H363.297V450.242H362.477V443.695C362.102 444.383 361.794 444.88 361.555 445.188L361.023 444.516C362.227 442.688 363.026 440.648 363.422 438.398H361.328V437.617H366.383V438.398ZM365.148 448.273V443.117H363.297V448.273H365.148ZM372.828 447.023H366.578V446.242H372.828V447.023Z" fill="#6C757D"/>
<rect x="284.5" y="426.5" width="871" height="35" rx="3.5" stroke="#CED4DA"/>
<path d="M1116.81 473.937C1116.7 474.754 1116.52 475.412 1116.27 475.912C1116.02 476.413 1115.69 476.663 1115.27 476.663C1114.43 476.663 1113.65 475.758 1112.91 473.95C1111.96 474.604 1110.89 475.194 1109.7 475.719L1109.23 475.144C1110.64 474.581 1111.8 473.962 1112.71 473.287C1112.42 472.054 1112.23 470.894 1112.15 469.806L1109.83 470.087L1109.78 469.406L1112.09 469.137C1111.99 468.092 1111.94 467.106 1111.94 466.181C1111.94 465.923 1111.95 465.671 1111.96 465.425H1112.63C1112.62 465.683 1112.62 465.952 1112.62 466.231C1112.62 467.077 1112.66 468.012 1112.74 469.037L1116.64 468.562L1116.71 469.206L1112.79 469.687C1112.86 470.737 1113.03 471.8 1113.29 472.875C1114.21 472.096 1115.04 471.167 1115.78 470.087L1116.33 470.481C1115.42 471.748 1114.47 472.765 1113.49 473.531C1113.79 474.352 1114.11 474.958 1114.44 475.35C1114.78 475.742 1115.05 475.937 1115.24 475.937C1115.37 475.937 1115.48 475.896 1115.57 475.812C1115.66 475.729 1115.77 475.458 1115.89 475C1116.02 474.542 1116.11 474.069 1116.18 473.581L1116.81 473.937ZM1110.22 471.287C1109.71 471.521 1109.1 471.756 1108.39 471.994V475.719C1108.39 475.969 1108.32 476.183 1108.18 476.363C1108.04 476.542 1107.67 476.631 1107.07 476.631C1106.89 476.631 1106.65 476.625 1106.36 476.613L1106.12 475.937C1106.91 475.954 1107.37 475.952 1107.52 475.931C1107.67 475.906 1107.74 475.827 1107.74 475.694V472.2C1107.31 472.367 1106.67 472.558 1105.84 472.775L1105.61 472.119C1106.38 471.94 1107.09 471.744 1107.74 471.531V468.331H1105.71V467.681H1107.74V465.425H1108.39V467.681H1110.07V468.331H1108.39V471.3C1108.98 471.096 1109.53 470.883 1110.06 470.662L1110.22 471.287ZM1115.86 467.587L1115.29 468.025C1114.79 467.337 1114.25 466.771 1113.66 466.325L1114.18 465.9C1114.86 466.408 1115.42 466.971 1115.86 467.587ZM1129.06 476.65H1128.34V475.55H1119.72V476.65H1119.03V465.719H1129.06V476.65ZM1128.34 474.862V466.4H1119.72V474.862H1128.34ZM1126.44 472.875H1121.58V468.281H1126.44V472.875ZM1125.77 472.2V468.95H1122.26V472.2H1125.77ZM1141.91 469H1141.26V467.081H1132.45V469H1131.79V466.437H1136.59C1136.52 466.167 1136.4 465.869 1136.21 465.544L1136.81 465.337C1136.99 465.667 1137.14 466.033 1137.27 466.437H1141.91V469ZM1137.8 469.05L1137.27 469.394C1136.9 468.798 1136.49 468.277 1136.06 467.831L1136.62 467.487C1137.01 467.883 1137.41 468.404 1137.8 469.05ZM1139.97 468.412C1138.78 469.8 1137.26 470.96 1135.42 471.894C1135.42 472.002 1135.48 472.079 1135.6 472.125C1135.72 472.167 1136.22 472.187 1137.09 472.187C1138 472.187 1138.58 472.152 1138.84 472.081C1139.09 472.006 1139.25 471.517 1139.31 470.612L1139.92 470.931C1139.9 471.469 1139.81 471.883 1139.65 472.175C1139.49 472.462 1139.3 472.642 1139.07 472.712C1138.84 472.779 1138.37 472.812 1137.65 472.812C1136.41 472.812 1135.66 472.79 1135.39 472.744C1135.13 472.694 1134.93 472.517 1134.79 472.212C1133.7 472.704 1132.64 473.135 1131.61 473.506L1131.29 472.969C1132.59 472.519 1133.73 472.052 1134.72 471.569V467.937H1135.39V471.225C1137.04 470.387 1138.41 469.317 1139.5 468.012L1139.97 468.412ZM1134.28 468.906C1133.47 469.906 1132.63 470.74 1131.76 471.406L1131.29 470.931C1132.08 470.365 1132.89 469.567 1133.74 468.537L1134.28 468.906ZM1142.36 471.637L1141.87 472.081C1141.36 471.331 1140.68 470.546 1139.83 469.725L1140.32 469.319C1141.23 470.21 1141.91 470.983 1142.36 471.637ZM1141.06 476.663H1140.39V476.331H1132.57V473.706H1133.24V475.719H1136.41V473.156H1137.07V475.719H1140.39V473.706H1141.06V476.663ZM1155.01 470.444C1154.96 471.794 1154.89 472.998 1154.8 474.056C1154.71 475.115 1154.62 475.762 1154.51 476C1154.41 476.233 1154.26 476.402 1154.06 476.506C1153.86 476.615 1153.33 476.669 1152.47 476.669C1152.25 476.669 1152.04 476.663 1151.85 476.65L1151.57 475.987C1152.92 476.008 1153.63 475.99 1153.69 475.931C1153.76 475.869 1153.83 475.808 1153.89 475.75C1153.96 475.687 1154.04 475.123 1154.13 474.056C1154.21 472.985 1154.27 471.996 1154.3 471.087H1148.92L1149.43 466.937L1150.1 467.062L1149.69 470.444H1153.01L1153.51 466.425H1148.81V465.787H1154.23L1153.69 470.444H1155.01ZM1148.31 466.719H1146.63C1146.39 467.856 1146.08 468.91 1145.69 469.881H1147.96V475.962H1147.32V475.244H1145.84V476.194H1145.18V470.956C1144.88 471.506 1144.64 471.904 1144.44 472.15L1144.02 471.612C1144.98 470.15 1145.62 468.519 1145.94 466.719H1144.26V466.094H1148.31V466.719ZM1147.32 474.619V470.494H1145.84V474.619H1147.32ZM1153.46 473.619H1148.46V472.994H1153.46V473.619Z" fill="#6C757D"/>
<path d="M1104.8 477.481H1156V478.225H1104.8V477.481Z" fill="#6C757D"/>
<path d="M299.219 507.773L298.672 508.445C296.729 506.977 295.422 505.586 294.75 504.273C293.865 505.555 292.622 506.914 291.023 508.352L290.414 507.727C292.424 506.07 293.844 504.396 294.672 502.703L295.422 502.992C295.401 503.076 295.333 503.234 295.219 503.469C295.922 504.87 297.255 506.305 299.219 507.773ZM290.305 509.484C290.305 510.901 290.263 512.268 290.18 513.586C290.102 514.904 290.021 515.677 289.938 515.906C289.854 516.13 289.711 516.32 289.508 516.477C289.305 516.633 288.802 516.714 288 516.719H287.023L286.734 515.906C287.219 515.927 287.63 515.938 287.969 515.938C288.521 515.938 288.854 515.901 288.969 515.828C289.089 515.755 289.169 515.648 289.211 515.508C289.253 515.367 289.305 514.701 289.367 513.508C289.435 512.31 289.458 511.247 289.438 510.32H285.555L285.906 504.812L286.734 504.867L286.445 509.484H288.594L288.992 503.938H285.188V503.172H289.906L289.469 509.484H290.305ZM297.203 508.578H292.383V507.758H297.203V508.578ZM295.359 514.367L294.562 514.562C294.505 513.021 294.253 511.302 293.805 509.406L294.609 509.25C295.068 511.286 295.318 512.992 295.359 514.367ZM299.023 516.43H290.609V515.633H295.57C296.398 513.721 297.065 511.646 297.57 509.406L298.383 509.633C297.799 511.971 297.154 513.971 296.445 515.633H299.023V516.43ZM293.023 514.562L292.211 514.766C292.013 513.25 291.596 511.576 290.961 509.742L291.758 509.523C292.404 511.466 292.826 513.146 293.023 514.562ZM288.961 512.852C287.711 513.315 286.458 513.719 285.203 514.062L284.961 513.266C286.326 512.922 287.594 512.526 288.766 512.078L288.961 512.852ZM304.609 505.555L303.938 506.047C303.333 505.062 302.641 504.177 301.859 503.391L302.562 502.867C303.469 503.846 304.151 504.742 304.609 505.555ZM315.086 516.547H305.328V515.758H306.625V506.961H307.469V515.758H309.891V504.109H305.602V503.312H314.867V504.109H310.719V508.797H314.492V509.586H310.719V515.758H315.086V516.547ZM305.891 513.969C305.234 514.625 304.38 515.339 303.328 516.109L302.828 515.328C302.938 515.234 302.992 515.128 302.992 515.008V508.078H301.148V507.281H303.82V514.688C304.372 514.245 304.917 513.771 305.453 513.266L305.891 513.969ZM330.766 509.055C330.703 510.742 330.615 512.247 330.5 513.57C330.391 514.893 330.271 515.703 330.141 516C330.016 516.292 329.828 516.503 329.578 516.633C329.328 516.768 328.664 516.836 327.586 516.836C327.31 516.836 327.052 516.828 326.812 516.812L326.461 515.984C328.148 516.01 329.034 515.987 329.117 515.914C329.206 515.836 329.289 515.76 329.367 515.688C329.451 515.609 329.547 514.904 329.656 513.57C329.766 512.232 329.839 510.995 329.875 509.859H323.148L323.789 504.672L324.625 504.828L324.109 509.055H328.258L328.883 504.031H323.008V503.234H329.789L329.117 509.055H330.766ZM322.383 504.398H320.289C319.987 505.82 319.596 507.138 319.117 508.352H321.953V515.953H321.148V515.055H319.297V516.242H318.477V509.695C318.102 510.383 317.794 510.88 317.555 511.188L317.023 510.516C318.227 508.688 319.026 506.648 319.422 504.398H317.328V503.617H322.383V504.398ZM321.148 514.273V509.117H319.297V514.273H321.148ZM328.828 513.023H322.578V512.242H328.828V513.023Z" fill="#212529"/>
<g clip-path="url(#clip1)">
<rect x="284.5" y="530.5" width="871" height="33" rx="3.5" fill="white"/>
<rect width="88" height="36" transform="translate(284 529)" fill="#E9ECEF"/>
<path d="M311.219 544.773L310.672 545.445C308.729 543.977 307.422 542.586 306.75 541.273C305.865 542.555 304.622 543.914 303.023 545.352L302.414 544.727C304.424 543.07 305.844 541.396 306.672 539.703L307.422 539.992C307.401 540.076 307.333 540.234 307.219 540.469C307.922 541.87 309.255 543.305 311.219 544.773ZM302.305 546.484C302.305 547.901 302.263 549.268 302.18 550.586C302.102 551.904 302.021 552.677 301.938 552.906C301.854 553.13 301.711 553.32 301.508 553.477C301.305 553.633 300.802 553.714 300 553.719H299.023L298.734 552.906C299.219 552.927 299.63 552.938 299.969 552.938C300.521 552.938 300.854 552.901 300.969 552.828C301.089 552.755 301.169 552.648 301.211 552.508C301.253 552.367 301.305 551.701 301.367 550.508C301.435 549.31 301.458 548.247 301.438 547.32H297.555L297.906 541.812L298.734 541.867L298.445 546.484H300.594L300.992 540.938H297.188V540.172H301.906L301.469 546.484H302.305ZM309.203 545.578H304.383V544.758H309.203V545.578ZM307.359 551.367L306.562 551.562C306.505 550.021 306.253 548.302 305.805 546.406L306.609 546.25C307.068 548.286 307.318 549.992 307.359 551.367ZM311.023 553.43H302.609V552.633H307.57C308.398 550.721 309.065 548.646 309.57 546.406L310.383 546.633C309.799 548.971 309.154 550.971 308.445 552.633H311.023V553.43ZM305.023 551.562L304.211 551.766C304.013 550.25 303.596 548.576 302.961 546.742L303.758 546.523C304.404 548.466 304.826 550.146 305.023 551.562ZM300.961 549.852C299.711 550.315 298.458 550.719 297.203 551.062L296.961 550.266C298.326 549.922 299.594 549.526 300.766 549.078L300.961 549.852ZM324.609 542.555L323.938 543.047C323.333 542.062 322.641 541.177 321.859 540.391L322.562 539.867C323.469 540.846 324.151 541.742 324.609 542.555ZM335.086 553.547H325.328V552.758H326.625V543.961H327.469V552.758H329.891V541.109H325.602V540.312H334.867V541.109H330.719V545.797H334.492V546.586H330.719V552.758H335.086V553.547ZM325.891 550.969C325.234 551.625 324.38 552.339 323.328 553.109L322.828 552.328C322.938 552.234 322.992 552.128 322.992 552.008V545.078H321.148V544.281H323.82V551.688C324.372 551.245 324.917 550.771 325.453 550.266L325.891 550.969ZM358.766 546.055C358.703 547.742 358.615 549.247 358.5 550.57C358.391 551.893 358.271 552.703 358.141 553C358.016 553.292 357.828 553.503 357.578 553.633C357.328 553.768 356.664 553.836 355.586 553.836C355.31 553.836 355.052 553.828 354.812 553.812L354.461 552.984C356.148 553.01 357.034 552.987 357.117 552.914C357.206 552.836 357.289 552.76 357.367 552.688C357.451 552.609 357.547 551.904 357.656 550.57C357.766 549.232 357.839 547.995 357.875 546.859H351.148L351.789 541.672L352.625 541.828L352.109 546.055H356.258L356.883 541.031H351.008V540.234H357.789L357.117 546.055H358.766ZM350.383 541.398H348.289C347.987 542.82 347.596 544.138 347.117 545.352H349.953V552.953H349.148V552.055H347.297V553.242H346.477V546.695C346.102 547.383 345.794 547.88 345.555 548.188L345.023 547.516C346.227 545.688 347.026 543.648 347.422 541.398H345.328V540.617H350.383V541.398ZM349.148 551.273V546.117H347.297V551.273H349.148ZM356.828 550.023H350.578V549.242H356.828V550.023Z" fill="#495057"/>
<rect x="372.5" y="529.5" width="783" height="35" fill="white"/>
<path d="M388.336 542.484L387.602 542.938C387.076 542.047 386.409 541.161 385.602 540.281L386.32 539.828C387.065 540.641 387.737 541.526 388.336 542.484ZM398.93 545.562H388.93V544.844H393.602V543.625H389.789V542.938H393.602V541.781H389.359V541.078H393.602V539.867H394.43V541.078H398.609V541.781H394.43V542.938H398.094V543.625H394.43V544.844H398.93V545.562ZM389.742 550.773C389.102 551.471 388.185 552.266 386.992 553.156L386.531 552.438C386.656 552.323 386.719 552.174 386.719 551.992V545.094H385.055V544.281H387.555V551.656C388.201 551.188 388.792 550.669 389.328 550.102L389.742 550.773ZM397.695 552.602C397.695 553.086 397.557 553.414 397.281 553.586C397.005 553.758 396.503 553.844 395.773 553.844C395.487 553.844 395.242 553.833 395.039 553.812L394.766 553.016C394.995 553.031 395.326 553.039 395.758 553.039C396.263 553.039 396.576 553.008 396.695 552.945C396.82 552.878 396.883 552.768 396.883 552.617V551.258H391.133V553.812H390.289V546.633H397.695V552.602ZM396.883 548.523V547.383H391.133V548.523H396.883ZM396.883 550.539V549.273H391.133V550.539H396.883ZM415.117 543.562L414.656 544.219C412.844 543.182 411.5 542.094 410.625 540.953C409.677 542.021 408.38 543.099 406.734 544.188L406.156 543.562C408.177 542.276 409.646 541.005 410.562 539.75L411.297 540.102C411.286 540.154 411.237 540.234 411.148 540.344C412.06 541.516 413.383 542.589 415.117 543.562ZM406.398 542.438H403.484C403.094 543.88 402.685 545.224 402.258 546.469H403.695V543.562H404.461V546.469H406.047V547.227H404.461V549.688C404.852 549.589 405.417 549.424 406.156 549.195L406.258 549.977C405.799 550.138 405.201 550.307 404.461 550.484V553.852H403.695V550.695C402.841 550.888 402.026 551.049 401.25 551.18L401.023 550.422C401.674 550.318 402.565 550.138 403.695 549.883V547.227H401.391V546.469C401.844 545.26 402.271 543.917 402.672 542.438H401.234V541.672H402.852C402.982 541.208 403.135 540.589 403.312 539.812L404.062 539.977C403.974 540.445 403.846 541.01 403.68 541.672H406.398V542.438ZM412.797 544.148H408.445V543.398H412.797V544.148ZM414.461 552.68C414.461 553.065 414.359 553.352 414.156 553.539C413.958 553.732 413.523 553.836 412.852 553.852H411.984L411.695 553.031C412.435 553.052 412.951 553.044 413.242 553.008C413.534 552.971 413.68 552.846 413.68 552.633V544.906H414.461V552.68ZM410.445 552.695C410.445 553.096 410.349 553.388 410.156 553.57C409.969 553.753 409.568 553.844 408.953 553.844C408.755 553.844 408.586 553.844 408.445 553.844L408.18 553.031C408.357 553.047 408.557 553.055 408.781 553.055C409.198 553.055 409.451 553.034 409.539 552.992C409.633 552.945 409.68 552.857 409.68 552.727V550.711H407.664V553.852H406.898V545.195H410.445V552.695ZM409.68 547.516V545.961H407.664V547.516H409.68ZM409.68 549.961V548.297H407.664V549.961H409.68ZM412.32 551.398H411.539V545.672H412.32V551.398ZM431.055 553.141L430.516 553.883C427.464 551.43 425.404 548.266 424.336 544.391C422.966 548.417 420.747 551.516 417.68 553.688L417.039 553.031C418.086 552.318 419.018 551.505 419.836 550.594C420.659 549.682 421.359 548.716 421.938 547.695C422.516 546.674 422.997 545.578 423.383 544.406C423.773 543.229 423.969 542.521 423.969 542.281L423.875 541.047H422.383V540.188H424.719C424.755 545.432 426.867 549.75 431.055 553.141ZM447.219 544.773L446.672 545.445C444.729 543.977 443.422 542.586 442.75 541.273C441.865 542.555 440.622 543.914 439.023 545.352L438.414 544.727C440.424 543.07 441.844 541.396 442.672 539.703L443.422 539.992C443.401 540.076 443.333 540.234 443.219 540.469C443.922 541.87 445.255 543.305 447.219 544.773ZM438.305 546.484C438.305 547.901 438.263 549.268 438.18 550.586C438.102 551.904 438.021 552.677 437.938 552.906C437.854 553.13 437.711 553.32 437.508 553.477C437.305 553.633 436.802 553.714 436 553.719H435.023L434.734 552.906C435.219 552.927 435.63 552.938 435.969 552.938C436.521 552.938 436.854 552.901 436.969 552.828C437.089 552.755 437.169 552.648 437.211 552.508C437.253 552.367 437.305 551.701 437.367 550.508C437.435 549.31 437.458 548.247 437.438 547.32H433.555L433.906 541.812L434.734 541.867L434.445 546.484H436.594L436.992 540.938H433.188V540.172H437.906L437.469 546.484H438.305ZM445.203 545.578H440.383V544.758H445.203V545.578ZM443.359 551.367L442.562 551.562C442.505 550.021 442.253 548.302 441.805 546.406L442.609 546.25C443.068 548.286 443.318 549.992 443.359 551.367ZM447.023 553.43H438.609V552.633H443.57C444.398 550.721 445.065 548.646 445.57 546.406L446.383 546.633C445.799 548.971 445.154 550.971 444.445 552.633H447.023V553.43ZM441.023 551.562L440.211 551.766C440.013 550.25 439.596 548.576 438.961 546.742L439.758 546.523C440.404 548.466 440.826 550.146 441.023 551.562ZM436.961 549.852C435.711 550.315 434.458 550.719 433.203 551.062L432.961 550.266C434.326 549.922 435.594 549.526 436.766 549.078L436.961 549.852ZM452.609 542.555L451.938 543.047C451.333 542.062 450.641 541.177 449.859 540.391L450.562 539.867C451.469 540.846 452.151 541.742 452.609 542.555ZM463.086 553.547H453.328V552.758H454.625V543.961H455.469V552.758H457.891V541.109H453.602V540.312H462.867V541.109H458.719V545.797H462.492V546.586H458.719V552.758H463.086V553.547ZM453.891 550.969C453.234 551.625 452.38 552.339 451.328 553.109L450.828 552.328C450.938 552.234 450.992 552.128 450.992 552.008V545.078H449.148V544.281H451.82V551.688C452.372 551.245 452.917 550.771 453.453 550.266L453.891 550.969ZM478.766 546.055C478.703 547.742 478.615 549.247 478.5 550.57C478.391 551.893 478.271 552.703 478.141 553C478.016 553.292 477.828 553.503 477.578 553.633C477.328 553.768 476.664 553.836 475.586 553.836C475.31 553.836 475.052 553.828 474.812 553.812L474.461 552.984C476.148 553.01 477.034 552.987 477.117 552.914C477.206 552.836 477.289 552.76 477.367 552.688C477.451 552.609 477.547 551.904 477.656 550.57C477.766 549.232 477.839 547.995 477.875 546.859H471.148L471.789 541.672L472.625 541.828L472.109 546.055H476.258L476.883 541.031H471.008V540.234H477.789L477.117 546.055H478.766ZM470.383 541.398H468.289C467.987 542.82 467.596 544.138 467.117 545.352H469.953V552.953H469.148V552.055H467.297V553.242H466.477V546.695C466.102 547.383 465.794 547.88 465.555 548.188L465.023 547.516C466.227 545.688 467.026 543.648 467.422 541.398H465.328V540.617H470.383V541.398ZM469.148 551.273V546.117H467.297V551.273H469.148ZM476.828 550.023H470.578V549.242H476.828V550.023Z" fill="#6C757D"/>
<rect x="372.5" y="529.5" width="783" height="35" stroke="#CED4DA"/>
</g>
<rect x="284.5" y="530.5" width="871" height="33" rx="3.5" stroke="#CED4DA"/>
<path d="M295.813 571.944H289.238C288.925 572.419 288.702 572.74 288.569 572.906H294.481V578.625H293.806V578H288.431V578.638H287.775V573.944C287.038 574.706 286.248 575.423 285.406 576.094L284.919 575.569C286.444 574.385 287.619 573.177 288.444 571.944H285.05V571.331H288.838C289.05 570.99 289.233 570.652 289.388 570.319H285.488V569.744H289.656C289.819 569.406 289.944 569.077 290.031 568.756C288.415 568.869 287.06 568.925 285.969 568.925L285.781 568.287C289.31 568.271 292.267 567.987 294.65 567.437L295.019 568.031C293.735 568.29 292.315 568.506 290.756 568.681C290.631 569.102 290.508 569.456 290.388 569.744H295.406V570.319H290.131C289.969 570.698 289.794 571.035 289.606 571.331H295.813V571.944ZM293.806 574.406V573.531H288.431V574.406H293.806ZM293.806 575.887V575.019H288.431V575.887H293.806ZM293.806 577.375V576.5H288.431V577.375H293.806ZM309 575.156L308.575 575.706C306.663 574.185 305.013 573.069 303.625 572.356V578.719H302.906V571.512C301.698 572.954 300.073 574.348 298.031 575.694L297.581 575.106C300.723 573.231 302.856 571.012 303.981 568.45H297.838V567.762H308.719V568.45H304.763C304.454 569.112 304.075 569.808 303.625 570.537V571.562C306.013 572.946 307.804 574.144 309 575.156ZM313.169 569.05L312.738 569.562C312.183 569 311.5 568.45 310.688 567.912L311.044 567.387C311.923 567.896 312.631 568.45 313.169 569.05ZM321.581 572.112H313.213V571.512H317.038V570.5H313.863V569.912H317.038V569.012H313.569V568.387H317.038V567.45H317.688V568.387H321.438V569.012H317.688V569.925H321.094V570.5H317.688V571.512H321.581V572.112ZM312.969 572.381L312.531 572.919C311.91 572.206 311.227 571.608 310.481 571.125L310.894 570.587C311.531 571.008 312.223 571.606 312.969 572.381ZM320.713 577.4C320.713 577.821 320.621 578.117 320.438 578.288C320.254 578.463 320.015 578.56 319.719 578.581C319.423 578.606 318.798 578.613 317.844 578.6L317.588 577.95C317.829 577.975 318.192 577.987 318.675 577.987C319.117 577.987 319.404 577.983 319.538 577.975C319.675 577.962 319.794 577.915 319.894 577.831C319.994 577.744 320.044 577.646 320.044 577.537V576.631H314.525C314.338 577.36 313.954 578.033 313.375 578.65L312.863 578.194C313.692 577.373 314.106 576.204 314.106 574.687V572.906H320.713V577.4ZM320.031 574.444V573.531H314.769V574.444H320.031ZM320.031 576.019V575.044H314.744C314.744 575.252 314.723 575.577 314.681 576.019H320.031ZM312.825 574.325C312.304 576.067 311.706 577.483 311.031 578.575L310.481 578.181C311.156 577.065 311.729 575.685 312.2 574.044L312.825 574.325ZM328.65 574.237C328.342 574.075 328.188 573.869 328.188 573.619C328.188 573.498 328.24 573.375 328.344 573.25C328.448 573.121 328.596 573.056 328.788 573.056C329.188 573.056 329.388 573.319 329.388 573.844C329.388 574.273 329.135 574.687 328.631 575.087L328.363 574.881C328.554 574.627 328.65 574.412 328.65 574.237ZM347.244 578.219L346.825 578.794C345.158 577.96 343.992 576.85 343.325 575.462C343.108 576.212 342.654 576.887 341.963 577.487C341.271 578.088 340.485 578.498 339.606 578.719L339.206 578.1C340.127 577.9 340.906 577.533 341.544 577C342.185 576.467 342.575 575.844 342.713 575.131H339.338V574.494H340.194V571.15C340.09 571.25 339.996 571.323 339.913 571.369L339.475 570.806C340.488 570.035 341.383 568.904 342.163 567.412L342.806 567.669C342.731 567.86 342.606 568.1 342.431 568.387H345.45V569.025C345.15 569.487 344.802 569.967 344.406 570.462H346.463V574.494H347.219V575.131H343.863C344.483 576.431 345.61 577.46 347.244 578.219ZM344.569 569.025H342.025C341.663 569.542 341.285 570.021 340.894 570.462H343.519C343.902 570.042 344.252 569.562 344.569 569.025ZM345.75 574.494V571.1H343.625C343.575 573.317 343.535 574.448 343.506 574.494H345.75ZM342.944 571.1H340.869V574.494H342.844C342.898 573.844 342.931 572.712 342.944 571.1ZM339.819 573.187C339.185 573.487 338.713 573.7 338.4 573.825V577.806C338.4 578.381 338.013 578.669 337.238 578.669C337.042 578.669 336.806 578.663 336.531 578.65L336.275 577.937C336.879 577.962 337.285 577.975 337.494 577.975C337.544 577.975 337.596 577.942 337.65 577.875C337.708 577.808 337.738 577.74 337.738 577.669V574.106C337.313 574.277 336.8 574.471 336.2 574.687L335.981 574.019C336.685 573.794 337.271 573.594 337.738 573.419V570.369H336.163V569.706H337.738V567.45H338.4V569.706H339.681V570.369H338.4V573.112C338.75 572.967 339.173 572.775 339.669 572.537L339.819 573.187ZM359.994 573.162H348.906V572.444H359.994V573.162ZM372.831 578.144L372.413 578.65C370.442 577.362 369.165 575.465 368.581 572.956H367.456V577.694C368.165 577.477 368.869 577.192 369.569 576.837L369.694 577.512C368.944 577.883 368.023 578.25 366.931 578.613L366.663 578.038C366.746 577.896 366.788 577.765 366.788 577.644V572.956H365.331V572.281H366.788V567.481H367.456V570.962C369.144 570.092 370.454 569.115 371.388 568.031L371.925 568.45C370.892 569.646 369.402 570.733 367.456 571.712V572.281H372.744V572.956H369.263C369.746 575.148 370.935 576.877 372.831 578.144ZM365.456 573.369C365.448 574.456 365.398 575.471 365.306 576.412C365.219 577.354 365.133 577.923 365.05 578.119C364.967 578.315 364.825 578.454 364.625 578.538C364.425 578.625 364.027 578.669 363.431 578.669C363.031 578.669 362.679 578.658 362.375 578.638L362.144 578.013C362.615 578.033 363.01 578.044 363.331 578.044C363.948 578.044 364.302 578.004 364.394 577.925C364.485 577.846 364.573 577.319 364.656 576.344C364.74 575.365 364.785 574.585 364.794 574.006H361.863C362.025 572.902 362.135 571.787 362.194 570.662H364.794V568.4H361.631V567.787H365.456V571.306H362.825C362.792 571.781 362.727 572.469 362.631 573.369H365.456Z" fill="#6C757D"/>
<path d="M284 579.481H373.6V580.225H284V579.481Z" fill="#6C757D"/>
<rect x="284.5" y="606" width="12" height="12" rx="1.5" fill="white" stroke="#CED4DA"/>
<path d="M308.609 607.422L307.984 607.906C307.401 607.01 306.693 606.135 305.859 605.281L306.516 604.812C307.219 605.505 307.917 606.375 308.609 607.422ZM319.133 615.008C319.096 616.685 318.94 617.698 318.664 618.047C318.393 618.401 318.013 618.578 317.523 618.578L311.969 618.594C311.083 618.594 310.641 618.188 310.641 617.375V610.672H317.602V606.031H310.125V605.25H318.43V611.469H311.469V617.359C311.469 617.568 311.557 617.703 311.734 617.766C311.917 617.823 312.753 617.852 314.242 617.852C316.299 617.852 317.456 617.823 317.711 617.766C317.966 617.703 318.133 617.362 318.211 616.742C318.294 616.122 318.336 615.448 318.336 614.719L319.133 615.008ZM310.125 615.805C309.104 616.685 308.177 617.396 307.344 617.938L306.93 617.344C306.992 617.234 307.023 617.138 307.023 617.055V610H305.117V609.234H307.844V616.609C308.375 616.245 309.018 615.753 309.773 615.133L310.125 615.805ZM334.961 618.43H325.07V617.602H329.391V613.297H325.844V612.461H329.391V608.781H325.359V607.953H329.602C329.435 607.177 329.044 606.211 328.43 605.055L329.266 604.766C329.719 605.74 330.122 606.802 330.477 607.953H334.766V608.781H330.242V612.461H334.258V613.297H330.242V617.602H334.961V618.43ZM325.57 605.07C325.398 605.539 325.13 606.138 324.766 606.867L324.227 607.938V618.797H323.375V609.328C322.812 610.177 322.109 611.026 321.266 611.875L320.812 611.039C322.438 609.508 323.755 607.432 324.766 604.812L325.57 605.07ZM351.07 615.539C350.935 616.201 350.732 616.872 350.461 617.555C350.195 618.232 349.951 618.63 349.727 618.75C349.508 618.87 349.281 618.93 349.047 618.93C348.635 618.93 348.18 618.62 347.68 618C347.18 617.375 346.763 616.643 346.43 615.805C345.544 616.549 344.424 617.211 343.07 617.789L342.492 617.086C344.034 616.482 345.245 615.779 346.125 614.977C345.74 613.378 345.516 611.719 345.453 610H341.648V612.812C342.424 612.714 343.443 612.464 344.703 612.062V612.945C343.682 613.232 342.664 613.477 341.648 613.68V617.773C341.648 618.049 341.547 618.286 341.344 618.484C341.141 618.688 340.846 618.792 340.461 618.797H338.352L338.109 617.938C338.776 617.969 339.534 617.984 340.383 617.984C340.669 617.984 340.812 617.852 340.812 617.586V613.875C339.438 614.141 338.281 614.336 337.344 614.461L337.133 613.617C337.888 613.565 339.115 613.372 340.812 613.039V610H337.039V609.172H340.812V606.672C339.146 606.938 338.086 607.086 337.633 607.117L337.328 606.32C340.125 606.044 342.43 605.591 344.242 604.961L344.492 605.711C343.633 605.997 342.685 606.253 341.648 606.477V609.172H345.422C345.411 608.708 345.406 608.19 345.406 607.617C345.406 606.57 345.422 605.625 345.453 604.781H346.289C346.247 605.526 346.227 606.393 346.227 607.383C346.227 608.023 346.237 608.62 346.258 609.172H351.023V610H346.305C346.336 611.448 346.505 612.857 346.812 614.227C347.552 613.471 348.284 612.362 349.008 610.898L349.727 611.344C348.81 613.036 347.935 614.312 347.102 615.172C347.357 615.948 347.701 616.63 348.133 617.219C348.57 617.802 348.888 618.094 349.086 618.094C349.201 618.094 349.299 618.029 349.383 617.898C349.466 617.768 349.615 617.419 349.828 616.852C350.047 616.279 350.211 615.685 350.32 615.07L351.07 615.539ZM350.242 608L349.555 608.492C348.997 607.534 348.307 606.677 347.484 605.922L348.125 605.406C348.984 606.203 349.69 607.068 350.242 608Z" fill="#212529"/>
<rect x="284" y="640" width="872" height="40" rx="4.8" fill="#007BFF"/>
<path d="M719.102 658.641L718.609 659.328C715.667 657.849 713.617 655.779 712.461 653.117L713.203 652.766C713.469 653.417 713.81 654.036 714.227 654.625C714.924 653.995 715.495 653.38 715.938 652.781L716.672 653.219C716.016 653.99 715.344 654.667 714.656 655.25C714.984 655.698 715.336 656.081 715.711 656.398C716.32 655.94 716.977 655.268 717.68 654.383L718.367 654.828C717.706 655.594 717.023 656.284 716.32 656.898C716.94 657.44 717.867 658.021 719.102 658.641ZM711.648 653.953C710.232 656.292 708.237 658.083 705.664 659.328L705.102 658.641C706.143 658.182 707.151 657.596 708.125 656.883C707.667 656.409 707.07 655.922 706.336 655.422L706.883 654.812C707.591 655.328 708.214 655.841 708.75 656.352C709.453 655.721 710.109 654.932 710.719 653.984H706.594V653.188H711.648V653.953ZM715.055 658.109H709.133V657.328H715.055V658.109ZM718.656 666.461H705.453V665.68H709.969C709.703 664.94 709.362 664.268 708.945 663.664L709.523 663.188H708.18V659.617H715.953V663.188H714.562L715.117 663.602C714.982 664.013 714.669 664.706 714.18 665.68H718.656V666.461ZM715.117 662.352V660.383H709.023V662.352H715.117ZM714.352 663.188H709.711C710.117 663.943 710.503 664.773 710.867 665.68H713.219C713.599 665.044 713.977 664.214 714.352 663.188ZM735.055 666.141L734.516 666.883C731.464 664.43 729.404 661.266 728.336 657.391C726.966 661.417 724.747 664.516 721.68 666.688L721.039 666.031C722.086 665.318 723.018 664.505 723.836 663.594C724.659 662.682 725.359 661.716 725.938 660.695C726.516 659.674 726.997 658.578 727.383 657.406C727.773 656.229 727.969 655.521 727.969 655.281L727.875 654.047H726.383V653.188H728.719C728.755 658.432 730.867 662.75 735.055 666.141Z" fill="white"/>
<path d="M676.656 703.172L676.078 703.742C675.172 702.768 674.286 701.984 673.422 701.391L674 700.797C675.115 701.609 676 702.401 676.656 703.172ZM686.898 702H683.039C682.945 702.38 682.802 702.812 682.609 703.297L682.32 703.953V705.234C684.284 706.521 685.766 707.714 686.766 708.812L686.242 709.438C685.159 708.266 683.852 707.18 682.32 706.18V712.812H681.484V705.523C680.417 707.164 679.245 708.469 677.969 709.438L677.469 708.852C679.891 706.768 681.453 704.484 682.156 702H677.586V701.188H686.898V702ZM687.086 713.617L686.797 714.492L680.625 714.477C678.672 714.477 676.997 713.901 675.602 712.75C675.18 713.406 674.555 714.099 673.727 714.828L673.172 714.273C674.703 713.018 675.706 711.289 676.18 709.086H673.523V708.32C674.534 707.299 675.375 706.232 676.047 705.117H673.117V704.336H677.039V705.117C676.336 706.232 675.531 707.299 674.625 708.32H677.055V709.086C676.773 710.232 676.422 711.224 676 712.062C676.604 712.562 677.276 712.945 678.016 713.211C678.755 713.477 679.523 713.62 680.32 713.641C681.122 713.661 682.201 713.672 683.555 713.672C685.086 713.672 686.263 713.654 687.086 713.617ZM693.133 703.023L692.609 703.648C691.693 702.815 690.732 702.112 689.727 701.539L690.227 700.852C691.445 701.602 692.414 702.326 693.133 703.023ZM702.898 706.578H700.656C700.036 706.578 699.727 706.279 699.727 705.68V702.094H695.773V703.25C695.773 704.979 695 706.247 693.453 707.055L692.812 706.461C694.245 705.737 694.961 704.646 694.961 703.188V701.281H700.547V705.406C700.547 705.5 700.589 705.586 700.672 705.664C700.76 705.737 700.852 705.773 700.945 705.773H702.898V706.578ZM692.43 707.148L691.922 707.805C691.052 706.956 690.086 706.216 689.023 705.586L689.508 704.883C690.805 705.685 691.779 706.44 692.43 707.148ZM702.992 714.242L702.492 714.945C700.773 714.388 699.206 713.63 697.789 712.672C696.471 713.49 694.883 714.208 693.023 714.828L692.461 714.141C694.242 713.589 695.768 712.922 697.039 712.141C695.935 711.161 694.964 709.945 694.125 708.492H693.406V707.695H701.758V708.492C700.763 710.039 699.688 711.255 698.531 712.141C699.615 712.885 701.102 713.586 702.992 714.242ZM700.734 708.492H695.133C695.799 709.711 696.69 710.763 697.805 711.648C698.841 710.888 699.818 709.836 700.734 708.492ZM692.641 709.82C691.781 711.586 690.768 713.25 689.602 714.812L689.023 714.258C690.247 712.549 691.245 710.896 692.016 709.297L692.641 709.82ZM719.023 703.484H711.102C710.711 704.151 710.318 704.75 709.922 705.281H717.789V713.617C717.789 714.086 717.641 714.406 717.344 714.578C717.047 714.755 716.346 714.844 715.242 714.844C714.82 714.844 714.406 714.828 714 714.797L713.602 713.969C714.086 714.01 714.604 714.031 715.156 714.031C716.031 714.031 716.549 713.995 716.711 713.922C716.878 713.844 716.961 713.706 716.961 713.508V711.422H709.086C708.805 712.833 708.214 713.997 707.312 714.914L706.516 714.445C707.839 713.268 708.5 711.201 708.5 708.242C708.5 707.93 708.492 707.534 708.477 707.055C707.44 708.081 706.477 708.891 705.586 709.484L704.945 708.852C707.174 707.357 708.896 705.568 710.109 703.484H705.102V702.656H710.594C710.901 702.104 711.211 701.474 711.523 700.766L712.383 701.008C712.076 701.69 711.805 702.24 711.57 702.656H719.023V703.484ZM716.961 707.891V706.062H709.344V707.891H716.961ZM716.961 710.641V708.719H709.297C709.297 709.542 709.271 710.182 709.219 710.641H716.961ZM735.086 714.078L734.516 714.734C732.182 712.99 730.651 710.643 729.922 707.695H729.023V713.555C729.284 713.466 730.052 713.13 731.328 712.547L731.555 713.344C730.18 714.016 729.117 714.474 728.367 714.719L728.062 714C728.141 713.812 728.18 713.654 728.18 713.523V707.695H726.914V706.852H728.18V700.797H729.023V704.852C730.779 704.008 732.266 702.87 733.484 701.438L734.141 701.969C732.885 703.495 731.18 704.758 729.023 705.758V706.852H735.008V707.695H730.797C731.573 710.539 733.003 712.667 735.086 714.078ZM726.367 710.367H725.539V702H722.461V710.367H721.648V701.172H726.367V710.367ZM724.43 708.945C724.43 711.539 723.448 713.484 721.484 714.781L720.992 714.078C721.888 713.469 722.547 712.789 722.969 712.039C723.391 711.289 723.602 710.258 723.602 708.945V702.992H724.43V708.945ZM726.867 713.523L726.125 714.031C725.729 713.25 725.169 712.456 724.445 711.648L725.172 711.133C725.974 712.076 726.539 712.872 726.867 713.523ZM748.43 705.617H739.68V701.219H748.43V705.617ZM747.555 704.797V702H740.578V704.797H747.555ZM750.977 707.82H741.758C741.622 708.299 741.448 708.833 741.234 709.422H749.008C748.93 710.443 748.802 711.385 748.625 712.25C748.453 713.115 748.299 713.664 748.164 713.898C748.034 714.133 747.846 714.323 747.602 714.469C747.362 714.615 747.117 714.708 746.867 714.75C746.617 714.792 746.021 714.812 745.078 714.812C744.714 714.812 744.401 714.802 744.141 714.781L743.758 713.938C744.247 713.953 744.729 713.961 745.203 713.961C746.234 713.961 746.826 713.93 746.977 713.867C747.128 713.799 747.263 713.68 747.383 713.508C747.503 713.336 747.625 712.94 747.75 712.32C747.88 711.701 747.979 711.013 748.047 710.258H740.047C740.385 709.315 740.654 708.503 740.852 707.82H737.086V707.023H750.977V707.82ZM760.195 710.594H759.008V709.938C759.008 709.422 759.104 708.974 759.297 708.594C759.49 708.208 759.896 707.771 760.516 707.281C761.135 706.797 761.549 706.362 761.758 705.977C761.971 705.591 762.078 705.161 762.078 704.688C762.078 704.141 761.885 703.693 761.5 703.344C761.12 702.99 760.599 702.812 759.938 702.812C758.969 702.812 758.099 703.182 757.328 703.922V702.531C758.224 701.984 759.161 701.711 760.141 701.711C761.125 701.711 761.906 701.977 762.484 702.508C763.068 703.039 763.359 703.729 763.359 704.578C763.359 705.151 763.227 705.682 762.961 706.172C762.701 706.656 762.216 707.206 761.508 707.82C760.992 708.247 760.643 708.594 760.461 708.859C760.284 709.125 760.195 709.495 760.195 709.969V710.594ZM759.602 712.367C759.846 712.367 760.055 712.456 760.227 712.633C760.404 712.81 760.492 713.026 760.492 713.281C760.492 713.526 760.406 713.74 760.234 713.922C760.062 714.104 759.852 714.195 759.602 714.195C759.346 714.195 759.13 714.107 758.953 713.93C758.776 713.747 758.688 713.531 758.688 713.281C758.688 713.021 758.776 712.805 758.953 712.633C759.135 712.456 759.352 712.367 759.602 712.367Z" fill="#212529"/>
<path d="M664.945 732.305H653.773V725.203H664.945V732.305ZM664.062 731.438V726.031H654.656V731.438H664.062ZM666.492 738.242L665.805 738.914C664.503 737.32 662.849 735.758 660.844 734.227L661.438 733.602C663.844 735.555 665.529 737.102 666.492 738.242ZM657.727 734.031C656.185 736.182 654.602 737.794 652.977 738.867L652.352 738.156C654.221 736.922 655.732 735.404 656.883 733.602L657.727 734.031ZM682.047 730.531H681.25V727.906H675.836V731.469H675.039V727.906H669.648V730.547H668.844V727.172H675.039V725.969H669.359V725.25H681.469V725.969H675.836V727.172H682.047V730.531ZM674.383 728.93L674.062 729.633C672.75 729.32 671.56 729.143 670.492 729.102L670.781 728.414C672.099 728.503 673.299 728.674 674.383 728.93ZM680.609 729.102C679.547 729.378 678.299 729.544 676.867 729.602L676.547 728.867C677.615 728.878 678.852 728.732 680.258 728.43L680.609 729.102ZM674.43 730.562C673.383 730.885 672.13 731.104 670.672 731.219L670.289 730.492C671.638 730.445 672.911 730.255 674.109 729.922L674.43 730.562ZM680.734 730.594L680.383 731.281C679.258 730.979 678 730.76 676.609 730.625L677.008 729.938C678.513 730.146 679.755 730.365 680.734 730.594ZM682.383 732.625H675.758C675.529 733.224 675.31 733.708 675.102 734.078H681.328V737.648C681.328 738.393 680.773 738.766 679.664 738.766C679.435 738.766 679.146 738.75 678.797 738.719L678.562 737.938C678.875 737.969 679.185 737.984 679.492 737.984C679.971 737.984 680.26 737.953 680.359 737.891C680.458 737.823 680.508 737.711 680.508 737.555V734.828H677.648V738.578H676.867V734.828H674.031V738.562H673.25V734.828H670.352V738.867H669.57V734.078H674.242C674.451 733.682 674.664 733.198 674.883 732.625H668.477V731.891H682.383V732.625ZM691.445 734.297C691.445 735.49 691.052 736.44 690.266 737.148C689.484 737.852 688.461 738.203 687.195 738.203C686.138 738.203 685.323 738.049 684.75 737.742V736.367C685.542 736.846 686.344 737.086 687.156 737.086C688.042 737.086 688.753 736.841 689.289 736.352C689.826 735.862 690.094 735.216 690.094 734.414C690.094 733.602 689.815 732.971 689.258 732.523C688.701 732.07 687.909 731.844 686.883 731.844C686.102 731.844 685.453 731.872 684.938 731.93L685.367 725.898H690.836V727.094H686.469L686.195 730.742C686.852 730.706 687.26 730.688 687.422 730.688C688.688 730.688 689.674 731.008 690.383 731.648C691.091 732.289 691.445 733.172 691.445 734.297ZM703.844 734.273H703.008V724.812H703.844V734.273ZM699.453 733.266L698.836 733.859C698.247 732.87 697.669 732.052 697.102 731.406V738.852H696.273V731.484C695.69 732.854 695.003 734.115 694.211 735.266L693.586 734.641C694.701 733.099 695.586 731.414 696.242 729.586H693.711V728.781H696.273V726.414C695.654 726.56 695.003 726.682 694.32 726.781L693.922 726C695.891 725.719 697.479 725.323 698.688 724.812L699.219 725.484C698.542 725.797 697.836 726.039 697.102 726.211V728.781H699.102V729.586H697.102V730.227C697.977 731.195 698.76 732.208 699.453 733.266ZM707.664 731.086L706.867 731.469C706.451 729.969 705.779 728.456 704.852 726.93L705.617 726.562C706.523 728.109 707.206 729.617 707.664 731.086ZM702.047 726.781C701.542 728.948 700.859 730.82 700 732.398L699.266 731.938C700.052 730.589 700.698 728.802 701.203 726.578L702.047 726.781ZM707.312 732.656C706.583 734.266 705.596 735.599 704.352 736.656C703.112 737.714 701.417 738.492 699.266 738.992L698.867 738.227C700.445 737.945 701.904 737.375 703.242 736.516C704.581 735.651 705.708 734.232 706.625 732.258L707.312 732.656ZM716.453 733.297C716.068 733.094 715.875 732.836 715.875 732.523C715.875 732.372 715.94 732.219 716.07 732.062C716.201 731.901 716.385 731.82 716.625 731.82C717.125 731.82 717.375 732.148 717.375 732.805C717.375 733.341 717.06 733.859 716.43 734.359L716.094 734.102C716.333 733.784 716.453 733.516 716.453 733.297ZM739.586 732.641H734.336C733.982 735.177 732.516 737.305 729.938 739.023L729.391 738.305C731.786 736.732 733.146 734.844 733.469 732.641H729.555V731.789H733.586C733.669 731.107 733.716 729.951 733.727 728.32H730.625V727.469H733.742C733.773 726.656 733.789 725.771 733.789 724.812H734.625C734.635 725.354 734.62 726.24 734.578 727.469H738.305V731.789H739.586V732.641ZM737.438 731.789V728.32H734.578C734.521 730.534 734.49 731.69 734.484 731.789H737.438ZM730.898 730.258L730.336 730.883C729.956 730.326 729.438 729.716 728.781 729.055V738.812H727.938V724.914H728.781V727.938C729.661 728.75 730.367 729.523 730.898 730.258ZM727.297 728.383C727.089 729.914 726.794 731.18 726.414 732.18L725.633 731.875C725.966 731.057 726.242 729.846 726.461 728.242L727.297 728.383ZM739.695 738.305L739.086 738.883C737.622 736.93 736.237 735.456 734.93 734.461L735.469 733.844C736.984 735.042 738.393 736.529 739.695 738.305ZM755.602 735.727L755.086 736.398C753.68 735.018 752.482 734.07 751.492 733.555V737.117H750.656V733.086C749.672 734.331 748.37 735.435 746.75 736.398L746.211 735.727C747.961 734.716 749.294 733.596 750.211 732.367H747.117V728.734H750.656V727.281H746.609V726.461H750.656V724.852H751.492V726.461H755.539V727.281H751.492V728.734H754.961V732.367H751.492V732.672C752.961 733.458 754.331 734.477 755.602 735.727ZM754.125 731.555V729.555H751.492V731.555H754.125ZM750.656 731.555V729.555H747.953V731.555H750.656ZM745.102 727.234L744.516 727.844C744.047 727.167 743.284 726.388 742.227 725.508L742.797 724.867C743.818 725.727 744.586 726.516 745.102 727.234ZM755.773 737.695L755.555 738.492H749.875C747.234 738.492 745.341 737.911 744.195 736.75C743.622 737.562 742.987 738.289 742.289 738.93L741.633 738.367C743.362 736.888 744.417 735.167 744.797 733.203H742.125V732.414C743.615 730.565 744.469 729.471 744.688 729.133H741.812V728.352H745.648V729.133L743.133 732.414H745.633V733.203C745.393 734.307 745.047 735.26 744.594 736.062C745.667 737.151 747.286 737.695 749.453 737.695H755.773ZM771.633 738.43H761.406V737.602H766.289V733.023H762.562V732.195H766.289V728.336H762.164V727.508H766.43C766.148 726.534 765.802 725.695 765.391 724.992L766.227 724.781C766.758 725.865 767.109 726.773 767.281 727.508H771.508V728.336H767.117V732.195H770.945V733.023H767.117V737.602H771.633V738.43ZM761.727 726.945L761.102 727.586C760.362 726.872 759.435 726.161 758.32 725.453L758.836 724.797C759.805 725.37 760.768 726.086 761.727 726.945ZM761.344 730.656L760.82 731.297C759.982 730.62 759.01 729.948 757.906 729.281L758.398 728.609C759.383 729.146 760.365 729.828 761.344 730.656ZM761.492 733.344C760.336 735.76 759.299 737.602 758.383 738.867L757.711 738.273C758.747 736.904 759.76 735.083 760.75 732.812L761.492 733.344ZM787.648 731.742H786.445V737.664C786.445 738.029 786.346 738.31 786.148 738.508C785.956 738.706 785.518 738.81 784.836 738.82L783.906 738.828L783.602 737.984C784.284 738.005 784.833 738.016 785.25 738.016C785.349 738.016 785.44 737.974 785.523 737.891C785.607 737.802 785.648 737.706 785.648 737.602V731.742H782.43V738.852H781.648V731.742H779.664V737.664C779.648 738.44 779.13 738.828 778.109 738.828C777.818 738.828 777.516 738.828 777.203 738.828L776.914 737.938C777.576 737.979 778.07 738 778.398 738C778.711 738 778.867 737.852 778.867 737.555V731.742H775.773V738.898H774.945V731.742H773.711V730.945H774.945V725.25H779.664V730.945H781.648V725.25H786.445V730.945H787.648V731.742ZM785.648 730.945V726.062H782.43V730.945H785.648ZM778.867 730.945V726.062H775.789V730.945H778.867Z" fill="#007BFF"/>
<path d="M651.359 739.852H788.641V740.781H651.359V739.852Z" fill="#007BFF"/>
<rect x="261.5" y="232.5" width="917" height="534" stroke="#F8F9FA" stroke-width="3"/>
<defs>
<clipPath id="clip0">
<rect width="872" height="39" fill="white" transform="translate(284 255)"/>
</clipPath>
<clipPath id="clip1">
</clipPath>
</defs>
</svg>
